<?xml version="1.0" encoding="iso-8859-1"?>
<svg version="1.1" id="Layer_1" xmlns="http://www.w3.org/2000/svg" xmlns:xlink="http://www.w3.org/1999/xlink" x="0px" y="0px"
	 viewBox="0 0 496.102 496.102" style="enable-background:new 0 0 496.102 496.102;" xml:space="preserve">
<path style="fill:#FFA64D;" d="M389.598,176.067H216.102c-17.672,0-32,14.328-32,32v40l0.112,0.112
	c-0.016,0.424-0.112,0.832-0.112,1.264v78.624h-48v64h48h32c17.672,0,32-14.328,32-32v-32v-18.024l10.352,10.024
	c-2.768,9.288-3.28,19.56-0.512,30.248c6.456,24.952,29.952,41.752,55.728,41.752h126.432v-90.44
	c15.32-13.744,24.776-33.888,23.952-56.28C462.598,206.227,428.742,176.067,389.598,176.067z"/>
<g>
	<rect x="360.102" y="272.067" style="fill:#3F3A34;" width="16" height="16"/>
	<path style="fill:#3F3A34;" d="M472.102,312.067h-24v-6.984c16.096-15.784,24.784-37.456,23.944-60.032
		c-1.576-42.456-38.56-76.984-82.44-76.984H216.102c-10.904,0-20.784,4.408-28.008,11.512c-3.976-12.4-10.832-23.784-20.312-33.256
		c-14.44-14.448-33.296-22.824-53.504-24.064l-41.272-22.008c-10.648-6.768-24.344-5.272-33.28,3.656L7.942,135.691
		c-8.936,8.928-10.44,22.616-3.96,32.76l22.32,41.808c1.248,20.208,9.616,39.056,24.064,53.496
		c15.68,15.688,36.528,24.32,58.712,24.32c22.168,0,43.032-8.632,58.712-24.32c3.08-3.072,5.8-6.4,8.32-9.848v66.16h-40h-8h-28
		c-11.032,0-20,8.968-20,20c0,1.368,0.144,2.704,0.408,4h-4.416c-15.44,0-28,12.56-28,28s12.56,28,28,28h52h8h80
		c20.064,0,36.576-14.904,39.416-34.2c11,20.664,33.184,34.2,58.152,34.2h134.432v-8.208c6.704,5.08,14.96,8.208,24,8.208
		c13.232,0,24-10.768,24-24v-40C496.102,322.835,485.334,312.067,472.102,312.067z M76.102,384.067c-6.616,0-12-5.384-12-12
		s5.384-12,12-12h24h4h8v-16h-8h-4c-2.2,0-4-1.8-4-4s1.8-4,4-4h28v48H76.102z M19.254,146.995l31.784-31.784
		c3.528-3.528,9.168-4.144,13.912-1.168l21.04,11.232c-13.328,3.832-25.552,10.96-35.632,21.04
		c-10.088,10.08-17.208,22.312-21.04,35.648l-11.536-21.576C15.102,156.163,15.718,150.539,19.254,146.995z M61.67,157.635
		c12.656-12.664,29.496-19.632,47.4-19.632c10.976,0,21.536,2.648,30.992,7.592l-17.6,17.6c-10.456-9.152-26.44-8.776-36.416,1.216
		c-9.976,9.976-10.384,25.944-1.216,36.416l-35.2,35.2c-4.944-9.456-7.584-20.016-7.584-30.992
		C42.038,187.131,49.006,170.291,61.67,157.635z M156.47,252.435c-12.664,12.664-29.504,19.632-47.4,19.632
		c-6.056,0-11.96-0.856-17.648-2.4l10.336-10.336l-11.312-11.312L75.47,262.995c-4.968-2.888-9.624-6.376-13.8-10.552
		c-0.976-0.976-1.864-2.024-2.768-3.056l48.512-48.512l-10.056-10.056c-4.16-4.16-4.16-10.928,0-15.088
		c4.152-4.152,10.92-4.168,15.088,0l10.056,10.056l30.92-30.912c1.024,0.912,2.072,1.792,3.056,2.768
		c12.656,12.648,19.624,29.488,19.624,47.392C176.102,222.931,169.134,239.771,156.47,252.435z M240.102,360.067
		c0,13.232-10.768,24-24,24h-72v-48h48v-86.624c0-13.008,9.496-24.112,21.616-25.264c6.912-0.6,13.464,1.52,18.52,6.128
		c5,4.536,7.864,11.008,7.864,17.76V360.067z M432.102,384.067H313.67c-22.808,0-42.536-14.704-47.992-35.752
		c-1.088-4.224-1.592-8.456-1.56-12.664c0.008-0.504,0.056-1,0.072-1.496c0.064-1.528,0.184-3.056,0.392-4.576
		c0.072-0.512,0.152-1.024,0.232-1.536c0.312-1.832,0.712-3.664,1.24-5.48c5.864-19.904,24.272-34.496,46.048-34.496h32v-16h-32
		c-24.08,0-45.08,13.384-56,33.088v-57.088c0-11.248-4.776-22.04-13.104-29.608c-8.32-7.56-19.56-11.28-30.8-10.2
		c-7.504,0.712-14.384,3.664-20.104,8.152v-8.344c0-13.232,10.768-24,24-24h173.504c35.384,0,65.192,27.624,66.464,61.576
		c0.672,18.216-6.488,35.648-19.584,48.304c-11.512,11.168-27.112,18.12-44.376,18.12h-40v16h40c14.608,0,28.232-4.032,40-10.928
		V384.067z M480.102,376.067c0,4.416-3.584,8-8,8c-13.232,0-24-10.768-24-24v-32h24c4.416,0,8,3.584,8,8V376.067z"/>
</g>
</svg>
