<?xml version="1.0" encoding="iso-8859-1"?>
<svg version="1.1" id="Layer_1" xmlns="http://www.w3.org/2000/svg" xmlns:xlink="http://www.w3.org/1999/xlink" x="0px" y="0px"
	 viewBox="0 0 512 512" style="enable-background:new 0 0 512 512;" xml:space="preserve">
<g>
	<polygon style="fill:#E09B2D;" points="329.909,384 256.005,512 182.102,384 154.349,359.985 156.863,340.277 133.449,299.723
		133.574,272.698 158.688,256 207.352,340.277 234.144,361.441 232.592,384 256.005,424.553 279.419,384 310.66,362.324 	"/>
	<polygon style="fill:#E09B2D;" points="477.705,128 403.801,256 405.445,297.052 378.562,299.723 355.148,340.277 328.149,354.673
		304.659,340.277 353.323,256 352.197,214.758 378.562,212.277 401.976,171.723 355.148,171.723 329.242,152.677 329.909,128 	"/>
	<polygon style="fill:#E09B2D;" points="279.419,128 308.473,151.82 304.659,171.723 207.352,171.723 178.397,187.431
		156.863,171.723 110.035,171.723 133.449,212.277 135.649,245.481 108.199,256 34.295,128 182.102,128 220.278,116.725
		232.592,128 	"/>
</g>
<g>
	<polygon style="fill:#F7B239;" points="403.801,256 477.705,384 329.909,384 279.419,384 232.592,384 207.352,340.277
		304.659,340.277 355.148,340.277 401.976,340.277 378.562,299.723 	"/>
	<polygon style="fill:#F7B239;" points="355.148,171.723 378.562,212.277 353.323,256 304.659,171.723 293.17,151.82 279.419,128
		256.005,87.447 232.592,128 209.003,128 182.102,128 256.005,0 329.909,128 344.154,152.677 	"/>
	<polygon style="fill:#F7B239;" points="207.352,171.723 158.688,256 133.449,299.723 110.035,340.277 156.863,340.277 182.102,384
		34.295,384 108.199,256 122.1,231.93 133.449,212.277 156.863,171.723 	"/>
</g>
</svg>
