<?xml version="1.0" encoding="iso-8859-1"?>
<svg version="1.1" id="Layer_1" xmlns="http://www.w3.org/2000/svg" xmlns:xlink="http://www.w3.org/1999/xlink" x="0px" y="0px"
	 viewBox="0 0 512 512" style="enable-background:new 0 0 512 512;" xml:space="preserve">
<path style="fill:#B9873C;" d="M443.509,431.011C487.745,383.503,512,321.949,512,256.73c0-68.38-26.629-132.667-74.98-181.02
	c-3.333-3.332-8.735-3.332-12.068,0l-36.269,36.269c-3.332,3.332-3.332,8.735,0,12.067c35.5,35.501,55.051,82.622,55.051,132.683
	c0,46.902-17.196,91.282-48.603,125.902l-24.839-24.841c-5.02-5.017-13.888-1.795-14.532,5.259l-9.694,106.238
	c-0.477,5.222,4.045,9.758,9.273,9.274l106.238-9.694c7.052-0.643,10.278-9.513,5.26-14.532L443.509,431.011z"/>
<g>
	<path style="fill:#A3682D;" d="M410.065,52.279c-3.761-2.835-9.114-2.085-11.95,1.68l-30.868,40.963
		c-2.86,3.795-1.948,9.509,2,12.176c3.686,2.491,8.943,1.66,11.629-1.905l30.867-40.963
		C414.58,60.466,413.828,55.116,410.065,52.279z"/>
	<path style="fill:#A3682D;" d="M380.111,32.827c-4.123-2.286-9.316-0.797-11.601,3.327l-24.867,44.861
		c-2.303,4.155-0.607,9.681,3.669,11.777c3.999,1.959,9.092,0.404,11.258-3.503l24.867-44.861
		C385.722,40.306,384.234,35.112,380.111,32.827z"/>
	<path style="fill:#A3682D;" d="M143.074,406.588c-3.761-2.836-9.115-2.085-11.95,1.68l-30.868,40.963
		c-2.589,3.436-2.164,8.426,0.981,11.364c3.654,3.415,9.637,2.901,12.647-1.093l30.867-40.963
		C147.589,414.774,146.837,409.424,143.074,406.588z"/>
	<path style="fill:#A3682D;" d="M165.03,420.845c-4.123-2.284-9.316-0.797-11.601,3.327l-24.867,44.861
		c-2.303,4.155-0.607,9.681,3.669,11.776c3.999,1.959,9.092,0.404,11.258-3.503l24.867-44.861
		C170.641,428.323,169.152,423.129,165.03,420.845z"/>
</g>
<path style="fill:#B9873C;" d="M159.634,33.525c-1.793-1.792-4.302-2.7-6.81-2.464L46.587,40.755
	c-7.052,0.643-10.278,9.513-5.26,14.532L68.491,82.45C24.256,129.958,0,191.511,0,256.73c0,68.38,26.628,132.667,74.98,181.019
	c3.289,3.287,8.78,3.287,12.068,0l36.269-36.269c3.332-3.332,3.332-8.735,0-12.067c-35.5-35.501-55.051-82.622-55.051-132.683
	c0-46.902,17.196-91.282,48.603-125.902l21.002,21.002c5.019,5.018,13.888,1.795,14.532-5.259l9.694-106.238
	C162.329,37.811,161.425,35.316,159.634,33.525z"/>
<g>
	<path style="fill:#FC9C47;" d="M238.933,418.864H204.8c-4.713,0-8.533,3.821-8.533,8.533c0,4.713,3.821,8.533,8.533,8.533h25.6
		v17.067h-25.6c-4.713,0-8.533,3.821-8.533,8.533v34.133c0,4.713,3.821,8.533,8.533,8.533h34.133c4.713,0,8.533-3.821,8.533-8.533
		s-3.821-8.533-8.533-8.533h-25.6v-17.067h25.6c4.713,0,8.533-3.821,8.533-8.533v-34.133
		C247.467,422.684,243.646,418.864,238.933,418.864z"/>
	<path style="fill:#FC9C47;" d="M307.2,470.064c4.713,0,8.533-3.821,8.533-8.533v-34.133c0-4.713-3.821-8.533-8.533-8.533h-34.133
		c-4.713,0-8.533,3.821-8.533,8.533c0,4.713,3.821,8.533,8.533,8.533h25.6v17.067h-25.6c-4.713,0-8.533,3.821-8.533,8.533v34.133
		c0,4.713,3.821,8.533,8.533,8.533H307.2c4.713,0,8.533-3.821,8.533-8.533s-3.821-8.533-8.533-8.533h-25.6v-17.067H307.2z"/>
</g>
<path style="fill:#FFC552;" d="M298.457,11.485c-7.02-3.708-21.507-7.678-42.457,4.731c-20.949-12.407-35.436-8.438-42.457-4.731
	c-10.817,5.715-17.277,17.645-17.277,31.913c0,37.872,54.467,58.355,56.785,59.209c1.892,0.695,4.004,0.695,5.895,0
	c2.319-0.854,56.786-21.337,56.786-59.209C315.733,29.129,309.274,17.2,298.457,11.485z"/>
<path style="fill:#FC9C47;" d="M221.867,34.867c0-10.933,3.804-20.482,10.445-26.925c-8.501-0.714-14.817,1.456-18.768,3.543
	c-10.817,5.714-17.277,17.644-17.277,31.911c0,37.872,54.467,58.355,56.785,59.209c1.892,0.695,4.004,0.695,5.895,0
	c0.86-0.317,8.889-3.333,18.652-8.932C269.613,90.539,221.867,70.326,221.867,34.867z"/>
<circle style="fill:#FFE5BA;" cx="281.6" cy="43.397" r="17.067"/>
<path style="fill:#72CCC5;" d="M255.467,121.264c-74.991,0-136,61.009-136,136s61.009,136,136,136s136-61.01,136-136
	S330.458,121.264,255.467,121.264z"/>
<path style="fill:#11BBA3;" d="M289.067,359.664c-74.991,0-136-61.009-136-136c0-28.933,9.088-55.779,24.55-77.85
	c-35.132,24.614-58.15,65.391-58.15,111.45c0,74.991,61.009,136,136,136c46.058,0,86.835-23.019,111.45-58.15
	C344.846,350.575,318,359.664,289.067,359.664z"/>
<g>
	<path style="fill:#66BF00;" d="M322.789,237.667l-5.023-15.07h14.5c2.675,0,5.173-1.337,6.656-3.563l17.067-25.6
		c0.307-0.461,0.566-0.953,0.772-1.467l5.142-12.858c1.084-2.707,0.607-5.79-1.243-8.045
		c-25.964-31.65-64.305-49.802-105.195-49.802c-25.42,0-50.222,7.068-71.724,20.442c-4.99,3.103-4.93,10.63,0.11,13.653
		l24.832,14.899c0.176,0.106,0.355,0.204,0.539,0.295l26.028,13.014l-12.039,18.06c-1.593,2.388-1.782,5.447-0.499,8.015
		l17.067,34.133c1.355,2.71,4.125,4.422,7.155,4.422h29.852l14.691,22.037c3.111,4.668,10.201,4.669,13.312,0l17.067-25.6
		C323.226,242.58,323.57,240.008,322.789,237.667z"/>
	<path style="fill:#66BF00;" d="M245.555,279.286c-1.355-2.71-4.125-4.422-7.155-4.422h-30.82l-23.257-23.257
		c-1.5-1.501-3.535-2.343-5.657-2.343h-23.178l-22.546-15.03c-4.859-3.239-11.635-0.133-12.373,5.643
		c-0.733,5.73-1.103,11.58-1.103,17.388c0,26.085,7.407,51.429,21.422,73.294c13.639,21.281,32.86,38.32,55.582,49.276
		c4.284,2.065,9.564-0.176,11.065-4.676l12.854-38.563c0.671-2.013,0.514-4.21-0.434-6.108l-2.745-5.489h38.256
		c5.835,0,9.771-6.348,7.155-11.578L245.555,279.286z"/>
	<path style="fill:#66BF00;" d="M388.737,254.96c-1.76-1.571-4.126-2.283-6.458-1.951l-34.078,4.868
		c-2.015,0.288-3.844,1.333-5.116,2.923l-34.133,42.667c-2.177,2.72-2.342,6.536-0.41,9.435l16.189,24.284l4.115,20.576
		c1.162,5.805,8.335,8.384,12.925,4.611c30.439-25.022,48.53-61.914,49.635-101.218C391.474,258.796,390.497,256.529,388.737,254.96
		z"/>
</g>
<g>
	<path style="fill:#58AB23;" d="M155.493,249.264h-0.004l-22.546-15.03c-2.304-1.536-5.238-1.771-7.757-0.622
		c-2.519,1.149-4.266,3.519-4.617,6.266c-0.733,5.73-1.103,11.58-1.103,17.388c0,26.085,7.407,51.429,21.422,73.294
		c13.639,21.281,32.86,38.32,55.582,49.276c1.097,0.529,2.285,0.794,3.474,0.794c1.058,0,2.117-0.21,3.115-0.632
		c2.117-0.895,3.748-2.658,4.475-4.839l11.626-34.878C186.595,320.684,162.873,287.841,155.493,249.264z"/>
	<path style="fill:#58AB23;" d="M328.847,357.76c0.551,2.756,2.509,5.022,5.156,5.966c0.876,0.313,1.785,0.465,2.687,0.465
		c1.826,0,3.628-0.625,5.082-1.82c9.73-7.999,18.192-17.215,25.247-27.331c-11.755,8.252-24.869,14.689-38.934,18.91L328.847,357.76
		z"/>
</g>
</svg>
