<?xml version="1.0" encoding="iso-8859-1"?>
<svg version="1.1" id="Layer_1" xmlns="http://www.w3.org/2000/svg" xmlns:xlink="http://www.w3.org/1999/xlink" x="0px" y="0px"
	 viewBox="0 0 512 512" style="enable-background:new 0 0 512 512;" xml:space="preserve">
<circle style="fill:#B5F1F4;" cx="256" cy="256" r="256"/>
<path style="fill:#84DBFF;" d="M502.7,324.565L307.434,129.302L204.283,294.5l-28.57,68.767L317.09,504.644
	C406.89,482.656,478.087,413.306,502.7,324.565z"/>
<path style="fill:#935635;" d="M366.595,287.897c0,60.931-49.395,110.325-110.325,110.325s-110.325-49.395-110.325-110.325
	c0-80.905,57.949-185.213,110.325-185.213C311.768,102.684,366.595,201.644,366.595,287.897z"/>
<path style="fill:#804000;" d="M256.271,102.684c-0.138,0-0.276,0.012-0.414,0.012v295.515c0.138,0,0.274,0.01,0.414,0.01
	c60.931,0,110.325-49.395,110.325-110.325C366.595,201.644,311.768,102.684,256.271,102.684z"/>
<polygon style="fill:#FFD15D;" points="298.939,218.834 267.71,218.834 267.71,189.992 244.29,189.992 244.29,218.834
	213.061,218.834 213.061,242.255 244.29,242.255 244.29,347.432 267.71,347.432 267.71,242.255 298.939,242.255 "/>
<polygon style="fill:#F9B54C;" points="267.71,218.834 267.71,189.992 255.857,189.992 255.857,347.432 267.71,347.432
	267.71,242.255 298.939,242.255 298.939,218.834 "/>
</svg>
