<?xml version="1.0" encoding="iso-8859-1"?>
<svg version="1.1" id="Capa_1" xmlns="http://www.w3.org/2000/svg" xmlns:xlink="http://www.w3.org/1999/xlink" x="0px" y="0px"
	 viewBox="0 0 512 512" style="enable-background:new 0 0 512 512;">
<path style="fill:#FFAC56;" d="M51.126,228.694h106.427L109.81,127.611c-2.996-6.342-9.465-10.441-16.48-10.441H27.216
	c-6.279,0-12.034,3.167-15.395,8.47c-3.361,5.305-3.767,11.861-1.085,17.54L51.126,228.694z"/>
<path style="fill:#FF7B59;" d="M10.735,369.039c-2.681,5.678-2.275,12.235,1.086,17.538s9.116,8.47,15.395,8.47h66.115
	c7.014,0,13.483-4.098,16.48-10.442l47.745-101.081H51.126L10.735,369.039z"/>
<path style="fill:#FFAC56;" d="M325.876,228.692H212.762V20.322c0-11.065,9.004-20.07,20.07-20.07h32.165
	c9.595,0,17.879,6.833,19.709,16.248L325.876,228.692z"/>
<path style="fill:#FF7B59;" d="M325.876,283.298L284.706,495.5c-1.831,9.414-10.115,16.248-19.709,16.248h-32.165
	c-11.065,0-20.07-9.004-20.07-20.08v-208.37L325.876,283.298L325.876,283.298z"/>
<path style="fill:#EFC597;" d="M511.995,254.394c0.24,14.477-7.824,27.133-21.05,33.036l-39.629,17.658
	c-12.486,5.563-25.752,8.384-39.429,8.384H57.397C25.742,313.473,0,287.73,0,256.075c0-31.645,25.742-57.397,57.397-57.397h355.91
	c12.556,0,24.822,2.401,36.457,7.123l40.089,16.278C503.271,227.531,511.755,239.917,511.995,254.394z"/>
<path style="fill:#FFE1BD;" d="M489.854,222.079l-40.089-16.278c-11.636-4.722-23.901-7.123-36.457-7.123H57.397
	c-31.628,0-57.351,25.709-57.395,57.317h511.962c0.014-0.532,0.04-1.063,0.031-1.601
	C511.755,239.917,503.271,227.531,489.854,222.079z"/>
<g>
</g>
<g>
</g>
<g>
</g>
<g>
</g>
<g>
</g>
<g>
</g>
<g>
</g>
<g>
</g>
<g>
</g>
<g>
</g>
<g>
</g>
<g>
</g>
<g>
</g>
<g>
</g>
<g>
</g>
</svg>
