<?xml version="1.0" encoding="iso-8859-1"?>
<svg version="1.1" id="Layer_1" xmlns="http://www.w3.org/2000/svg" xmlns:xlink="http://www.w3.org/1999/xlink" x="0px" y="0px"
	 viewBox="0 0 512 512" style="enable-background:new 0 0 512 512;">
<path style="fill:#D8DFE9;" d="M363.878,94.961c-52.829,209.368-52.829,209.368-52.829,209.368s-10.398-26.326-26.008-36.043
	v-52.833c0-16.039-13.001-29.041-29.041-29.041s-29.041,13.003-29.041,29.041v52.834c-15.611,9.715-26.008,36.043-26.008,36.043
	s0,0-52.829-209.368C129.401,20.774,73.074,0,27.061,0l34.45,255.656h37.307c0,51.726,51.422,94.247,102.133,98.264
	c0,0,15.147,52.24,39.834,69.057c0,0-52.711,40.71-57.657,62.483c0,0,27.292,26.539,72.872,26.539s72.872-26.539,72.872-26.539
	c-4.946-21.774-57.657-62.483-57.657-62.483c24.685-16.818,39.834-69.057,39.834-69.057c50.711-4.017,102.133-46.537,102.133-98.264
	h37.307L484.937,0C438.924,0,382.598,20.774,363.878,94.961z"/>
<g>
	<path style="fill:#BEC7D2;" d="M86.159,213.389H47.165c-4.714,0-8.533-3.821-8.533-8.533c0-4.713,3.82-8.533,8.533-8.533h38.993
		c4.714,0,8.533,3.821,8.533,8.533C94.691,209.568,90.871,213.389,86.159,213.389z"/>
	<path style="fill:#BEC7D2;" d="M86.159,162.588H40.32c-4.714,0-8.533-3.821-8.533-8.533c0-4.713,3.82-8.533,8.533-8.533h45.838
		c4.714,0,8.533,3.821,8.533,8.533C94.691,158.768,90.871,162.588,86.159,162.588z"/>
	<path style="fill:#BEC7D2;" d="M86.159,111.789H33.475c-4.714,0-8.533-3.821-8.533-8.533c0-4.713,3.82-8.533,8.533-8.533h52.684
		c4.714,0,8.533,3.821,8.533,8.533C94.692,107.968,90.871,111.789,86.159,111.789z"/>
	<path style="fill:#BEC7D2;" d="M86.159,60.988H26.63c-4.714,0-8.533-3.821-8.533-8.533s3.82-8.533,8.533-8.533h59.529
		c4.714,0,8.533,3.821,8.533,8.533S90.871,60.988,86.159,60.988z"/>
	<path style="fill:#BEC7D2;" d="M464.834,213.389h-38.993c-4.714,0-8.533-3.821-8.533-8.533c0-4.713,3.819-8.533,8.533-8.533h38.993
		c4.714,0,8.533,3.821,8.533,8.533C473.367,209.568,469.547,213.389,464.834,213.389z"/>
	<path style="fill:#BEC7D2;" d="M471.679,162.588h-45.838c-4.714,0-8.533-3.821-8.533-8.533c0-4.713,3.82-8.533,8.533-8.533h45.838
		c4.714,0,8.533,3.821,8.533,8.533C480.212,158.768,476.392,162.588,471.679,162.588z"/>
	<path style="fill:#BEC7D2;" d="M478.524,111.789H425.84c-4.714,0-8.533-3.821-8.533-8.533c0-4.713,3.82-8.533,8.533-8.533h52.684
		c4.714,0,8.533,3.821,8.533,8.533C487.057,107.968,483.238,111.789,478.524,111.789z"/>
	<path style="fill:#BEC7D2;" d="M485.37,60.988h-59.529c-4.714,0-8.533-3.821-8.533-8.533s3.819-8.533,8.533-8.533h59.529
		c4.714,0,8.533,3.821,8.533,8.533S490.082,60.988,485.37,60.988z"/>
</g>
<path style="fill:#FFBA12;" d="M255.999,148.467c-37.609,0-67.07-18.258-67.07-41.566s29.46-41.566,67.07-41.566
	s67.07,18.258,67.07,41.566S293.609,148.467,255.999,148.467z M255.999,82.401c-29.467,0-50.003,12.912-50.003,24.5
	s20.536,24.5,50.003,24.5s50.003-12.911,50.003-24.5S285.467,82.401,255.999,82.401z"/>
<path style="fill:#606271;" d="M255.999,246.742c-4.714,0-8.533-3.821-8.533-8.533v-10.495c0-4.713,3.82-8.533,8.533-8.533
	s8.533,3.821,8.533,8.533v10.495C264.533,242.921,260.713,246.742,255.999,246.742z"/>
<g>
</g>
<g>
</g>
<g>
</g>
<g>
</g>
<g>
</g>
<g>
</g>
<g>
</g>
<g>
</g>
<g>
</g>
<g>
</g>
<g>
</g>
<g>
</g>
<g>
</g>
<g>
</g>
<g>
</g>
</svg>
