<?xml version="1.0" encoding="iso-8859-1"?>
<svg version="1.1" id="Layer_1" xmlns="http://www.w3.org/2000/svg" xmlns:xlink="http://www.w3.org/1999/xlink" x="0px" y="0px"
	 viewBox="0 0 419.692 419.692" style="enable-background:new 0 0 419.692 419.692;">
<g>
	<path style="fill:#E4187A;" d="M363.081,153.23h-40c0,62.44-50.8,113.23-113.23,113.23c-62.44,0-113.24-50.79-113.24-113.23h-40
		c0,77.711,58.154,142.093,133.235,151.924v38.152h-36.568v40h36.568v36.385h40v-36.385h36.568v-40h-36.568v-38.151
		C304.923,295.328,363.081,230.944,363.081,153.23z"/>
	<path style="fill:#ED539D;" d="M209.851,40c62.43,0,113.23,50.79,113.23,113.23h40C363.081,68.74,294.341,0,209.851,0
		c-84.5,0-153.24,68.74-153.24,153.23h40C96.611,90.79,147.411,40,209.851,40z"/>
</g>
<g>
</g>
<g>
</g>
<g>
</g>
<g>
</g>
<g>
</g>
<g>
</g>
<g>
</g>
<g>
</g>
<g>
</g>
<g>
</g>
<g>
</g>
<g>
</g>
<g>
</g>
<g>
</g>
<g>
</g>
</svg>
