<?xml version="1.0" encoding="iso-8859-1"?>
<svg version="1.1" id="Layer_1" xmlns="http://www.w3.org/2000/svg" xmlns:xlink="http://www.w3.org/1999/xlink" x="0px" y="0px"
	 viewBox="0 0 512.001 512.001" style="enable-background:new 0 0 512.001 512.001;">
<path style="fill:#EADAA9;" d="M69.972,287.178c7.402,14.503,22.936,43.059,40.434,63.951c2.314,2.775,4.667,5.408,7.031,7.852
	c3.325,3.435,6.681,6.49,10.036,9.054c-1.533-2.053-2.795-4.507-3.706-7.361c-4.588-14.302,0.461-33.393,6.951-49.378
	c-0.221-0.11-3.445-1.762-7.962-5.258c-7.932-6.129-19.822-17.928-26.331-36.989c4.938-8.764,22.486-34.624,28.485-57.942
	c-0.02-0.01-0.04-0.01-0.05-0.02c2.314-9.304,2.635-17.437,0.911-24.148c-0.621-2.414-3.075-3.866-5.489-3.245
	c-2.414,0.621-3.866,3.075-3.245,5.479c1.342,5.228,1.031,11.839-0.901,19.631c-8.864-1.673-20.392-1.884-32.261,3.356
	c-4.227,13.722-11.839,41.396-15.855,56.078C66.295,274.577,66.977,281.328,69.972,287.178z"/>
<path style="fill:#D8C89A;" d="M68.018,268.237c0,0,12.84,35.595,45.5,68.246c3.125-12.71,6.91-23.983,9.237-30.446
	c4.517,3.496,7.743,5.148,7.962,5.258c-6.49,15.985-0.38,29.506,4.207,43.81c0.911,2.854-8.984,10.877-7.452,12.93
	c-5.759-4.397-11.519-10.256-17.067-16.907c-17.498-20.894-33.032-49.448-40.434-63.951
	C66.977,281.328,66.295,274.577,68.018,268.237z"/>
<path style="fill:#EADAA9;" d="M442.029,287.178c-7.402,14.503-22.936,43.059-40.434,63.951c-2.314,2.775-4.667,5.408-7.031,7.852
	c-3.325,3.435-6.681,6.49-10.036,9.054c1.533-2.053,2.795-4.507,3.706-7.361c4.588-14.302-0.461-33.393-6.951-49.378
	c0.221-0.11,3.445-1.762,7.962-5.258c7.932-6.129,19.822-17.928,26.331-36.989c-4.938-8.764-22.486-34.624-28.485-57.942
	c0.02-0.01,0.04-0.01,0.05-0.02c-2.314-9.304-2.635-17.437-0.911-24.148c0.621-2.414,3.075-3.866,5.489-3.245
	c2.414,0.621,3.866,3.075,3.246,5.479c-1.342,5.228-1.031,11.839,0.901,19.631c8.864-1.673,20.392-1.884,32.261,3.356
	c4.227,13.722,11.839,41.396,15.855,56.078C445.705,274.577,445.024,281.328,442.029,287.178z"/>
<path style="fill:#D8C89A;" d="M443.983,268.237c0,0-12.84,35.595-45.5,68.246c-3.125-12.71-6.91-23.983-9.237-30.446
	c-4.517,3.496-7.743,5.148-7.962,5.258c6.49,15.985,0.38,29.506-4.207,43.81c-0.911,2.854,8.984,10.877,7.452,12.93
	c5.759-4.397,11.519-10.256,17.067-16.907c17.498-20.894,33.032-49.448,40.434-63.951
	C445.024,281.328,445.705,274.577,443.983,268.237z"/>
<g>
	<path style="fill:#E2B44D;" d="M202.342,325.948c0.123,1.469,32.367,18.05,31.235,34.621c-0.807,11.738,7.632,40.358,2.99,46.715
		c-15.472,21.167-93.669,47.791-94.611,47.836c-30.786-8.644-35.73-46.183-36.817-45.723l50.485-29.251
		c3.319-1.906,30.585-19.598,39.083-31.336C199.551,342.115,202.185,334.121,202.342,325.948z"/>
	<path style="fill:#E2B44D;" d="M276.741,354.402c-1.121-16.57,32.793-26.975,32.917-28.455c0.146,8.162,2.78,16.167,7.624,22.86
		c8.498,11.738,35.776,29.43,39.083,31.336l50.496,29.251c-1.088-0.46,3.801,16.526-26.975,25.17c0,0-10.091,3.745-10.103,3.745
		c-0.695-0.034-55.748-8.369-71.275-29.626C293.855,402.326,277.548,366.141,276.741,354.402z"/>
</g>
<path style="fill:#53BEF4;" d="M349.055,300.027l-14.575-15.696c0.426-5.751-9.847-23.107-14.477-26.537l46.015-28.309
	c5.572,5.572,10.998,11.772,16.111,18.656c-4.496,5.695-10.808,13.252-18.005,21.66
	C358.326,276.573,355.501,292.695,349.055,300.027z"/>
<g>
	<path style="fill:#F75252;" d="M366.017,229.485l-26.066,31.336l-16.716,27.366c-7.007-5.18-21.627-14.596-26.392-7.298
		c1.469-15.662-14.227-38.309-17.299-50.373c-4.989-19.654,19.463-43.108,19.463-43.108v-0.011
		C315.802,193.373,342.261,205.717,366.017,229.485z"/>
	<path style="fill:#F75252;" d="M212.982,187.409c0,0,12.131,15.046,7.142,34.699c-3.072,12.063-4.821,48.803-3.363,64.466
		c-4.754-7.299-29.99-15.27-36.998-10.09l-7.725-15.662l-26.066-31.336C169.728,205.717,196.187,193.373,212.982,187.409z"/>
</g>
<path style="fill:#D8C89A;" d="M315.398,262.334c-8.409,12.927-0.774,26.661-5.303,56.864c-0.336,2.231-0.482,4.485-0.437,6.716
	v0.034c-0.101,1.267-1.121,13.499-0.729,27.345c0.067,2.388,0.179,4.832,0.348,7.276l-35.204,9.328l-4.025,1.065
	c-9.205,2.444-18.891,2.444-28.107,0l-4.025-1.065l-35.204-9.328c0.168-2.5,0.28-5,0.359-7.444
	c0.381-13.779-0.628-25.932-0.729-27.176v-0.045c0.045-2.231-0.101-4.473-0.437-6.704c-4.529-30.204,3.106-43.938-5.314-56.864
	c-1.457-15.662,0.561-30.248,3.633-42.312h111.553C314.849,232.086,316.867,246.672,315.398,262.334z"/>
<path style="fill:#F4C653;" d="M311.777,220.023c0,0-24.441,22.535-31.325,65.912c-2.175,13.723-8.039,26.605-17.008,37.222
	c-5.068,5.998-7.444,8.521-7.444,8.521s-2.377-2.523-7.456-8.521c-8.969-10.617-14.833-23.499-17.008-37.222
	c-6.884-43.377-31.313-65.912-31.313-65.912c4.989-19.654,12.759-32.614,12.759-32.614c3.251-1.155,6.133-2.074,8.566-2.792
	c5.426-1.592,8.622-2.186,8.622-2.186h51.662c0,0,3.195,0.594,8.61,2.186c2.433,0.706,5.325,1.626,8.566,2.78v0.011
	C299.007,187.409,306.788,200.369,311.777,220.023z"/>
<path style="fill:#CCBC93;" d="M290.441,184.617c-2.623,14.205-12.792,25.999-26.706,30.585c-2.511,0.83-5.124,1.233-7.736,1.233
	s-5.225-0.404-7.747-1.233c-7.568-2.489-14.025-7.119-18.757-13.095c-3.98-5.023-6.749-10.998-7.949-17.49
	c5.426-1.592,8.622-2.186,8.622-2.186h51.662C281.831,182.431,285.026,183.025,290.441,184.617z"/>
<path style="fill:#53BEF4;" d="M166.477,291.237c-6.447-7.332-12.815-14.665-18.611-21.436c-7.187-8.409-13.51-15.965-17.994-21.66
	c5.112-6.884,10.528-13.084,16.1-18.656l26.066,31.336c-4.63,3.431-7.175,8.992-6.738,14.743L166.477,291.237z"/>
<path style="fill:#F4C653;" d="M274.073,369.897c0.045,0.942,0.067,1.906,0.067,2.859c0,20.394-8.117,36.93-18.14,36.93
	c-10.023,0-18.14-16.537-18.14-36.93c0-0.953,0.011-1.917,0.056-2.859l4.025,1.065c9.216,2.444,18.902,2.444,28.107,0
	L274.073,369.897z"/>
<path style="fill:#60B6D8;" d="M363.226,413.217c-9.877,2.769-21.705,6.873-35.776,12.882c-17.254,7.366-36.448,8.33-54.196,2.993
	c-3.621-1.088-7.187-2.444-10.662-4.07c-4.025-1.883-6.592-3.184-6.592-3.184s-2.567,1.301-6.604,3.184
	c-3.476,1.626-7.041,2.982-10.662,4.07c-17.748,5.337-36.93,4.372-54.185-2.993c-14.07-6.009-25.898-10.113-35.776-12.882
	c0.942-0.045,30.966-1.648,46.438-22.815c3.666-5.023,5.718-13.398,6.805-22.479c0.303-2.41,0.527-4.888,0.695-7.355l35.204,9.328
	c-0.045,0.942-0.056,1.906-0.056,2.859c0,1.592,0.045,3.162,0.157,4.698c1.121,18.174,8.745,32.233,17.983,32.233
	c9.238,0,16.862-14.059,17.994-32.233c0.101-1.536,0.146-3.106,0.146-4.698c0-0.953-0.022-1.917-0.067-2.859l35.204-9.328
	c0.168,2.467,0.392,4.944,0.695,7.355c1.088,9.081,3.139,17.456,6.817,22.479C332.316,411.659,362.531,413.184,363.226,413.217z"/>
<g>
	<path style="fill:#F4C653;" d="M420.236,417.433c31.145,18.745,28.163,64.836-5.135,79.41
		c-16.806,7.343-24.497,10.483-44.554,13.487c-49.622,7.444-84.366-12.411-84.366-12.411h-0.011l-3.229-17.221l-9.687-51.606
		c17.748,5.337,36.942,4.372,54.196-2.993c14.07-6.009,25.898-10.113,35.776-12.882c0.011,0,0.011,0,0.011,0
		c30.775-8.644,42.536-4.283,43.624-3.823c0.022,0.011,0.034,0.022,0.045,0.022c0.022,0.011,0.034,0.011,0.034,0.011
		L420.236,417.433z"/>
	<path style="fill:#F4C653;" d="M148.774,413.217c9.877,2.769,21.705,6.873,35.776,12.882c17.254,7.366,36.437,8.33,54.185,2.993
		l-9.687,51.606l-3.229,17.221h-0.011c0,0-34.733,19.855-84.366,12.411c-20.057-3.005-27.748-6.144-44.554-13.487
		c-33.298-14.575-36.269-60.665-5.135-79.41l13.308-8.005l0.034-0.011c0.011,0,0.022-0.011,0.045-0.022
		C106.227,408.935,117.988,404.573,148.774,413.217z"/>
</g>
<g>
	<path style="fill:#EADAA9;" d="M389.573,359.795c-1.02,3.195-2.433,5.942-4.148,8.24l-0.011,0.011
		c-8.05,10.797-22.995,12.063-38.119,5.572c-10.718-4.585-21.515-13.072-30.013-24.811c-4.843-6.693-7.478-14.698-7.624-22.86
		v-0.034c-0.045-2.231,0.101-4.485,0.437-6.716c0,0,0.011-0.101,0.045-0.292c1.323-8.958,1.581-16.47,1.502-22.927
		c-0.157-15.18-2.119-24.609,3.756-33.645c4.765-7.299,14.463-8.98,21.47-3.801l3.083,2.287c4.63,3.431,7.175,8.992,6.749,14.743
		l-1.177,15.662c6.447-7.332,12.803-14.653,18.6-21.425c0,0,9.788,15.315,17.669,34.722
		C389.057,322.416,394.707,343.785,389.573,359.795z"/>
	<path style="fill:#EADAA9;" d="M202.342,325.903c0,0.022,0,0.034,0,0.045c-0.157,8.173-2.792,16.167-7.635,22.86
		c-8.498,11.738-19.295,20.225-30.013,24.811c-15.135,6.491-30.103,5.225-38.141-5.606c-1.715-2.298-3.117-5.034-4.137-8.218
		c-5.135-16.021,0.527-37.39,7.781-55.283c7.893-19.396,17.669-34.71,17.669-34.71c5.796,6.772,12.164,14.104,18.611,21.436
		l-1.177-15.674c-0.437-5.751,2.108-11.312,6.738-14.743l3.083-2.287c7.007-5.18,16.716-3.498,21.47,3.801
		c8.42,12.927,0.785,26.661,5.314,56.864C202.241,321.43,202.387,323.672,202.342,325.903z"/>
</g>
<path style="fill:#E2B44D;" d="M278.43,446.066c24.847-2.733,49.725-5.6,74.532-8.755l9.301-1.205l4.875-0.433l2.434-0.202
	l2.449,0.022c6.513-0.121,12.992,0.9,19.164,2.648c6.181,1.755,12.071,4.338,17.507,7.593c5.42,3.269,10.493,7.106,14.796,11.667
	c-4.719-4.118-10.08-7.396-15.656-10.061c-5.589-2.649-11.484-4.565-17.479-5.653c-5.99-1.081-12.089-1.44-18.068-0.737l-2.24,0.193
	l-2.216,0.409l-4.423,0.826l-9.169,2.107c-24.467,5.561-48.965,10.828-73.532,15.976l-7.142,1.497l-2.384-15.095L278.43,446.066z"/>
<path style="fill:#F4C653;" d="M309.972,367.923l-35.977,9.53l-2.085,0.549c-5.202,1.39-10.55,2.074-15.909,2.074
	c-5.359,0-10.718-0.684-15.931-2.074l-2.052-0.549l-36-9.53c0.303-2.41,0.527-4.888,0.695-7.355c0.168-2.5,0.28-5,0.359-7.444
	l40.731,10.797c7.983,2.108,16.413,2.108,24.374,0l39.229-10.393c0.505-0.135,1.009-0.213,1.525-0.235
	c0.067,2.388,0.179,4.832,0.348,7.276C309.445,363.035,309.669,365.513,309.972,367.923z"/>
<rect x="248.714" y="208.465" style="fill:#CCBC93;" width="14.575" height="44.629"/>
<path style="fill:#E2B44D;" d="M211.097,120.821c0,0,0,0-0.012-0.012c-0.769-0.906-31.774-37.767-15.049-68.697
	c7.345-13.585,19.405-20.322,30.558-23.622l30.155,39.461l29.032-39.461c11.154,3.301,23.213,10.038,30.558,23.622
	c16.724,30.93-14.28,67.791-15.049,68.697c-0.012,0.012-0.012,0.012-0.012,0.012"/>
<g>
	<path style="fill:#F4C653;" d="M298.75,126.987c3.089-7.506,4.814-15.943,4.814-24.851c0-31.29-21.303-56.661-47.568-56.661
		s-47.555,25.371-47.555,56.661c0,8.909,1.724,17.332,4.802,24.825"/>
	<path style="fill:#F4C653;" d="M241.655,48.092c-9.193-3.226-15.421-9.479-15.421-16.662c0-1.005,0.124-1.986,0.36-2.941
		C228.789,19.383,241.121,0,256.009,0c16.439,0,29.776,20.922,29.776,31.43c0,7.183-6.228,13.437-15.434,16.662"/>
</g>
<path style="fill:#EADAA9;" d="M299.425,136.888c0,31.291-19.442,56.658-43.424,56.658s-43.424-25.367-43.424-56.658
	s19.442-36.807,43.424-36.807S299.425,105.597,299.425,136.888z"/>
<path style="fill:#D8C89A;" d="M232.01,136.888c0-26.931,14.406-34.763,33.707-36.425c-3.126-0.269-6.375-0.382-9.717-0.382
	c-23.982,0-43.424,5.516-43.424,36.807s19.442,56.658,43.424,56.658c3.342,0,6.591-0.509,9.717-1.442
	C246.415,186.344,232.01,163.819,232.01,136.888z"/>
<path style="fill:#F4C653;" d="M256.003,123.138c-4.025,0-7.287-3.263-7.287-7.287V91.122c0-4.025,3.263-7.287,7.287-7.287
	c4.025,0,7.287,3.263,7.287,7.287v24.73C263.291,119.876,260.028,123.138,256.003,123.138z"/>
<g>
	<path style="fill:#D8C89A;" d="M360.234,323.109l-16.863-3.193l25.865,16.548l0.112-0.974
		C370.023,329.613,366.047,324.21,360.234,323.109z"/>
	<polygon style="fill:#D8C89A;" points="351.523,297.558 369.716,279.366 364.123,269.801 345.523,291.226 343.37,319.916
		351.523,321.46 	"/>
	<path style="fill:#D8C89A;" d="M151.768,323.109l16.863-3.193l-25.865,16.548l-0.112-0.974
		C141.977,329.613,145.953,324.21,151.768,323.109z"/>
	<polygon style="fill:#D8C89A;" points="160.477,297.558 142.285,279.366 147.877,269.801 166.477,291.226 168.63,319.916
		160.477,321.46 	"/>
</g>
<polygon style="fill:#53BEF4;" points="286.17,497.92 288.659,511.16 256,511.16 223.33,511.16 225.819,497.92 229.048,480.699
	256,480.699 282.919,480.699 282.941,480.699 "/>
<path style="fill:#4CB0D8;" d="M273.254,429.093l9.687,51.606h-0.022H256v-58.86c0,0,2.567,1.301,6.592,3.184
	C266.068,426.649,269.633,428.005,273.254,429.093z"/>
<path style="fill:#E2B44D;" d="M233.57,446.066c-24.847-2.733-49.725-5.6-74.532-8.755l-9.301-1.205l-4.875-0.433l-2.434-0.202
	l-2.449,0.022c-6.513-0.121-12.992,0.9-19.164,2.648c-6.181,1.755-12.071,4.338-17.507,7.593
	c-5.42,3.269-10.493,7.106-14.796,11.667c4.719-4.118,10.08-7.396,15.656-10.061c5.589-2.649,11.484-4.565,17.479-5.653
	c5.99-1.081,12.089-1.44,18.068-0.737l2.24,0.193l2.217,0.409l4.423,0.826l9.169,2.107c24.467,5.561,48.965,10.828,73.532,15.976
	l7.142,1.497l2.384-15.095L233.57,446.066z"/>
<path style="fill:#4CB0D8;" d="M249.397,425.023c4.036-1.883,6.604-3.184,6.604-3.184v58.86h-26.952l9.687-51.606
	C242.356,428.005,245.921,426.649,249.397,425.023z"/>
<g>
	<path style="fill:#D8C89A;" d="M334.48,284.331c-19.441,8.935-23.858,31.762-24.34,34.576c1.323-8.958,1.581-16.47,1.502-22.927
		C323.145,285.867,334.48,284.331,334.48,284.331z"/>
	<path style="fill:#D8C89A;" d="M178.01,284.331c19.441,8.935,23.858,31.762,24.34,34.576c-1.323-8.958-1.581-16.47-1.502-22.927
		C189.345,285.867,178.01,284.331,178.01,284.331z"/>
</g>
<g>
</g>
<g>
</g>
<g>
</g>
<g>
</g>
<g>
</g>
<g>
</g>
<g>
</g>
<g>
</g>
<g>
</g>
<g>
</g>
<g>
</g>
<g>
</g>
<g>
</g>
<g>
</g>
<g>
</g>
</svg>
