<?xml version="1.0" encoding="iso-8859-1"?>
<svg version="1.1" id="Capa_1" xmlns="http://www.w3.org/2000/svg" xmlns:xlink="http://www.w3.org/1999/xlink" x="0px" y="0px"
	 viewBox="0 0 512 512" style="enable-background:new 0 0 512 512;">
<path style="fill:#60312C;" d="M395.415,497.166l-25.242-8.414V279.086H354.95v215.152c0,3.276,2.096,6.185,5.204,7.221
	l30.446,10.149c3.988,1.329,8.3-0.826,9.628-4.815C401.554,502.805,399.403,498.494,395.415,497.166z"/>
<path style="fill:#85453D;" d="M268.815,497.166l25.242-8.414V279.086h15.223v215.152c0,3.276-2.096,6.185-5.204,7.221
	l-30.446,10.149c-3.988,1.329-8.3-0.826-9.628-4.815C262.676,502.805,264.827,498.494,268.815,497.166z"/>
<path style="fill:#2DADE3;" d="M243.185,497.166l-25.242-8.414V279.086h-15.223v215.152c0,3.276,2.096,6.185,5.204,7.221
	l30.446,10.149c3.988,1.329,8.3-0.826,9.628-4.815C249.324,502.805,247.173,498.494,243.185,497.166z"/>
<path style="fill:#49C9FF;" d="M116.585,497.166l25.242-8.414V279.086h15.223v215.152c0,3.276-2.096,6.185-5.204,7.221
	l-30.446,10.149c-3.988,1.329-8.3-0.826-9.628-4.815C110.446,502.805,112.597,498.494,116.585,497.166z"/>
<path style="fill:#FFA754;" d="M469.122,88.801c-4.205,0-7.612,3.407-7.612,7.611c0,46.166-37.56,83.726-83.726,83.726h-45.669
	v15.223h45.669c54.561,0,98.949-44.388,98.949-98.949C476.733,92.208,473.326,88.801,469.122,88.801z"/>
<path style="fill:#C27749;" d="M134.216,180.139c-46.167,0-83.726-37.56-83.726-83.726c0-4.205-3.408-7.611-7.611-7.611
	s-7.611,3.407-7.611,7.611c0,54.561,44.388,98.949,98.949,98.949h45.669v-15.223H134.216z"/>
<rect x="179.885" y="180.139" style="fill:#FFCB63;" width="152.23" height="15.223"/>
<circle style="fill:#60312C;" cx="179.885" cy="22.834" r="22.834"/>
<path style="fill:#A45E43;" d="M214.649,61.739c0.01-0.01-34.764-0.005-34.764-0.005v75.273c25.219,0,45.669-20.45,45.669-45.669
	C225.554,80.053,221.449,69.706,214.649,61.739z"/>
<path style="fill:#C27749;" d="M193.981,74.095l-48.861-12.356c-6.8,7.967-10.905,18.313-10.905,29.599
	c0,25.219,20.45,45.669,45.669,45.669c8.403,0,15.223-20.45,15.223-45.669C195.108,85.239,194.712,79.413,193.981,74.095z"/>
<path style="fill:#40211D;" d="M179.885,45.669l14.096,28.426c7.561-2.263,14.69-6.389,20.668-12.356
	C206.277,51.905,193.809,45.669,179.885,45.669z"/>
<path style="fill:#60312C;" d="M179.885,45.669c-13.924,0-26.392,6.236-34.764,16.07c13.234,13.234,32.115,17.359,48.861,12.356
	C191.718,57.421,186.258,45.669,179.885,45.669z"/>
<path style="fill:#2DADE3;" d="M205.257,167.453h-30.446v121.784h50.743V187.75C225.554,176.54,216.467,167.453,205.257,167.453z"/>
<path style="fill:#49C9FF;" d="M174.811,167.453h-20.297c-11.21,0-20.297,9.087-20.297,20.297v101.487h60.892V187.75
	C195.108,176.54,186.021,167.453,174.811,167.453z"/>
<path style="fill:#FF4128;" d="M225.554,258.791h-30.446l15.223,91.338h30.446v-51.083
	C240.777,283.608,235.022,269.523,225.554,258.791z"/>
<path style="fill:#FF6337;" d="M195.108,258.791h-60.892c-9.468,10.732-15.223,24.818-15.223,40.255v51.083h91.338v-51.083
	C210.331,283.608,204.576,269.523,195.108,258.791z"/>
<path style="fill:#60312C;" d="M332.115,258.791v76.115c25.222,0,45.669-20.447,45.669-45.669L332.115,258.791z"/>
<path style="fill:#85453D;" d="M347.338,289.237l-15.223-30.446l-45.669,30.446c0,25.222,20.447,45.669,45.669,45.669
	C340.522,334.906,347.338,314.459,347.338,289.237z"/>
<path style="fill:#FFA754;" d="M357.487,167.453h-30.446l20.297,121.784h30.446V187.75
	C377.784,176.54,368.697,167.453,357.487,167.453z"/>
<path style="fill:#FFCB63;" d="M327.041,167.453h-20.297c-11.21,0-20.297,9.087-20.297,20.297v101.487h60.892V187.75
	C347.338,176.54,338.251,167.453,327.041,167.453z"/>
<path style="fill:#FF8D7E;" d="M332.115,45.669v91.338c25.222,0,45.669-20.447,45.669-45.669S357.337,45.669,332.115,45.669z"/>
<path style="fill:#FFB4A9;" d="M347.338,91.338c0-25.222-6.816-45.669-15.223-45.669c-25.222,0-45.669,20.447-45.669,45.669
	s20.447,45.669,45.669,45.669C340.522,137.007,347.338,116.56,347.338,91.338z"/>
<g>
</g>
<g>
</g>
<g>
</g>
<g>
</g>
<g>
</g>
<g>
</g>
<g>
</g>
<g>
</g>
<g>
</g>
<g>
</g>
<g>
</g>
<g>
</g>
<g>
</g>
<g>
</g>
<g>
</g>
</svg>
