<?xml version="1.0" encoding="iso-8859-1"?>
<svg version="1.1" id="Capa_1" xmlns="http://www.w3.org/2000/svg" xmlns:xlink="http://www.w3.org/1999/xlink" x="0px" y="0px"
	 viewBox="0 0 512 512" style="enable-background:new 0 0 512 512;">
<g>
	<path style="fill:#CFA08F;" d="M224.916,202.569l-28.259-48.945l21.132-78.867c3.329-12.424-4.044-25.195-16.469-28.524
		c-12.423-3.329-25.194,4.044-28.524,16.468l-9.076,33.874l-10.09-17.478c-6.431-11.139-20.674-14.955-31.814-8.525
		c-11.139,6.431-14.956,20.675-8.525,31.814l71.287,123.473c4.314,7.472,12.142,11.649,20.191,11.649
		c3.951,0,7.956-1.007,11.623-3.124C227.531,227.952,231.347,213.708,224.916,202.569z"/>
	<path style="fill:#CFA08F;" d="M287.084,202.569l28.259-48.945l-21.132-78.867c-3.329-12.424,4.044-25.195,16.469-28.524
		c12.423-3.329,25.194,4.044,28.524,16.468l9.076,33.874l10.091-17.479c6.431-11.139,20.674-14.955,31.814-8.525
		c11.139,6.431,14.956,20.675,8.525,31.814l-71.287,123.473c-4.314,7.472-12.142,11.649-20.191,11.649
		c-3.951,0-7.956-1.007-11.623-3.124C284.469,227.952,280.653,213.708,287.084,202.569z"/>
</g>
<g style="opacity:0.1;">
	<path d="M329.823,130.535c-3.321,0-6.357-2.223-7.246-5.585l-5.484-20.741c-1.059-4.005,1.329-8.109,5.333-9.169
		c4.007-1.058,8.109,1.33,9.168,5.334l5.484,20.741c1.059,4.005-1.329,8.109-5.333,9.168
		C331.103,130.453,330.457,130.535,329.823,130.535z"/>
	<path d="M371.304,116.52c-1.127,0-2.271-0.255-3.348-0.793c-3.705-1.853-5.207-6.358-3.355-10.063l5.605-11.212
		c1.852-3.705,6.358-5.206,10.062-3.354c3.705,1.853,5.207,6.357,3.355,10.063l-5.605,11.212
		C376.705,115,374.055,116.52,371.304,116.52z"/>
</g>
<g style="opacity:0.1;">
	<path d="M182.177,130.535c-0.635,0-1.28-0.081-1.922-0.251c-4.004-1.059-6.392-5.164-5.333-9.168l5.484-20.741
		c1.059-4.004,5.163-6.394,9.168-5.334c4.004,1.059,6.392,5.164,5.333,9.169l-5.484,20.741
		C188.534,128.312,185.498,130.535,182.177,130.535z"/>
	<path d="M140.696,116.52c-2.751,0-5.4-1.519-6.714-4.147l-5.605-11.212c-1.852-3.705-0.351-8.21,3.354-10.063
		c3.706-1.852,8.209-0.351,10.063,3.354l5.605,11.212c1.852,3.705,0.351,8.21-3.354,10.063
		C142.967,116.265,141.823,116.52,140.696,116.52z"/>
</g>
<path style="fill:#AA715F;" d="M109.527,181.186c18.963,13.278,31.634,32.463,40.004,50.635
	c12.39,26.901-8.872,57.267-38.389,54.825c-19.939-1.65-42.301-6.995-61.264-20.273c-27.306-19.12-41.565-50.486-48.723-73.443
	c-4.885-15.665,6.303-31.642,22.694-32.41C47.869,159.396,82.221,162.066,109.527,181.186z"/>
<path style="fill:#F7C2AD;" d="M96.219,204.51c9.428,6.601,16.369,15.396,21.396,23.976c8.488,14.484-4.011,32.334-20.524,29.311
	c-9.782-1.79-20.42-5.305-29.848-11.906c-17.291-12.107-26.218-31.595-30.317-43.594c-1.882-5.507,2.14-11.25,7.958-11.366
	C57.562,190.68,78.928,192.403,96.219,204.51z"/>
<path style="fill:#AA715F;" d="M402.473,181.186c-18.963,13.278-31.634,32.463-40.004,50.635
	c-12.39,26.901,8.872,57.267,38.389,54.825c19.939-1.65,42.301-6.995,61.264-20.273c27.306-19.12,41.565-50.486,48.723-73.443
	c4.885-15.665-6.303-31.642-22.694-32.41C464.131,159.396,429.779,162.066,402.473,181.186z"/>
<path style="fill:#F7C2AD;" d="M415.781,204.51c-9.428,6.601-16.369,15.396-21.396,23.976c-8.488,14.484,4.011,32.334,20.524,29.311
	c9.781-1.79,20.42-5.305,29.848-11.906c17.291-12.107,26.218-31.595,30.318-43.594c1.882-5.507-2.14-11.25-7.958-11.366
	C454.438,190.68,433.072,192.403,415.781,204.51z"/>
<path style="fill:#AA715F;" d="M437.411,308.024c0-91.748-81.22-166.124-181.411-166.124S74.589,216.276,74.589,308.024
	S144.548,466.566,256,466.566S437.411,399.772,437.411,308.024z"/>
<path style="fill:#CFA08F;" d="M418.777,234.63c-72.282-57.764-140.286,2.514-140.286,69.603h-44.982
	c0-67.089-68.004-127.367-140.286-69.603c-11.924,22.134-18.634,47.045-18.634,73.394c0,91.748,69.959,158.542,181.411,158.542
	s181.411-66.794,181.411-158.542C437.411,281.675,430.701,256.764,418.777,234.63z"/>
<g>
	<path style="fill:#485458;" d="M256,379.33c-10.787,0-21.045-4.672-28.145-12.819c-2.721-3.122-2.396-7.86,0.727-10.581
		s7.86-2.397,10.582,0.727c4.25,4.877,10.387,7.674,16.836,7.674c6.45,0,12.586-2.797,16.836-7.674
		c2.721-3.123,7.46-3.448,10.582-0.727c3.123,2.721,3.448,7.459,0.727,10.581C277.045,374.658,266.787,379.33,256,379.33z"/>
	<path style="fill:#485458;" d="M158.814,308.345c-4.142,0-7.5-3.358-7.5-7.5c0-4.097-3.333-7.43-7.43-7.43s-7.43,3.333-7.43,7.43
		c0,4.142-3.358,7.5-7.5,7.5c-4.142,0-7.5-3.358-7.5-7.5c0-12.368,10.062-22.43,22.43-22.43s22.43,10.062,22.43,22.43
		C166.314,304.987,162.956,308.345,158.814,308.345z"/>
	<path style="fill:#485458;" d="M383.045,308.345c-4.142,0-7.5-3.358-7.5-7.5c0-4.097-3.333-7.43-7.43-7.43
		c-4.097,0-7.43,3.333-7.43,7.43c0,4.142-3.358,7.5-7.5,7.5s-7.5-3.358-7.5-7.5c0-12.368,10.062-22.43,22.43-22.43
		c12.368,0,22.43,10.062,22.43,22.43C390.545,304.987,387.188,308.345,383.045,308.345z"/>
</g>
<path style="opacity:0.1;enable-background:new    ;" d="M249.558,347.776c15.18,0,37.964-9.554,43.081-31.298
	c4.941-20.999-19.288-29.31-43.081-29.31s-48.021,8.311-43.081,29.31C211.594,338.222,234.377,347.776,249.558,347.776z"/>
<path style="fill:#E86478;" d="M256,341.334c15.18,0,37.964-9.554,43.08-31.298c4.941-20.999-19.288-29.311-43.08-29.311
	c-23.793,0-48.022,8.311-43.081,29.311C218.036,331.78,240.82,341.334,256,341.334z"/>
<path style="opacity:0.1;enable-background:new    ;" d="M263.205,333.827c-15.18,0-37.964-9.554-43.08-31.298
	c-1.269-5.395-0.603-9.946,1.476-13.74c-7.096,4.714-10.938,11.652-8.681,21.246c5.116,21.744,27.9,31.298,43.081,31.298
	c11.688,0,27.876-5.672,37.044-18.202C283.953,330.446,272.234,333.827,263.205,333.827z"/>
<path style="opacity:0.1;enable-background:new    ;" d="M273.337,447.063c-111.452,0-181.411-66.794-181.411-158.542
	c0-35.235,11.989-67.901,32.422-94.783C93.511,223.517,74.59,263.746,74.59,308.024c0,91.748,69.959,158.542,181.411,158.542
	c68.93,0,121.978-25.557,152.431-66.757C376.935,429.416,330.618,447.063,273.337,447.063z"/>
<g>
</g>
<g>
</g>
<g>
</g>
<g>
</g>
<g>
</g>
<g>
</g>
<g>
</g>
<g>
</g>
<g>
</g>
<g>
</g>
<g>
</g>
<g>
</g>
<g>
</g>
<g>
</g>
<g>
</g>
</svg>
