<?xml version="1.0" encoding="iso-8859-1"?>
<svg version="1.1" id="Capa_1" xmlns="http://www.w3.org/2000/svg" xmlns:xlink="http://www.w3.org/1999/xlink" x="0px" y="0px"
	 viewBox="0 0 512 512" style="enable-background:new 0 0 512 512;">
<circle style="fill:#EEEDED;" cx="399.61" cy="57.832" r="48.46"/>
<path style="opacity:0.1;enable-background:new    ;" d="M414.745,83.719c-26.763,0-48.459-21.696-48.459-48.459
	c0-5.089,0.789-9.994,2.244-14.602c-10.621,8.889-17.381,22.24-17.381,37.174c0,26.763,21.696,48.459,48.459,48.459
	c21.674,0,40.02-14.23,46.215-33.856C437.409,79.476,426.574,83.719,414.745,83.719z"/>
<circle style="fill:#F7C2AD;" cx="74.5" cy="253.86" r="46.861"/>
<path style="opacity:0.2;fill:#E86478;enable-background:new    ;" d="M74.495,284.117c-16.685,0-30.259-13.574-30.259-30.259
	s13.574-30.259,30.259-30.259s30.26,13.574,30.26,30.259S91.18,284.117,74.495,284.117z M74.495,238.599
	c-8.414,0-15.259,6.845-15.259,15.259s6.845,15.259,15.259,15.259s15.26-6.845,15.26-15.259S82.909,238.599,74.495,238.599z"/>
<path style="opacity:0.1;enable-background:new    ;" d="M74.495,206.997c-3.109,0-6.146,0.31-9.086,0.888
	c-3.544,14.747-5.435,30.138-5.435,45.973s1.891,31.225,5.435,45.973c2.94,0.578,5.977,0.888,9.086,0.888
	c25.881,0,46.861-20.98,46.861-46.861S100.376,206.997,74.495,206.997z"/>
<circle style="fill:#F7C2AD;" cx="437.5" cy="253.86" r="46.861"/>
<path style="opacity:0.2;fill:#E86478;enable-background:new    ;" d="M437.505,284.117c-16.685,0-30.26-13.574-30.26-30.259
	s13.575-30.259,30.26-30.259s30.259,13.574,30.259,30.259S454.19,284.117,437.505,284.117z M437.505,238.599
	c-8.414,0-15.26,6.845-15.26,15.259s6.846,15.259,15.26,15.259s15.259-6.845,15.259-15.259S445.919,238.599,437.505,238.599z"/>
<path style="opacity:0.1;enable-background:new    ;" d="M437.505,206.997c3.109,0,6.146,0.31,9.086,0.888
	c3.544,14.747,5.435,30.138,5.435,45.973s-1.891,31.225-5.435,45.973c-2.94,0.578-5.977,0.888-9.086,0.888
	c-25.881,0-46.861-20.98-46.861-46.861S411.624,206.997,437.505,206.997z"/>
<circle style="fill:#F7C2AD;" cx="256" cy="253.86" r="179.38"/>
<g>
	<path style="fill:#EEEDED;" d="M256,71.57c-100.675,0-182.288,81.613-182.288,182.288S155.325,436.147,256,436.147
		s182.289-81.613,182.289-182.289C438.289,153.183,356.675,71.57,256,71.57z M256,405.571c-83.789,0-151.713-67.924-151.713-151.713
		S172.211,102.145,256,102.145s151.713,67.924,151.713,151.713S339.789,405.571,256,405.571z"/>
	<path style="fill:#EEEDED;" d="M367.206,263.551c-7.359-0.244-14.532,0.376-21.427,1.765c-10.566,2.129-21.613-0.557-29.791-7.577
		c-16.12-13.837-37.078-22.199-59.989-22.199s-43.868,8.362-59.989,22.199c-8.178,7.02-19.225,9.706-29.791,7.577
		c-6.895-1.389-14.068-2.009-21.427-1.765c-47.51,1.576-86.416,39.691-88.893,87.163c-2.772,53.138,39.493,97.092,92.024,97.092
		c1.197,0,2.388-0.023,3.574-0.069c9.228-0.355,17.793,4.717,21.895,12.991C188.458,491.112,219.788,512,256,512
		s67.542-20.888,82.606-51.272c4.102-8.273,12.667-13.345,21.895-12.991c1.186,0.046,2.377,0.069,3.574,0.069
		c52.531,0,94.797-43.955,92.024-97.092C453.622,303.242,414.716,265.126,367.206,263.551z"/>
</g>
<path style="opacity:0.1;enable-background:new    ;" d="M376.897,428.351c-1.197,0-2.388-0.023-3.574-0.068
	c-9.228-0.355-17.793,4.717-21.895,12.991c-2.151,4.338-4.644,8.475-7.425,12.392c4.444-3.961,10.319-6.166,16.497-5.929
	c1.186,0.046,2.377,0.069,3.574,0.069c36.35,0,67.78-21.05,82.778-51.622C429.952,415.875,404.882,428.351,376.897,428.351z
	 M268.822,492.546c-36.212,0-67.542-20.888-82.606-51.272c-4.102-8.273-12.667-13.345-21.895-12.991
	c-1.186,0.045-2.377,0.068-3.574,0.068c-52.531,0-94.797-43.954-92.024-97.092c0.661-12.665,3.936-24.652,9.254-35.469
	c-12.833,14.952-20.986,34.029-22.076,54.923c-2.772,53.137,39.493,97.092,92.024,97.092c1.197,0,2.388-0.023,3.574-0.069
	c9.227-0.355,17.793,4.717,21.895,12.991C188.458,491.112,219.788,512,256,512s67.542-20.888,82.606-51.272
	c0.077-0.155,0.166-0.3,0.245-0.453C321.951,480.023,296.853,492.546,268.822,492.546z"/>
<path style="fill:#E86478;" d="M427.72,156.448C427.72,70.044,350.838,0,256,0S84.28,70.044,84.28,156.448H427.72z"/>
<path style="opacity:0.1;enable-background:new    ;" d="M426.867,140.796H116.825c0-54.052,30.088-101.701,75.837-129.806
	C129.172,33.958,84.28,90.425,84.28,156.448h343.44C427.72,151.165,427.428,145.945,426.867,140.796z"/>
<path style="opacity:0.1;enable-background:new    ;" d="M393.859,134.59H118.141c-15.065,17.398-26.883,37.681-34.534,59.903
	c1.602,0.263,3.244,0.406,4.921,0.406h334.946c1.676,0,3.319-0.143,4.921-0.406C420.743,172.271,408.924,151.988,393.859,134.59z"/>
<path style="fill:#EEEDED;" d="M423.473,179.818H88.527c-16.654,0-30.155-13.501-30.155-30.155l0,0
	c0-16.654,13.501-30.155,30.155-30.155h334.946c16.654,0,30.155,13.501,30.155,30.155l0,0
	C453.628,166.317,440.127,179.818,423.473,179.818z"/>
<path style="opacity:0.1;enable-background:new    ;" d="M437.436,165.806H102.489c-16.654,0-30.155-13.501-30.155-30.155
	c0-4.696,1.074-9.14,2.989-13.103c-10.036,4.896-16.951,15.196-16.951,27.114l0,0c0,16.654,13.501,30.155,30.155,30.155h334.946
	c11.958,0,22.29-6.961,27.166-17.052C446.651,164.711,442.172,165.806,437.436,165.806z"/>
<g>
	<path style="fill:#485458;" d="M177.248,227.982c-4.142,0-7.5-3.358-7.5-7.5V207.41c0-4.142,3.358-7.5,7.5-7.5s7.5,3.358,7.5,7.5
		v13.073C184.748,224.624,181.39,227.982,177.248,227.982z"/>
	<path style="fill:#485458;" d="M334.752,227.982c-4.142,0-7.5-3.358-7.5-7.5V207.41c0-4.142,3.358-7.5,7.5-7.5s7.5,3.358,7.5,7.5
		v13.073C342.252,224.624,338.895,227.982,334.752,227.982z"/>
	<path style="fill:#485458;" d="M256,294.747c-10.125,0-19.753-4.385-26.417-12.032c-2.721-3.123-2.396-7.86,0.727-10.582
		c3.122-2.721,7.86-2.397,10.581,0.727c3.814,4.376,9.321,6.886,15.108,6.886s11.294-2.51,15.108-6.886
		c2.721-3.123,7.459-3.448,10.582-0.727s3.448,7.459,0.727,10.582C275.753,290.361,266.125,294.747,256,294.747z"/>
</g>
<g>
</g>
<g>
</g>
<g>
</g>
<g>
</g>
<g>
</g>
<g>
</g>
<g>
</g>
<g>
</g>
<g>
</g>
<g>
</g>
<g>
</g>
<g>
</g>
<g>
</g>
<g>
</g>
<g>
</g>
</svg>
