<?xml version="1.0" encoding="iso-8859-1"?>
<svg version="1.1" id="Layer_1" xmlns="http://www.w3.org/2000/svg" xmlns:xlink="http://www.w3.org/1999/xlink" x="0px" y="0px"
	 viewBox="0 0 511.999 511.999" style="enable-background:new 0 0 511.999 511.999;">
<g>
	<path style="fill:#F7B239;" d="M436.62,99.281v55.166c0,93.512-71.433,170.649-162.597,179.722v-59.623
		c57.43-8.717,101.582-58.423,101.582-118.248V99.281h-36.047v57.018c0,39.885-28.099,73.313-65.535,81.579V99.281h-36.047v138.596
		c-37.436-8.266-65.535-41.693-65.535-81.579V99.281h-36.047v57.018c0,59.826,44.152,109.532,101.582,118.249v59.623
		C146.813,325.098,75.38,247.96,75.38,154.449V99.281H39.333v55.166c0,113.401,87.575,206.721,198.644,215.911v92.248h36.047
		v-92.248c111.07-9.191,198.644-102.511,198.644-215.911V99.281H436.62z"/>
	<path style="fill:#F7B239;" d="M287.858,462.607H224.14c-22.894,0-41.452,18.558-41.452,41.452v7.94H329.31v-7.94
		C329.31,481.167,310.751,462.607,287.858,462.607z"/>
</g>
<path style="fill:#E09B2D;" d="M269.197,462.607H224.14c-22.894,0-41.452,18.558-41.452,41.452v7.94h45.057v-7.94
	C227.745,481.167,246.303,462.607,269.197,462.607z"/>
<g>
	<path style="fill:#F95428;" d="M76.416,19.753L56.663,0L36.909,19.753C26,30.662,26,48.35,36.909,59.259l0,0
		c10.909,10.909,28.597,10.909,39.506,0l0,0C87.325,48.35,87.325,30.663,76.416,19.753z"/>
	<path style="fill:#F95428;" d="M176.085,19.753L156.331,0l-19.753,19.753c-10.909,10.909-10.909,28.597,0,39.506l0,0
		c10.909,10.909,28.597,10.909,39.506,0l0,0C186.994,48.35,186.994,30.663,176.085,19.753z"/>
	<path style="fill:#F95428;" d="M375.42,19.753L355.668,0l-19.753,19.753c-10.909,10.909-10.909,28.597,0,39.506l0,0
		c10.909,10.909,28.597,10.909,39.506,0l0,0C386.331,48.35,386.331,30.663,375.42,19.753z"/>
	<path style="fill:#F95428;" d="M275.753,19.753L256,0l-19.753,19.753c-10.909,10.909-10.909,28.597,0,39.506l0,0
		c10.909,10.909,28.597,10.909,39.506,0l0,0C286.662,48.35,286.662,30.663,275.753,19.753z"/>
	<path style="fill:#F95428;" d="M475.09,19.753L455.336,0l-19.753,19.753c-10.909,10.909-10.909,28.597,0,39.506l0,0
		c10.909,10.909,28.597,10.909,39.506,0l0,0C485.999,48.35,485.999,30.663,475.09,19.753z"/>
</g>
<g>
	<rect x="436.626" y="99.274" style="fill:#CCCCCC;" width="36.047" height="35.687"/>
	<rect x="339.563" y="99.274" style="fill:#CCCCCC;" width="36.047" height="35.687"/>
	<rect x="237.982" y="99.274" style="fill:#CCCCCC;" width="36.047" height="35.687"/>
	<rect x="136.402" y="99.274" style="fill:#CCCCCC;" width="36.047" height="35.687"/>
	<rect x="39.336" y="99.274" style="fill:#CCCCCC;" width="36.047" height="35.687"/>
</g>
<g>
</g>
<g>
</g>
<g>
</g>
<g>
</g>
<g>
</g>
<g>
</g>
<g>
</g>
<g>
</g>
<g>
</g>
<g>
</g>
<g>
</g>
<g>
</g>
<g>
</g>
<g>
</g>
<g>
</g>
</svg>
