<?xml version="1.0" encoding="iso-8859-1"?>
<svg version="1.1" id="Capa_1" xmlns="http://www.w3.org/2000/svg" xmlns:xlink="http://www.w3.org/1999/xlink" x="0px" y="0px"
	 viewBox="0 0 512.001 512.001" style="enable-background:new 0 0 512.001 512.001;">
<path style="fill:#AEF0FF;" d="M376.339,256.002l59.473-59.474c0.137-0.136,7.833-7.951,3.914-17.413
	c-2.671-6.448-9.09-7.924-12.979-8.206h-3.159h-0.002l-82.492-0.001c0-9.699-0.001-73.252-0.001-82.897
	c-0.108-6.738-1.155-12.983-9.156-17.589c-9.889-5.693-22.51,5.115-22.51,5.115l-55.857,55.857l-0.367-0.367l-0.368,0.367
	l-55.856-55.857c0,0-12.622-10.81-22.512-5.115c-7.999,4.606-9.046,10.852-9.154,17.589v4.77c0,0.024,0,0.047,0,0.071
	c0,0.002,0,0.002,0,0.003l-0.002,78.053l-82.493,0.001h-0.001h-3.159c-3.888,0.283-10.307,1.759-12.978,8.206
	c-3.919,9.462,3.777,17.276,3.914,17.413l59.471,59.474L72.297,313.77c0,0-9.448,9.854-5.355,19.748
	c2.311,6.873,13.44,9.908,20.634,9.908l78.705,0.002v81.671c0,0,0,13.561,9.143,17.063l0.009,0.002
	c9.103,3.479,21.026-7.124,21.137-7.222l56.266-56.266l0.368,0.367l0.367-0.367l56.267,56.266
	c0.11,0.098,12.034,10.702,21.137,7.222l0.007-0.002c9.144-3.502,9.144-17.063,9.144-17.063v-81.671l78.705-0.002
	c7.182,0,18.354-3.038,20.634-9.908c4.09-9.896-5.357-19.748-5.357-19.748L376.339,256.002z"/>
<g>
	<path style="fill:#6EDCF9;" d="M255.999,128.965l-0.641,24.297c84.421-84.772,77.059-77.749,80.498-79.971
		c-1.075-1.012-2.362-1.973-3.919-2.87c-9.889-5.693-22.51,5.115-22.51,5.115L255.999,128.965L255.999,128.965z"/>
	<path style="fill:#6EDCF9;" d="M333.172,434.942l-76.342-76.382v23.376l0,0l0,0l53.007,53.005
		c0.11,0.098,12.034,10.702,21.137,7.222l0.007-0.002c2.479-0.95,4.282-2.641,5.6-4.599
		C334.52,436.138,333.208,434.974,333.172,434.942z"/>
	<path style="fill:#6EDCF9;" d="M165.311,161.577v9.332l23.334,23.184l0.002-101.237c0-0.001,0-0.001,0-0.003
		c0-0.023,0-0.047,0-0.071v-4.77c0.087-5.426,0.789-10.532,5.235-14.72c-4.359-2.816-12.545-6.825-19.416-2.869
		c-7.999,4.606-9.046,10.852-9.154,17.589v4.77c0,0.024,0,0.047,0,0.071c0,0.002,0,0.002,0,0.003L165.311,161.577L165.311,161.577z"
		/>
	<path style="fill:#6EDCF9;" d="M107.195,343.155c-6.383-0.782-14.881-3.572-16.919-9.636c-4.092-9.896,5.355-19.748,5.355-19.748
		l57.768-57.768l-59.471-59.474c-0.137-0.136-7.833-7.951-3.914-17.413c2.358-5.692,7.634-7.508,11.515-8.05v-0.157H82.818h-0.001
		h-3.159c-3.888,0.283-10.307,1.759-12.978,8.206c-3.919,9.462,3.777,17.276,3.914,17.413l59.471,59.474L72.297,313.77
		c0,0-9.448,9.854-5.355,19.748c2.311,6.873,13.44,9.908,20.634,9.908h19.62L107.195,343.155L107.195,343.155z"/>
	<path style="fill:#6EDCF9;" d="M189.615,425.1V319.1l-23.334,24.328l0,0c0,10.063,0,59.151,0,81.671
		c0,6.346,3.199,15.423,9.151,17.065c6.117,2.338,13.504-1.682,17.728-4.602C189.619,432.3,189.615,425.1,189.615,425.1z"/>
</g>
<path style="fill:#10639B;" d="M319.068,253.414l31.811-31.812c4.111-4.089,4.609-13.704-6.538-13.704h-44.125l-0.001-41.751
	c0-0.001,0-0.001,0-0.002c0-0.012,0-0.025,0-0.038v-2.552c-0.058-3.604-0.618-6.944-4.896-9.409
	c-5.289-3.045-12.041,2.736-12.041,2.736L253.4,186.761l-0.196-0.196l-0.197,0.196l-29.877-29.878c0,0-6.751-5.781-12.041-2.736
	c-5.273,3.036-4.896,7.388-4.896,12l-0.001,41.751c-5.2,0-39.931,0-44.126,0c-10.8,0-10.892,9.374-6.538,13.704l31.811,31.812
	l-30.899,30.9c-2.487,2.593-4.311,6.82-2.86,10.577c2.199,5.287,11.033,5.287,11.033,5.287l42.099,0.001v43.686
	c0,0,0,7.253,4.89,9.127l0.005,0.001c4.869,1.861,11.247-3.81,11.306-3.863l30.096-30.096l0.197,0.196l0.196-0.196l30.097,30.096
	c0.059,0.053,6.436,5.724,11.307,3.863l0.004-0.001c4.891-1.873,4.891-9.127,4.891-9.127v-43.686l42.1-0.001
	c0,0,8.833,0,11.033-5.287l0.004-0.013c2.188-5.293-2.865-10.564-2.865-10.564L319.068,253.414z"/>
<g>
	<path style="fill:#065784;" d="M255.999,184.161l-0.295,20.202l0,0l44.29-43.635c-1.137-6.963-8.89-10.548-16.718-3.844
		L255.999,184.161L255.999,184.161z"/>
	<path style="fill:#065784;" d="M226.973,160.729l-3.844-3.844c0,0-6.751-5.781-12.041-2.736c-5.266,3.032-4.896,7.38-4.896,11.961
		c0,0.007,0-0.002,0,0.04L206.19,207.9l20.561,19.862C226.753,180.653,226.549,163.329,226.973,160.729z"/>
	<path style="fill:#065784;" d="M252.622,297.557v20.876l0,0l30.874,30.695c0.059,0.053,6.436,5.724,11.307,3.863l0.004-0.001
		c3.863-1.479,4.672-6.303,4.842-8.271L252.622,297.557z"/>
	<path style="fill:#065784;" d="M183.868,300.104c-12.688-1.143-11.926-10.516-6.868-15.79l30.9-30.9l-31.811-31.812
		c-0.073-0.073-4.19-4.253-2.094-9.315c1.429-3.449,4.862-4.238,6.941-4.39c-2.36,0-16.508,0-18.872,0
		c-10.8,0-10.892,9.374-6.538,13.704l31.811,31.812l-30.899,30.9c-2.487,2.593-4.311,6.82-2.86,10.577
		c2.199,5.287,11.033,5.287,11.033,5.287h19.257v-0.073H183.868z"/>
	<path style="fill:#065784;" d="M227.271,278.764l-20.562,21.414c0,22.443,0,21.182,0,43.686c0,0,0,7.253,4.89,9.127l0.005,0.001
		c4.869,1.861,11.247-3.81,11.306-3.863l4.409-4.409C227.244,343.853,227.271,348.312,227.271,278.764z"/>
</g>
<path style="fill:#4BCAE8;" d="M504.5,245.814h-48.759l24.231-24.231c2.929-2.929,2.929-7.678,0-10.607
	c-2.929-2.929-7.678-2.929-10.607,0l-34.839,34.838h-160.42l115.512-115.515c1.267,0,46.52,0.002,46.331,0.002
	c4.142,0,7.5-3.358,7.5-7.499c0-4.143-3.357-7.501-7.5-7.501l-31.331-0.001l32.398-32.398c2.929-2.929,2.929-7.678,0-10.607
	c-2.929-2.929-7.678-2.929-10.608,0l-35.253,35.253V70.508c0-4.142-3.358-7.5-7.5-7.5s-7.5,3.358-7.5,7.5v52.039L260.704,238.002
	V71.872l34.78-34.779c2.929-2.929,2.929-7.678,0-10.607c-2.928-2.93-7.677-2.929-10.608,0l-24.172,24.172V7.501
	c0-4.142-3.358-7.5-7.5-7.5s-7.5,3.358-7.5,7.5v43.157L221.53,26.486c-2.929-2.93-7.678-2.929-10.608,0s-2.929,7.678,0,10.607
	l34.78,34.779v164.338l-115.451-115.45V70.508c0-4.142-3.358-7.5-7.5-7.5s-7.5,3.358-7.5,7.5v35.249L84.474,74.982
	c-2.929-2.929-7.678-2.929-10.607,0c-2.929,2.929-2.929,7.678,0,10.607l29.712,29.712l-33.121,0.001c-4.143,0-7.5,3.358-7.5,7.5
	c0,4.143,3.358,7.5,7.5,7.5l48.122-0.001l115.514,115.514H71.884l-34.841-34.841c-2.929-2.929-7.678-2.929-10.608,0
	c-2.929,2.929-2.929,7.678,0,10.607l24.233,24.232H7.5c-4.142,0-7.5,3.358-7.5,7.5c0,4.142,3.358,7.5,7.5,7.5h43.046l-24.112,24.112
	c-4.74,4.739-1.319,12.804,5.303,12.804c1.919,0,3.839-0.732,5.303-2.197l34.72-34.719h166.131l-115.39,115.392H70.458
	c-4.142,0-7.5,3.358-7.5,7.5s3.358,7.5,7.5,7.5h37.042l-32.518,32.519c-2.929,2.929-2.929,7.678,0,10.608
	c1.464,1.464,3.384,2.197,5.303,2.197s3.839-0.732,5.303-2.197l29.66-29.66v31.328c0,4.142,3.358,7.5,7.5,7.5s7.5-3.358,7.5-7.5
	v-46.329l115.453-115.455v160.421l-34.78,34.778c-2.929,2.929-2.929,7.677,0,10.607c1.464,1.465,3.384,2.197,5.303,2.197
	c1.919,0,3.839-0.732,5.303-2.197l24.172-24.171V504.5c0,4.142,3.358,7.5,7.5,7.5c4.142,0,7.5-3.358,7.5-7.5v-48.649l24.172,24.171
	c2.929,2.93,7.678,2.929,10.608,0c2.929-2.929,2.929-7.678,0-10.608l-34.78-34.778V272.424l115.455,115.455L376.156,436
	c0,4.142,3.358,7.5,7.5,7.5c4.14,0,7.5-3.356,7.5-7.5l0.001-33.122l34.14,34.14c1.464,1.464,3.384,2.197,5.303,2.197
	c1.919,0,3.839-0.732,5.303-2.197c2.929-2.929,2.929-7.678,0-10.607l-35.203-35.203h35.247c4.142,0,7.5-3.358,7.5-7.5
	s-3.358-7.5-7.5-7.5H385.7L270.308,260.815h164.339c37.936,37.938,35.878,36.916,40.021,36.916c6.623,0,10.043-8.064,5.304-12.804
	l-24.11-24.112h48.638c4.142,0,7.5-3.358,7.5-7.5C512,249.172,508.642,245.814,504.5,245.814z"/>
<g>
</g>
<g>
</g>
<g>
</g>
<g>
</g>
<g>
</g>
<g>
</g>
<g>
</g>
<g>
</g>
<g>
</g>
<g>
</g>
<g>
</g>
<g>
</g>
<g>
</g>
<g>
</g>
<g>
</g>
</svg>
