<?xml version="1.0" encoding="iso-8859-1"?>
<svg version="1.1" id="Capa_1" xmlns="http://www.w3.org/2000/svg" xmlns:xlink="http://www.w3.org/1999/xlink" x="0px" y="0px"
	 viewBox="0 0 511.998 511.998" style="enable-background:new 0 0 511.998 511.998;">
<path style="fill:#E5E1E1;" d="M434.246,457.55l-18.407,5.181l-21.637-76.867l17.153-41.771c0.001-0.003,5.458-14.935-0.399-35.745
	l-30.112-106.973c-2.987-10.61-14.009-16.791-24.62-13.804l-67.24,18.927c-10.609,2.987-16.789,14.009-13.802,24.62l30.111,106.972
	c5.857,20.81,18.302,30.704,18.307,30.705l36.423,26.69l21.637,76.866l-17.041,4.797c-9.437,2.657-14.935,12.462-12.279,21.901
	c2.657,9.438,12.463,14.936,21.9,12.279l69.627-19.599c9.437-2.656,14.936-12.462,12.28-21.899
	C453.49,460.391,443.684,454.894,434.246,457.55z"/>
<g>
	<path style="fill:#D1CFCF;" d="M381.629,472.24c2.011-0.979,1.433-0.713,20.006-5.941l-21.637-76.866l-36.423-26.69
		c-0.005-0.001-12.449-9.895-18.307-30.705l-30.111-106.972c-2.594-9.213,1.729-18.729,9.856-23.033l-16.029,4.466
		c-10.609,2.987-16.789,14.009-13.802,24.62l30.111,106.972c5.857,20.81,18.302,30.704,18.307,30.705l36.423,26.69L381.629,472.24z"
		/>
	<path style="fill:#D1CFCF;" d="M381.062,472.521l-16.443,4.628c-9.437,2.657-14.935,12.462-12.279,21.901
		c2.657,9.438,12.463,14.936,21.9,12.279l20.123-5.664C372.549,510.297,363.227,482.001,381.062,472.521z"/>
</g>
<path style="fill:#EA473B;" d="M410.956,308.349l-10.889-38.682L294.405,299.41l10.888,38.682
	c5.857,20.81,18.302,30.704,18.307,30.705l35.69,26.155l35.258-9.925l16.807-40.932
	C411.357,344.091,416.814,329.159,410.956,308.349z"/>
<path style="fill:#D63322;" d="M379.691,389.209l-36.115-26.465c-0.005-0.001-12.449-9.895-18.307-30.705l-10.776-38.283
	l-20.087,5.654l10.888,38.682c5.857,20.81,18.302,30.704,18.307,30.705l35.692,26.154L379.691,389.209z"/>
<path style="fill:#E5E1E1;" d="M77.752,457.55l18.407,5.181l21.637-76.867l-17.153-41.771c-0.002-0.003-5.458-14.935,0.399-35.745
	l30.112-106.973c2.986-10.61,14.009-16.791,24.619-13.804l67.24,18.927c10.61,2.987,16.79,14.009,13.803,24.62L206.704,338.09
	c-5.858,20.81-18.301,30.704-18.306,30.705l-36.424,26.69l-21.637,76.866l17.041,4.797c9.437,2.657,14.936,12.462,12.278,21.901
	c-2.656,9.438-12.462,14.936-21.899,12.279l-69.628-19.599c-9.437-2.656-14.936-12.462-12.278-21.899
	C58.508,460.391,68.314,454.894,77.752,457.55z"/>
<g>
	<path style="fill:#D1CFCF;" d="M117.796,385.865l-21.528,76.478c0.525,0.098,1.049,0.211,1.573,0.359l18.407,5.181l21.637-76.867
		l-17.153-41.771c-0.002-0.003-5.458-14.935,0.399-35.745l30.112-106.973c2.583-9.177,11.179-15.027,20.318-14.51l-15.789-4.444
		c-10.61-2.987-21.633,3.193-24.619,13.804L101.041,308.35c-5.858,20.81-0.401,35.742-0.399,35.745L117.796,385.865z"/>
	<path style="fill:#D1CFCF;" d="M83.712,494.903l0.011-0.006c-15.509-9.548-8.162-33.633,10.079-32.829l-16.049-4.518
		c-9.438-2.656-19.244,2.84-21.901,12.28c-2.657,9.438,2.841,19.243,12.278,21.899l18.818,5.297L83.712,494.903z"/>
</g>
<path style="fill:#EA473B;" d="M217.593,299.41l-10.889,38.682c-5.858,20.81-18.301,30.704-18.306,30.705l-35.691,26.155
	l-35.258-9.925l-16.806-40.932c-0.002-0.003-5.458-14.935,0.399-35.745l10.888-38.682L217.593,299.41z"/>
<path style="fill:#D63322;" d="M117.451,385.026l20.324,5.722l-17.042-41.503c-0.002-0.003-5.458-14.935,0.399-35.745l10.757-38.215
	l-19.959-5.618l-10.888,38.682c-5.858,20.81-0.401,35.742-0.399,35.745L117.451,385.026z"/>
<g>
	<path style="fill:#F2D422;" d="M174.825,143.686l-27.3-27.983c-2.979-3.054-2.919-7.947,0.135-10.927
		c3.054-2.979,7.947-2.919,10.927,0.135l27.299,27.983c2.98,3.055,2.919,7.947-0.135,10.927
		C182.698,146.8,177.806,146.742,174.825,143.686z"/>
	<path style="fill:#F2D422;" d="M326.243,143.821c-3.054-2.98-3.114-7.872-0.134-10.927l27.302-27.983
		c2.98-3.054,7.871-3.114,10.927-0.134c3.054,2.98,3.114,7.872,0.134,10.927l-27.302,27.983
		C334.19,146.74,329.3,146.802,326.243,143.821z"/>
	<path style="fill:#F2D422;" d="M254.771,128.935c-4.267,0-7.727-3.459-7.727-7.727V83.832c0-4.267,3.459-7.727,7.727-7.727
		c4.267,0,7.727,3.459,7.727,7.727v37.377C262.498,125.476,259.039,128.935,254.771,128.935z"/>
</g>
<path style="fill:#FFA92C;" d="M212.745,62.285c4.411,8.399,1.178,18.784-7.224,23.193c-8.4,4.409-18.787,1.171-23.194-7.226
	c-4.409-8.4-1.175-18.785,7.226-23.193C197.956,50.648,208.34,53.885,212.745,62.285z"/>
<path style="fill:#FF8828;" d="M206.135,55.414c-14.833-8.568-31.798,7.613-23.807,22.839c4.457,8.492,15.165,11.852,23.795,6.871
	C194.704,78.531,194.698,62.013,206.135,55.414z"/>
<g>
	<circle style="fill:#8DD83D;" cx="237.569" cy="10.884" r="10.883"/>
	<circle style="fill:#8DD83D;" cx="116.019" cy="139.998" r="10.883"/>
	<circle style="fill:#8DD83D;" cx="402.779" cy="148.858" r="10.883"/>
</g>
<path style="fill:#FFA92C;" d="M358.817,23.411l-16.575-5.094l-5.199-16.54c-0.637-2.013-3.299-2.412-4.505-0.699l-9.965,14.191
	c-18.59-0.179-18.681-0.644-19.63,1.228c-0.952,1.88-0.423,1.798,10.652,16.536c-5.929,17.671-6.379,17.579-4.895,19.048
	c1.491,1.484,1.571,0.958,19.015-5.021c14.386,10.664,14.662,11.54,16.604,10.545c1.874-0.96,1.398-1.2,1.105-19.638l14.122-10.057
	C361.25,26.699,360.835,24.032,358.817,23.411z"/>
<path style="fill:#FF8828;" d="M328.274,38.871c-11.168-14.863-11.6-14.663-10.652-16.536c0.954-1.881,1.194-1.406,19.63-1.228
	l4.053-5.771l-4.262-13.559c-0.637-2.013-3.299-2.412-4.505-0.699l-9.965,14.191c-18.59-0.179-18.681-0.644-19.63,1.228
	c-0.952,1.88-0.423,1.798,10.652,16.536c-5.929,17.671-6.379,17.579-4.895,19.048c1.491,1.484,1.894,0.847,16.543-4.174
	L328.274,38.871z"/>
<g>
</g>
<g>
</g>
<g>
</g>
<g>
</g>
<g>
</g>
<g>
</g>
<g>
</g>
<g>
</g>
<g>
</g>
<g>
</g>
<g>
</g>
<g>
</g>
<g>
</g>
<g>
</g>
<g>
</g>
</svg>
