<?xml version="1.0" encoding="iso-8859-1"?>
<svg version="1.1" id="Layer_1" xmlns="http://www.w3.org/2000/svg" xmlns:xlink="http://www.w3.org/1999/xlink" x="0px" y="0px"
	 viewBox="0 0 511.999 511.999" style="enable-background:new 0 0 511.999 511.999;" xml:space="preserve">
<g>
	<path style="fill:#FFD6BB;" d="M393.726,288.671h-33.237v91.335h33.237c8.156,0,14.829-6.596,14.829-14.658V303.33
		C408.556,295.267,401.882,288.671,393.726,288.671z"/>
	<path style="fill:#FFD6BB;" d="M151.51,288.671h-33.235c-8.156,0-14.829,6.596-14.829,14.659v62.018
		c0,8.061,6.674,14.658,14.829,14.658h33.235V288.671z"/>
</g>
<path style="fill:#58595B;" d="M371.371,250.715V7.421c0-4.081-3.398-7.421-7.548-7.421H148.178c-4.152,0-7.548,3.339-7.548,7.421
	v243.293h230.742V250.715z"/>
<rect x="140.632" y="210.589" style="fill:#414042;" width="230.745" height="40.135"/>
<path style="opacity:0.1;enable-background:new    ;" d="M181.745,0h-33.567c-4.152,0-7.548,3.339-7.548,7.421v243.293h33.566V7.421
	C174.197,3.339,177.592,0,181.745,0z"/>
<path style="opacity:0.1;enable-background:new    ;" d="M121.092,365.348V303.33c0-8.062,6.674-14.659,14.828-14.659h-17.645
	c-8.156,0-14.829,6.596-14.829,14.659v62.018c0,8.061,6.674,14.658,14.829,14.658h17.645
	C127.764,380.005,121.092,373.409,121.092,365.348z"/>
<path style="fill:#FFD6BB;" d="M140.63,268.526v183.952c0,8.163,6.794,14.843,15.099,14.843h200.545
	c8.303,0,15.097-6.68,15.097-14.843V268.526H140.63z"/>
<path style="opacity:0.1;enable-background:new    ;" d="M185.847,452.479V268.526H140.63v183.952
	c0,8.163,6.794,14.843,15.099,14.843h45.217C192.641,467.322,185.847,460.642,185.847,452.479z"/>
<path style="fill:#414042;" d="M346.407,268.526v82.684c-11.989,1.052-21.394,10.996-21.394,23.127v68.332h-14.682
	c-8.077,0-14.685,6.533-14.685,14.519v10.132H216.35v-10.132c0-7.986-6.607-14.519-14.685-14.519h-14.68v-68.332
	c0-12.13-9.405-22.075-21.393-23.127v-82.684h-24.965v184.276c0,7.984,6.606,14.519,14.684,14.519h15.564v30.158
	c0,7.985,6.606,14.52,14.682,14.52H326.44c8.074,0,14.683-6.535,14.683-14.52v-30.158h15.562c8.076,0,14.684-6.535,14.684-14.519
	V268.526H346.407z"/>
<rect x="140.632" y="210.589" style="opacity:0.1;enable-background:new    ;" width="33.562" height="40.135"/>
<g>
	<path style="fill:#5B330A;" d="M255.999,378.076c-4.329,0-7.837-3.509-7.837-7.837v-44.767c0-4.328,3.508-7.837,7.837-7.837
		c4.329,0,7.837,3.509,7.837,7.837v44.767C263.836,374.568,260.328,378.076,255.999,378.076z"/>
	<path style="fill:#5B330A;" d="M211.598,348.566c-4.329,0-7.837-3.509-7.837-7.837v-15.257c0-4.328,3.508-7.837,7.837-7.837
		c4.329,0,7.837,3.509,7.837,7.837v15.257C219.434,345.058,215.926,348.566,211.598,348.566z"/>
	<path style="fill:#5B330A;" d="M300.403,348.566c-4.329,0-7.837-3.509-7.837-7.837v-15.257c0-4.328,3.508-7.837,7.837-7.837
		c4.329,0,7.837,3.509,7.837,7.837v15.257C308.24,345.058,304.732,348.566,300.403,348.566z"/>
	<path style="fill:#5B330A;" d="M281.901,420.218h-51.804c-4.329,0-7.837-3.509-7.837-7.837c0-4.328,3.508-7.837,7.837-7.837h51.804
		c4.329,0,7.837,3.509,7.837,7.837C289.738,416.709,286.23,420.218,281.901,420.218z"/>
	<path style="fill:#5B330A;" d="M229.018,310.186h-35.616c-4.329,0-7.837-3.509-7.837-7.837s3.508-7.837,7.837-7.837h35.616
		c4.329,0,7.837,3.509,7.837,7.837S233.346,310.186,229.018,310.186z"/>
	<path style="fill:#5B330A;" d="M318.597,310.186h-35.616c-4.329,0-7.837-3.509-7.837-7.837s3.508-7.837,7.837-7.837h35.616
		c4.329,0,7.837,3.509,7.837,7.837S322.926,310.186,318.597,310.186z"/>
</g>
<path style="fill:#58595B;" d="M450.558,269.037c0,4.082-3.398,7.422-7.551,7.422H68.991c-4.153,0-7.55-3.341-7.55-7.422v-15.885
	c0-4.081,3.398-7.421,7.55-7.421h374.016c4.153,0,7.551,3.339,7.551,7.421V269.037z"/>
<path style="opacity:0.1;enable-background:new    ;" d="M95.189,269.037v-15.885c0-4.081,3.398-7.421,7.551-7.421H68.991
	c-4.153,0-7.55,3.339-7.55,7.421v15.885c0,4.082,3.398,7.422,7.55,7.422h33.748C98.587,276.459,95.189,273.119,95.189,269.037z"/>
<g>
</g>
<g>
</g>
<g>
</g>
<g>
</g>
<g>
</g>
<g>
</g>
<g>
</g>
<g>
</g>
<g>
</g>
<g>
</g>
<g>
</g>
<g>
</g>
<g>
</g>
<g>
</g>
<g>
</g>
</svg>
