<?xml version="1.0" encoding="iso-8859-1"?>
<svg version="1.1" id="Layer_1" xmlns="http://www.w3.org/2000/svg" xmlns:xlink="http://www.w3.org/1999/xlink" x="0px" y="0px"
	 viewBox="0 0 512 512" style="enable-background:new 0 0 512 512;" xml:space="preserve">
<path style="fill:#C397DB;" d="M512,90.022c0-12.43-10.076-22.505-22.505-22.505h-11.253c18.645,0,33.758-15.114,33.758-33.758
	S496.886,0,478.242,0c-7.41,0-14.653,0.782-21.666,2.239l-0.839,290.332h33.758c12.43,0,22.505-10.076,22.505-22.505
	s-10.076-22.505-22.505-22.505c12.43,0,22.505-10.076,22.505-22.505c0-12.43-10.076-22.506-22.505-22.506
	c12.43,0,22.505-10.076,22.505-22.505s-10.076-22.505-22.505-22.505c12.43,0,22.505-10.076,22.505-22.505
	s-10.076-22.505-22.505-22.505C501.924,112.527,512,102.452,512,90.022z"/>
<path style="fill:#D6BAED;" d="M478.242,270.066c0-12.43-10.076-22.505-22.505-22.505c12.43,0,22.505-10.076,22.505-22.505
	c0-12.43-10.076-22.506-22.505-22.506c12.43,0,22.505-10.076,22.505-22.505s-10.076-22.505-22.505-22.505
	c12.43,0,22.505-10.076,22.505-22.505s-10.076-22.505-22.505-22.505c12.43,0,22.505-10.076,22.505-22.506
	s-10.076-22.505-22.505-22.505h-11.253c18.645,0,33.758-15.114,33.758-33.758c0-14.381-8.997-26.654-21.666-31.519
	c-35.591,7.396-65.107,32.534-78.893,65.126L310.43,235.462H201.57L134.316,67.366C117.815,28.352,78.783,0,33.758,0
	C15.114,0,0,15.114,0,33.758s15.114,33.758,33.758,33.758H22.505C10.076,67.516,0,77.592,0,90.022s10.076,22.506,22.505,22.506
	C10.076,112.527,0,122.603,0,135.033s10.076,22.505,22.505,22.505C10.076,157.538,0,167.614,0,180.044s10.076,22.505,22.505,22.505
	C10.076,202.549,0,212.625,0,225.055c0,12.43,10.076,22.505,22.505,22.505C10.076,247.56,0,257.636,0,270.066
	s10.076,22.505,22.505,22.505h75.956c0,37.288,30.228,67.516,67.516,67.516h180.044c37.288,0,67.516-30.228,67.516-67.516h42.198
	C468.166,292.571,478.242,282.496,478.242,270.066z"/>
<path style="fill:#B175C8;" d="M322.247,482.098l-44.985-129.407h-42.524l-22.151,63.722l63.218,53.986l10.203,35.836
	c3.983,3.573,9.232,5.765,15.003,5.765c12.43,0,22.505-10.076,22.505-22.505C323.517,486.9,323.055,484.417,322.247,482.098z"/>
<path style="fill:#C397DB;" d="M212.587,416.414l-22.834,65.685c-0.808,2.319-1.269,4.802-1.269,7.396
	c0,12.43,10.076,22.505,22.505,22.505c12.43,0,22.505-10.076,22.505-22.505C233.494,501.924,243.57,512,256,512
	c12.43,0,22.505-10.076,22.505-22.505c0,6.657,2.908,12.621,7.502,16.741c2.297-4.121,3.751-10.084,3.751-16.741
	c0-2.595-0.231-5.077-0.635-7.396l-9.998-57.52c-7.383,1.965-15.132,3.026-23.126,3.026
	C240.266,427.604,225.469,423.537,212.587,416.414z"/>
<path style="fill:#FFD8D4;" d="M289.758,202.548v-73.142c0-18.645-15.114-33.758-33.758-33.758v298.198
	c31.073,0,56.264-25.19,56.264-56.264V247.56C312.264,229.154,303.424,212.814,289.758,202.548z"/>
<path style="fill:#FFECEA;" d="M269.503,202.548v-73.142c0-18.645-6.046-33.758-13.503-33.758
	c-18.645,0-33.758,15.114-33.758,33.758v73.142c-13.665,10.265-22.506,26.605-22.506,45.012v90.022
	c0,31.073,25.19,56.264,56.264,56.264c12.43,0,22.505-25.19,22.505-56.264V247.56C278.505,229.154,274.969,212.814,269.503,202.548z
	"/>
<g>
	<path style="fill:#C397DB;" d="M421.978,112.527v45.011c12.43,0,22.506-10.076,22.506-22.505S434.408,112.527,421.978,112.527z"/>
	<path style="fill:#C397DB;" d="M444.484,225.055c0-12.43-10.076-22.506-22.506-22.506v45.011
		C434.408,247.56,444.484,237.485,444.484,225.055z"/>
	<path style="fill:#C397DB;" d="M421.978,247.56v45.011c12.43,0,22.506-10.076,22.506-22.505S434.408,247.56,421.978,247.56z"/>
	<path style="fill:#C397DB;" d="M67.516,135.033c0,12.43,10.076,22.505,22.505,22.505v-45.011
		C77.592,112.527,67.516,122.603,67.516,135.033z"/>
	<path style="fill:#C397DB;" d="M67.516,270.066c0,12.43,10.076,22.505,22.505,22.505V247.56
		C77.592,247.56,67.516,257.636,67.516,270.066z"/>
	<path style="fill:#C397DB;" d="M67.516,225.055c0,12.43,10.076,22.505,22.505,22.505v-45.011
		C77.592,202.549,67.516,212.625,67.516,225.055z"/>
</g>
<path style="fill:#F89890;" d="M256,160.352c-4.661,0-8.44-3.779-8.44-8.44v-22.505c0-4.661,3.779-8.44,8.44-8.44
	c4.662,0,8.44,3.779,8.44,8.44v22.505C264.44,156.573,260.662,160.352,256,160.352z"/>
<g>
</g>
<g>
</g>
<g>
</g>
<g>
</g>
<g>
</g>
<g>
</g>
<g>
</g>
<g>
</g>
<g>
</g>
<g>
</g>
<g>
</g>
<g>
</g>
<g>
</g>
<g>
</g>
<g>
</g>
</svg>
