<?xml version="1.0" encoding="iso-8859-1"?>
<svg version="1.1" id="Layer_1" xmlns="http://www.w3.org/2000/svg" xmlns:xlink="http://www.w3.org/1999/xlink" x="0px" y="0px"
	 viewBox="0 0 512 512" style="enable-background:new 0 0 512 512;" xml:space="preserve">
<polygon style="fill:#69B5FD;" points="503.83,285.957 503.83,329.532 471.149,329.532 438.468,253.277 "/>
<g>
	<polygon style="fill:#8FCEFA;" points="471.149,285.957 471.149,329.532 8.17,329.532 8.17,285.957 239.66,220.596 	"/>
	<polygon style="fill:#8FCEFA;" points="503.83,8.17 503.83,285.957 471.149,285.957 416.681,147.064 471.149,8.17 	"/>
</g>
<rect x="8.17" y="8.17" style="fill:#B5E6F8;" width="462.979" height="277.787"/>
<path style="fill:#69B5FD;" d="M239.66,285.957v201.532c0,9.024,7.316,16.34,16.34,16.34c9.024,0,16.34-7.316,16.34-16.34V285.957
	H239.66z"/>
<path style="fill:#D7614D;" d="M304.812,156.161L256,90.83v162.445c33.597,0,60.822-27.225,60.822-60.822
	C316.822,178.849,312.362,166.288,304.812,156.161z"/>
<path style="fill:#FF8048;" d="M278.582,156.16c3.497,10.131,5.556,22.691,5.556,36.287c0,33.607-12.593,60.83-28.138,60.83
	c-33.585,0-60.819-27.223-60.819-60.83c0-13.595,4.466-26.156,12.005-36.287L256,90.831L278.582,156.16z"/>
<path style="fill:#5E025A;" d="M256.002,212.426c-4.512,0-8.17,3.658-8.17,8.17v65.362h16.34v-65.362
	C264.172,216.084,260.515,212.426,256.002,212.426z"/>
<path style="fill:#D7614D;" d="M459.139,156.161L410.326,90.83v162.445c33.597,0,60.822-27.225,60.822-60.822
	C471.149,178.849,466.689,166.288,459.139,156.161z"/>
<path style="fill:#FF8048;" d="M432.909,156.16c3.497,10.131,5.556,22.691,5.556,36.287c0,33.607-12.593,60.83-28.138,60.83
	c-33.585,0-60.819-27.223-60.819-60.83c0-13.595,4.466-26.156,12.005-36.287l48.814-65.329L432.909,156.16z"/>
<path style="fill:#5E025A;" d="M410.329,212.426c-4.512,0-8.17,3.658-8.17,8.17v65.362h16.34v-65.362
	C418.499,216.084,414.841,212.426,410.329,212.426z"/>
<path style="fill:#D7614D;" d="M150.487,156.161L101.673,90.83v162.445c33.597,0,60.822-27.225,60.822-60.822
	C162.497,178.849,158.036,166.288,150.487,156.161z"/>
<path style="fill:#FF8048;" d="M124.256,156.16c3.497,10.131,5.556,22.691,5.556,36.287c0,33.607-12.593,60.83-28.138,60.83
	c-33.585,0-60.819-27.223-60.819-60.83c0-13.595,4.466-26.156,12.005-36.287l48.814-65.329L124.256,156.16z"/>
<path style="fill:#5E025A;" d="M101.677,212.426c-4.512,0-8.17,3.658-8.17,8.17v65.362h16.34v-65.362
	C109.847,216.084,106.189,212.426,101.677,212.426z"/>
<path style="fill:#69B5FD;" d="M503.83,294.128H8.17c-4.512,0-8.17-3.658-8.17-8.17c0-4.512,3.658-8.17,8.17-8.17h495.66
	c4.512,0,8.17,3.658,8.17,8.17C512,290.47,508.342,294.128,503.83,294.128z"/>
<g>
</g>
<g>
</g>
<g>
</g>
<g>
</g>
<g>
</g>
<g>
</g>
<g>
</g>
<g>
</g>
<g>
</g>
<g>
</g>
<g>
</g>
<g>
</g>
<g>
</g>
<g>
</g>
<g>
</g>
</svg>
