<?xml version="1.0" encoding="iso-8859-1"?>
<svg version="1.1" id="Capa_1" xmlns="http://www.w3.org/2000/svg" xmlns:xlink="http://www.w3.org/1999/xlink" x="0px" y="0px"
	 viewBox="0 0 512 512" style="enable-background:new 0 0 512 512;" xml:space="preserve">
<path style="fill:#994C0F;" d="M270,15v30c0,9.899-7.5,15-15,15s-15-5.101-15-15V15c0-8.401,6.599-15,15-15S270,6.599,270,15z"/>
<g>
	<path style="fill:#FCBF29;" d="M330,497.14V375c0-19.773,30-19.854,30,0v122.14C360,516.913,330,516.994,330,497.14z"/>
	<path style="fill:#FCBF29;" d="M270,497.14V405c0-19.773,30-19.854,30,0v92.14C300,516.913,270,516.994,270,497.14z"/>
</g>
<g>
	<path style="fill:#FEDB41;" d="M210,497.14V405c0-19.773,30-19.854,30,0v92.14C240,516.913,210,516.994,210,497.14z"/>
	<path style="fill:#FEDB41;" d="M150,497.14V405c0-19.773,30-19.854,30,0v92.14C180,516.913,150,516.994,150,497.14z"/>
</g>
<path style="fill:#CAE8F9;" d="M45,0C20.186,0,0,20.186,0,45s20.186,45,45,45s45-20.186,45-45S69.814,0,45,0z M45,60
	c-8.262,0-15-6.724-15-15s6.738-15,15-15s15,6.724,15,15S53.262,60,45,60z"/>
<path style="fill:#B7E0F6;" d="M467,360c-24.814,0-45,20.186-45,45s20.186,45,45,45s45-20.186,45-45S491.814,360,467,360z M467,420
	c-8.262,0-15-6.724-15-15s6.738-15,15-15s15,6.724,15,15S475.262,420,467,420z"/>
<path style="fill:#E50027;" d="M465,225c0,59.7-42.001,103.799-118.2,123.9l-1.8,0.599H165l-1.8-0.599
	C87.001,328.799,45,284.7,45,225s42.001-103.801,118.2-123.9l1.8-0.601h180l1.8,0.601C422.999,121.199,465,165.3,465,225z"/>
<g>
	<path style="fill:#FEA832;" d="M345,334.499H165c-8.401,0-15,6.601-15,15V420h210v-70.501C360,341.1,353.401,334.499,345,334.499z"
		/>
	<path style="fill:#FEA832;" d="M345,30H165c-8.401,0-15,6.599-15,15v55.499c0,8.401,6.599,15,15,15h180c8.401,0,15-6.599,15-15V45
		C360,36.599,353.401,30,345,30z"/>
</g>
<path style="fill:#B7E0F6;" d="M497.14,30h-15V15c0-19.773-30-19.854-30,0v15h-15c-19.773,0-19.854,30,0,30h15v15
	c0,19.773,30,19.854,30,0V60h15C516.913,60,516.994,30,497.14,30z"/>
<path style="fill:#CAE8F9;" d="M75,390H60v-15c0-19.773-30-19.854-30,0v15H15c-19.773,0-19.854,30,0,30h15v15
	c0,19.773,30,19.854,30,0v-15h15C94.773,420,94.854,390,75,390z"/>
<circle style="fill:#FEDB41;" cx="15" cy="135" r="15"/>
<path style="fill:#FD003A;" d="M360.601,89.399h-210l-0.3-0.3C73.5,111.899,30,161.1,30,225c0,63.6,43.2,112.8,119.7,135.599
	h210.901C436.8,337.5,480,288.6,480,225S436.8,112.5,360.601,89.399z M116.4,314.399c-29.7-17.1-56.4-45-56.4-89.399
	c0-44.401,26.7-72.301,56.4-89.401C99.6,161.999,90,192.9,90,225S99.6,287.999,116.4,314.399z M197.999,334.499H176.4
	C141,309,120,268.5,120,225s21-84,56.4-109.501h21.599C186.599,144.899,180,183.9,180,225S186.599,305.099,197.999,334.499z
	 M279,334.499h-48c-12.9-26.1-21-65.999-21-109.499s8.101-83.401,21-109.501h48c12.9,26.1,21,66,21,109.501
	S291.899,308.399,279,334.499z M333.6,334.499h-21.599C323.401,305.099,330,266.1,330,225s-6.599-80.101-17.999-109.501H333.6
	C369,141,390,181.5,390,225S369,309,333.6,334.499z M393.6,314.399C410.4,287.999,420,257.1,420,225s-9.6-63.001-26.4-89.401
	c29.7,17.1,56.4,45,56.4,89.401C450,269.399,423.3,297.299,393.6,314.399z"/>
<g>
	<path style="fill:#FE9923;" d="M360,349.499V420H255v-85.501h90C353.401,334.499,360,341.1,360,349.499z"/>
	<path style="fill:#FE9923;" d="M360,45v55.499c0,8.401-6.599,15-15,15h-90V30h90C353.401,30,360,36.599,360,45z"/>
</g>
<path style="fill:#C1001F;" d="M465,225c0,59.7-42.001,103.799-118.2,123.9l-1.8,0.599h-90v-249h90l1.8,0.601
	C422.999,121.199,465,165.3,465,225z"/>
<path style="fill:#E50027;" d="M360.601,89.399H255v26.1h24c12.9,26.1,21,66,21,109.501s-8.101,83.399-21,109.499h-24v26.1h105.601
	C436.8,337.5,480,288.6,480,225S436.8,112.5,360.601,89.399z M333.6,334.499h-21.599C323.401,305.099,330,266.1,330,225
	s-6.599-80.101-17.999-109.501H333.6C369,141,390,181.5,390,225S369,309,333.6,334.499z M393.6,314.399
	C410.4,287.999,420,257.1,420,225s-9.6-63.001-26.4-89.401c29.7,17.1,56.4,45,56.4,89.401C450,269.399,423.3,297.299,393.6,314.399z
	"/>
<g>
</g>
<g>
</g>
<g>
</g>
<g>
</g>
<g>
</g>
<g>
</g>
<g>
</g>
<g>
</g>
<g>
</g>
<g>
</g>
<g>
</g>
<g>
</g>
<g>
</g>
<g>
</g>
<g>
</g>
</svg>
