<?xml version="1.0" encoding="iso-8859-1"?>
<svg version="1.1" id="Layer_1" xmlns="http://www.w3.org/2000/svg" xmlns:xlink="http://www.w3.org/1999/xlink" x="0px" y="0px"
	 viewBox="0 0 512 512" style="enable-background:new 0 0 512 512;" xml:space="preserve">
<g>
	<path style="fill:#CB8F68;" d="M26.718,387.713c0.693-0.42,1.418-0.84,2.179-1.271c10.767-5.956,26.233-15.636,36.42-30.988
		l2.673-4.027l1.3,4.654c1.911,6.846,4.312,13.41,7.137,19.504l0.841,1.815l-1.722,1.018c-6.652,3.932-21.663,10.897-47.468,13.384
		L26.718,387.713z"/>
	<path style="fill:#CB8F68;" d="M67.159,356.676c1.934,6.93,4.377,13.617,7.261,19.84c-6.62,3.913-21.321,10.655-46.555,13.087
		c0.674-0.409,1.382-0.818,2.122-1.238C42.356,381.524,57.178,371.72,67.159,356.676z"/>
	<path style="fill:#CB8F68;" d="M370.829,392.72c-15.493,0-20.248-12.104-20.74-13.485c-0.475-1.407-1.406-2.572-2.633-3.316
		c-0.65-0.401-24.902-15.089-44.272-26.559c-14.496-8.596-14.919-11.468-14.734-25.276l0.012-1.403c0.01-1.104,0.02-2.26,0.02-3.464
		V292.69c0-1.125-0.306-2.219-0.889-3.163c-0.161-0.265-15.811-26.062-16.803-41.437c-0.208-3.189-2.867-5.687-6.055-5.687
		c-0.134,0-0.269,0.004-0.403,0.013c-1.624,0.103-3.106,0.83-4.177,2.049c-1.073,1.22-1.605,2.781-1.498,4.398
		c1.029,16.058,13.55,38.499,17.362,44.995l0.304,0.518v24.841c0,1.166-0.011,2.274-0.021,3.337l-0.012,1.366
		c-0.05,3.338-0.052,6.855,0.265,10.068l0.08,0.805l-0.459,0.667c-8.973,13.043-51.636,30.756-98.508,35.322l-1.22,0.118
		l-0.747-0.972c-1.802-2.344-4.25-4.098-7.079-5.07l-2.442-0.839l1.206-2.284c4.368-8.277,8.49-17.362,11.605-25.582
		c6.593-17.448,9.396-32.257,8.332-44.015c-0.279-3.099-2.938-5.527-6.055-5.527c-0.183,0-0.368,0.008-0.555,0.024
		c-3.33,0.307-5.8,3.272-5.501,6.609c0.895,9.792-2.869,37.371-23.52,71.636l-0.537,0.893l-18.129,2.695
		c-3.313,0.494-5.607,3.592-5.113,6.905c0.44,2.96,3.021,5.193,6.003,5.193c0.3,0,0.602-0.023,0.902-0.067l28.778-4.291l0.24-0.006
		c1.009,0,1.938,0.546,2.422,1.424l8.489,15.096h-69.254l-0.097-0.009c-3.01-0.267-10.454-6.348-17.62-21.529
		c-7.315-15.497-11.51-34.438-11.51-51.967c0-43.413,11.708-85.685,32.123-115.977c24.162-35.846,59.875-54.792,103.277-54.792
		c47.925,0,76.163,16.637,76.427,16.805c0.925,0.567,2.017,0.878,3.124,0.878c0.139,0,0.279-0.004,0.418-0.014
		c13.959-0.898,29.171-9.374,46.784-19.19c0,0,1.88-1.037,2.621-1.448l2.416-1.346l0.779,2.655c0.827,2.817,2.175,5.47,4.007,7.885
		c5.268,6.962,14.134,11.461,22.587,11.461c3.351,0,6.079-2.727,6.079-6.079c0-3.352-2.728-6.079-6.079-6.079
		c-3.79,0-9.44-2.076-12.892-6.634c-2.504-3.31-3.168-7.121-1.978-11.33c0.941-3.338,4.153-6.378,8.385-7.929
		c1.23-0.453,3.181-0.994,5.468-0.994c2.608,0,4.972,0.703,7.021,2.09c1.004,0.676,2.177,1.036,3.387,1.036
		c2.028,0,3.916-1,5.049-2.676c0.351-0.534,0.625-1.123,0.798-1.73l0.337-1.189l1.189-0.335c3.757-1.06,7.276-1.858,10.758-2.441
		c10.553-1.761,20.648-2.653,30.003-2.653c17.951,0,30.93,3.33,34.716,8.909c3.66,5.402,10.11,9.76,16.939,14.372
		c9.854,6.642,17.375,12.145,17.375,17.585c0,2.439,0.071,5.384,0.132,7.982c0.034,1.387,0.069,2.998,0.09,4.441l0.018,1.132
		l-0.909,0.675c-3.813,2.835-6.046,7.462-8.015,11.544c-4.815,9.94-10.268,21.201-38.291,21.201c-2.624,0-4.944,1.676-5.773,4.168
		c-0.167,0.527-18.75,56.117-59.657,85.39c-2.109,1.513-2.415,3.04-2.988,7.234c-0.276,1.979-0.64,4.777-1.07,8.127
		c-0.851,6.651-1.944,15.5-3.026,24.327c-2.155,17.658-4.264,35.275-4.265,35.275c-0.201,1.718,0.344,3.456,1.497,4.763
		c1.153,1.291,2.812,2.037,4.542,2.037h9.639c3.005,0,5.793,1.493,7.455,3.993l6.923,10.375h-32.856V392.72z M434.384,132.421
		c-5.79,0-10.5,4.711-10.5,10.5c0,5.79,4.711,10.5,10.5,10.5c5.79,0,10.5-4.711,10.5-10.5
		C444.884,137.131,440.175,132.421,434.384,132.421z"/>
	<path style="fill:#CB8F68;" d="M495.309,168.089c0.033,1.382,0.067,2.984,0.088,4.421c-4.222,3.139-6.564,7.958-8.687,12.357
		c-4.754,9.815-9.66,19.951-36.299,19.951c-3.569,0-6.742,2.288-7.87,5.681c-0.176,0.553-18.89,55.696-58.845,84.29
		c-2.974,2.133-3.328,4.609-3.892,8.732c-0.276,1.979-0.641,4.786-1.072,8.146c-0.852,6.654-1.945,15.507-3.029,24.339
		c-2.155,17.663-4.265,35.281-4.265,35.281c-0.276,2.354,0.464,4.709,2.034,6.488c1.581,1.768,3.835,2.785,6.2,2.785h9.639
		c2.266,0,4.365,1.127,5.615,3.006l4.63,6.941h-28.728c-13.937,0-18.249-10.865-18.658-12.015c-0.629-1.868-1.89-3.449-3.569-4.465
		c-0.244-0.155-24.582-14.9-44.29-26.572c-13.849-8.212-13.827-10.224-13.65-23.344c0.011-1.525,0.032-3.161,0.032-4.897V292.69
		c0-1.525-0.42-3.029-1.216-4.322c-4.311-7.063-15.684-28.086-16.48-40.421c-0.298-4.576-4.244-8.036-8.809-7.737
		c-4.565,0.287-8.037,4.233-7.737,8.798c1.05,16.392,13.452,38.796,17.662,45.97v24.239c0,1.669-0.022,3.216-0.032,4.686
		c-0.056,3.78-0.033,7.162,0.276,10.301c-8.798,12.788-51.397,29.943-96.902,34.375c-2.09-2.719-4.93-4.72-8.114-5.814
		c4.41-8.356,8.534-17.431,11.717-25.831c6.72-17.784,9.56-32.916,8.467-44.997c-0.409-4.554-4.444-7.914-9.008-7.505
		c-4.554,0.42-7.914,4.443-7.505,9.008c0.884,9.671-2.907,36.608-23.211,70.297l-17.099,2.542c-4.521,0.674-7.649,4.896-6.976,9.417
		c0.674,4.532,4.898,7.66,9.418,6.986l28.616-4.266c0.21-0.033,0.453,0.077,0.564,0.276l6.644,11.816H105.59
		c-1.746-0.155-8.721-5.239-15.817-20.271c-7.173-15.198-11.297-33.8-11.297-51.021c0-42.985,11.574-84.81,31.745-114.742
		c23.731-35.204,58.813-53.817,101.444-53.817c47.551,0,74.996,16.303,75.238,16.458c1.459,0.895,3.161,1.326,4.885,1.205
		c14.436-0.928,29.854-9.517,47.705-19.464c0.862-0.475,1.746-0.962,2.62-1.448c0.895,3.051,2.354,5.947,4.366,8.599
		c5.67,7.494,15.23,12.335,24.349,12.335c4.577,0,8.29-3.714,8.29-8.29s-3.713-8.29-8.29-8.29c-3.36,0-8.267-1.978-11.129-5.759
		c-2.09-2.763-2.62-5.836-1.614-9.395c0.741-2.631,3.492-5.162,7.019-6.455c1.802-0.663,6.422-1.901,10.489,0.851
		c3.791,2.553,8.942,1.558,11.506-2.233c0.496-0.752,0.861-1.547,1.093-2.365c3.604-1.017,7.085-1.813,10.522-2.387
		c33.126-5.527,57.807-1.636,62.527,5.317c3.901,5.759,10.532,10.235,17.552,14.977c6.919,4.664,16.38,11.053,16.38,15.74
		C495.176,162.463,495.243,165.326,495.309,168.089z M447.095,142.922c0-7.008-5.702-12.711-12.711-12.711
		c-7.008,0-12.711,5.703-12.711,12.711c0,7.008,5.703,12.711,12.711,12.711C441.393,155.633,447.095,149.928,447.095,142.922z"/>
</g>
<g>
	<path style="fill:#3D484A;" d="M511.878,167.714c0.066,2.609,0.122,5.084,0.122,6.997c-0.012,2.841-0.012,9.506-6.6,11.086
		c-0.817,0.199-2.74,4.167-3.768,6.3c-5.018,10.357-13.232,27.312-45.362,29.136c-5.915,15.275-24.902,58.272-60.108,84.954
		c-1.226,9.008-4.553,36.265-7.151,57.796h0.3c7.813,0,15.076,3.88,19.408,10.39l13.219,19.829c1.702,2.542,1.857,5.814,0.409,8.511
		c-1.437,2.697-4.244,4.377-7.306,4.377h-44.212c-20.691,0-29.908-13.861-33.059-20.238c-6.477-3.913-25.755-15.563-41.902-25.135
		c-6.588-3.902-11.209-7.472-14.436-11.02c-9.55,8.29-23.808,14.767-35.623,19.166c-18.029,6.709-39.173,11.805-59.345,14.391
		l5.902,10.478c1.438,2.575,1.415,5.714-0.066,8.257c-1.493,2.542-4.212,4.101-7.162,4.101h-79.582
		c-9.318,0-17.265-7.991-22.923-16.093c-4.754,2.807-11.683,6.09-21.443,9.041c-15.495,4.675-33.292,7.052-52.9,7.052
		c-2.542,0-4.941-1.172-6.51-3.161c-1.581-2.001-2.144-4.609-1.547-7.085c0.521-2.111,3.969-13.153,21.73-22.979
		c9.749-5.405,19.619-11.838,27.113-20.548c7.483-8.721,12.589-19.719,12.822-34.231c0.023-46.157,12.623-91.298,34.574-123.871
		c26.958-39.99,66.782-61.134,115.195-61.134c44.501,0,72.885,12.987,81.328,17.453c10.445-1.57,24.074-9.163,38.442-17.154
		c4.068-2.266,8.279-4.598,12.578-6.897c3.073-5.737,8.545-10.39,15.386-12.899c5.25-1.912,10.633-2.343,15.674-1.36
		c7.305-2.609,14.159-4.432,20.923-5.56c10.589-1.757,64.152-9.461,78.962,12.368c2.111,3.106,7.705,6.886,13.109,10.545
		c11.108,7.494,23.687,15.983,23.687,29.478C511.755,162.276,511.823,165.039,511.878,167.714z M495.398,172.511
		c-0.021-1.437-0.055-3.04-0.088-4.421c-0.066-2.763-0.133-5.626-0.133-8.036c0-4.686-9.46-11.075-16.38-15.74
		c-7.02-4.742-13.652-9.218-17.552-14.977c-4.721-6.952-29.402-10.843-62.527-5.317c-3.437,0.575-6.919,1.371-10.522,2.387
		c-0.232,0.818-0.597,1.614-1.093,2.365c-2.564,3.791-7.716,4.786-11.506,2.233c-4.069-2.752-8.688-1.514-10.489-0.851
		c-3.526,1.293-6.278,3.824-7.019,6.455c-1.006,3.559-0.476,6.632,1.614,9.395c2.863,3.78,7.769,5.759,11.129,5.759
		c4.577,0,8.29,3.714,8.29,8.29s-3.713,8.29-8.29,8.29c-9.119,0-18.679-4.841-24.349-12.335c-2.012-2.653-3.472-5.549-4.366-8.599
		c-0.873,0.486-1.757,0.973-2.62,1.448c-17.851,9.948-33.27,18.536-47.705,19.464c-1.724,0.122-3.426-0.309-4.885-1.205
		c-0.243-0.155-27.688-16.458-75.238-16.458c-42.63,0-77.714,18.613-101.444,53.817c-20.175,29.932-31.749,71.755-31.749,114.742
		c0,17.221,4.123,35.823,11.297,51.021c7.096,15.032,14.069,20.117,15.817,20.271h65.379l-6.644-11.816
		c-0.111-0.199-0.353-0.309-0.564-0.276l-28.616,4.266c-4.521,0.674-8.743-2.454-9.418-6.986c-0.673-4.521,2.455-8.743,6.976-9.417
		l17.099-2.542c20.304-33.69,24.096-60.626,23.211-70.297c-0.409-4.565,2.951-8.588,7.505-9.008
		c4.565-0.409,8.599,2.951,9.008,7.505c1.093,12.081-1.746,27.213-8.467,44.997c-3.183,8.4-7.306,17.475-11.717,25.831
		c3.184,1.094,6.024,3.095,8.114,5.814c45.505-4.432,88.104-21.587,96.902-34.375c-0.309-3.139-0.333-6.521-0.276-10.301
		c0.011-1.47,0.032-3.017,0.032-4.686v-24.239c-4.211-7.173-16.612-29.578-17.662-45.97c-0.3-4.565,3.172-8.511,7.737-8.798
		c4.565-0.298,8.511,3.161,8.809,7.737c0.796,12.335,12.169,33.358,16.48,40.421c0.796,1.293,1.216,2.796,1.216,4.322v26.527
		c0,1.735-0.022,3.371-0.032,4.897c-0.177,13.12-0.2,15.132,13.651,23.344c19.708,11.672,44.046,26.417,44.29,26.572
		c1.68,1.017,2.94,2.597,3.569,4.465c0.409,1.15,4.721,12.015,18.658,12.015h28.727l-4.63-6.941
		c-1.25-1.879-3.349-3.006-5.615-3.006h-9.639c-2.365,0-4.62-1.017-6.2-2.785c-1.57-1.78-2.31-4.134-2.034-6.488
		c0,0,2.11-17.619,4.265-35.281c1.083-8.831,2.177-17.685,3.029-24.339c0.431-3.36,0.796-6.168,1.072-8.146
		c0.564-4.123,0.917-6.599,3.892-8.732c39.956-28.594,58.67-83.738,58.845-84.29c1.129-3.393,4.301-5.681,7.87-5.681
		c26.639,0,31.545-10.136,36.299-19.951C488.832,180.469,491.175,175.649,495.398,172.511z M74.421,376.517
		c-2.884-6.223-5.326-12.91-7.261-19.84c-9.981,15.043-24.803,24.847-37.172,31.689c-0.741,0.42-1.447,0.829-2.122,1.238
		C53.099,387.172,67.8,380.428,74.421,376.517z"/>
	<path style="fill:#3D484A;" d="M434.384,130.211c7.009,0,12.711,5.703,12.711,12.711c0,7.008-5.702,12.711-12.711,12.711
		c-7.008,0-12.711-5.703-12.711-12.711C421.673,135.914,427.378,130.211,434.384,130.211z"/>
</g>
</svg>
