<?xml version="1.0" encoding="iso-8859-1"?>
<svg version="1.1" id="Layer_1" xmlns="http://www.w3.org/2000/svg" xmlns:xlink="http://www.w3.org/1999/xlink" x="0px" y="0px"
	 viewBox="0 0 512 512" style="enable-background:new 0 0 512 512;" xml:space="preserve">
<path style="fill:#FFD3AE;" d="M413.491,360.018c0,6.672-2.545,13.344-7.635,18.434c-2.213,2.213-4.712,3.944-7.383,5.193
	c-9.664,4.517-21.518,2.786-29.485-5.193l-74.504-74.492l6.294,6.305l76.476,76.464c0.08,0.08,0.161,0.16,0.229,0.241
	c4.941,5.056,7.406,11.624,7.406,18.193c0,6.672-2.545,13.355-7.635,18.445c-2.201,2.201-4.712,3.932-7.383,5.182
	c-9.664,4.517-21.518,2.797-29.497-5.182l-19.431-19.42c4.884,5.044,7.314,11.579,7.314,18.101c0,6.672-2.545,13.344-7.635,18.434
	c-2.201,2.201-4.712,3.932-7.371,5.182c-9.664,4.517-21.518,2.797-29.497-5.182l-24.991-24.991
	c10.042,10.191,9.997,26.596-0.138,36.73c-0.16,0.161-0.332,0.332-0.504,0.482c-5.021,4.78-11.487,7.165-17.941,7.165
	c-6.672,0-13.344-2.545-18.434-7.646l-105.41-105.41l-8.953-8.942l-16.233-16.233c-26.424-26.436-42.967-61.137-46.841-98.303
	L0,179.266l52.826-53.708l72.452-73.667l50.615,50.615c8.875,8.875,22.426,11.01,33.65,5.39c8.888-4.45,18.605-6.677,28.322-6.677
	c6.511,0,13.023,0.997,19.294,3.004c-5.468,3.37-10.638,7.429-15.373,12.163l63.533,30.471l7.738,50.154
	c0,0,5.829-40.794-10.919-12.066l37.286,5.187c0.092,0.092-16.726,27.422-16.623,27.513l79.64,120.52l3.416,3.416
	C410.946,346.674,413.491,353.346,413.491,360.018z"/>
<g>
	<path style="fill:#995C0D;" d="M219.614,450.33l-1.628,1.628c-5.09,5.09-11.762,7.635-18.434,7.635
		c-6.672,0-13.344-2.545-18.434-7.635c-10.18-10.191-10.18-26.699,0-36.879l1.628-1.616l25.618,12.255L219.614,450.33z"/>
	<path style="fill:#995C0D;" d="M144.262,374.978l-0.011,0.011c-0.539,0.539-1.089,1.043-1.651,1.502
		c-10.237,8.655-25.576,8.139-35.229-1.502c-5.09-5.09-7.635-11.762-7.635-18.434c0-6.672,2.545-13.344,7.635-18.434l0.011-0.011
		l16.138,4.494l14.138,11.272L144.262,374.978z"/>
	<path style="fill:#995C0D;" d="M144.262,374.978l29.89,12.813l7.463,24.541l-2.732,2.427c-10.226,9.24-26.035,8.93-35.893-0.929
		c-5.09-5.101-7.635-11.773-7.635-18.445c0-4.434,1.123-8.868,3.372-12.837c1.135-2.004,4.986-7.018,5.524-7.557L144.262,374.978z"
		/>
</g>
<path style="fill:#B27214;" d="M512,177.157l-46.417,46.417c-1.089,10.444-3.187,20.704-6.213,30.632v0.011
	c-7.761,25.393-21.644,48.664-40.639,67.66l-16.29,16.29l-78.837-78.837l-47.243-47.243c-0.103-0.092-0.183-0.172-0.275-0.264
	l-0.39-0.39c-0.011-0.011-0.023-0.023-0.023-0.023c-0.229-0.229-0.344-0.344-0.344-0.344l-17.104-17.116l-13.115,13.115
	c-11.418,11.418-26.378,17.127-41.35,17.127c-14.96,0-29.921-5.709-41.339-17.127c-3.118-3.13-3.118-8.197,0-11.315l79.364-79.364
	c4.735-4.735,9.905-8.793,15.373-12.163c13.482-8.334,28.82-12.496,44.147-12.496c14.616,0,29.244,3.783,42.267,11.349
	c11.464,6.672,26.046,4.517,35.423-4.861l31.17-31.159L512,177.157z"/>
<g>
	<path style="fill:#995C0D;" d="M354.509,238.5l-28.27,21.942l-2.637-1.112l-47.243-47.243c-0.103-0.092-0.183-0.172-0.275-0.264
		l-0.39-0.39C276.967,212.615,320.645,252.36,354.509,238.5z"/>
	<path style="fill:#995C0D;" d="M459.369,254.217c-7.761,25.393-21.644,48.664-40.639,67.66l-16.29,16.29L300.812,236.54
		l-0.562-2.843c0,0,111.586,89.418,159.107,20.52L459.369,254.217L459.369,254.217z"/>
</g>
<g>
	<path style="fill:#E5B48F;" d="M258.121,452.944c-5.021,4.78-11.487,7.165-17.941,7.165c-6.672,0-13.344-2.545-18.434-7.646
		l-105.41-105.41l-8.953-8.942l-16.233-16.233c-26.424-26.436-42.967-61.137-46.841-98.303L0,179.266l52.826-53.708l14.412,48.039
		c4.924,16.412,7.277,33.458,7.37,50.592c0.064,11.83,1.975,27.019,9.361,40.458C93.513,282.015,192.502,391.234,258.121,452.944z"
		/>
	<path style="fill:#E5B48F;" d="M313.251,445.905c-9.664,4.517-21.518,2.797-29.497-5.182l-24.991-24.991l-66.02-66.02
		c-3.359-3.347-3.359-8.793,0-12.152c3.347-3.359,8.793-3.359,12.152,0L313.251,445.905z"/>
	<path style="fill:#E5B48F;" d="M377.483,386.969l-76.705-76.705l76.476,76.464C377.334,386.809,377.414,386.889,377.483,386.969z"
		/>
	<path style="fill:#E5B48F;" d="M368.988,378.451l-74.504-74.492l6.294,6.305l-32.58-32.569c-3.359-3.359-3.359-8.804-0.011-12.163
		c3.359-3.359,8.804-3.359,12.163,0l32.592,32.58l85.532,85.532C388.809,388.161,376.955,386.43,368.988,378.451z"/>
	<path style="fill:#E5B48F;" d="M369.871,428.789c-9.664,4.517-21.518,2.797-29.497-5.182l-19.431-19.42l-83.618-83.629
		c-3.359-3.347-3.359-8.793,0-12.152c3.347-3.359,8.793-3.359,12.152,0L369.871,428.789z"/>
</g>
<polygon style="fill:#995C0D;" points="258.224,193.952 276.566,175.609 267.106,202.84 "/>
<g>
</g>
<g>
</g>
<g>
</g>
<g>
</g>
<g>
</g>
<g>
</g>
<g>
</g>
<g>
</g>
<g>
</g>
<g>
</g>
<g>
</g>
<g>
</g>
<g>
</g>
<g>
</g>
<g>
</g>
</svg>
