<?xml version="1.0" encoding="iso-8859-1"?>
<svg version="1.1" id="Layer_1" xmlns="http://www.w3.org/2000/svg" xmlns:xlink="http://www.w3.org/1999/xlink" x="0px" y="0px"
	 viewBox="0 0 512.001 512.001" style="enable-background:new 0 0 512.001 512.001;" xml:space="preserve">
<path style="fill:#ADBF3B;" d="M294.764,340.135c-12.015,2.731-25.922-8.331-38.763-8.331c-12.841,0-26.749,11.062-38.763,8.331
	c-12.406-2.819-20.136-18.888-31.329-24.289c-11.377-5.489-28.741-1.575-38.514-9.379c-9.82-7.841-9.844-25.659-17.685-35.479
	c-7.803-9.773-25.186-13.736-30.675-25.112c-5.399-11.192,2.281-27.23-0.539-39.635c-2.731-12.015-16.676-23.116-16.676-35.957
	c0-12.841,13.945-23.943,16.676-35.957c2.819-12.406-4.861-28.444,0.54-39.636c5.489-11.377,22.872-15.34,30.675-25.112
	c7.841-9.82,7.866-27.638,17.685-35.479c9.773-7.803,27.136-3.889,38.514-9.378c11.192-5.399,18.922-21.468,31.328-24.287
	c12.015-2.731,25.922,8.331,38.763,8.331s26.749-11.062,38.763-8.331c12.406,2.82,20.136,18.888,31.329,24.289
	c11.377,5.489,28.741,1.575,38.514,9.379c9.82,7.841,9.844,25.659,17.685,35.479c7.803,9.773,25.186,13.736,30.675,25.112
	c5.399,11.192-2.281,27.23,0.539,39.635c2.731,12.015,16.676,23.116,16.676,35.957s-13.945,23.943-16.676,35.957
	c-2.819,12.406,4.861,28.444-0.54,39.636c-5.489,11.377-22.872,15.34-30.675,25.112c-7.841,9.82-7.866,27.638-17.685,35.479
	c-9.773,7.803-27.136,3.889-38.514,9.378C314.899,321.247,307.17,337.315,294.764,340.135z"/>
<path style="fill:#493123;" d="M256.001,277.775l-68.81-77.58c-3.278-3.696-2.939-9.348,0.756-12.626
	c3.696-3.277,9.347-2.938,12.624,0.757l55.429,62.493l55.429-62.493c3.277-3.696,8.93-4.032,12.624-0.757
	c3.695,3.278,4.033,8.93,0.756,12.626L256.001,277.775z"/>
<path style="fill:#76472D;" d="M338.804,443.819l-73.861-19.791V140.572c0-4.939-4.004-8.943-8.943-8.943s-8.943,4.004-8.943,8.943
	v283.456l-73.861,19.791c-4.771,1.279-7.602,6.182-6.324,10.953c1.071,3.995,4.684,6.631,8.634,6.631
	c0.766,0,1.545-0.099,2.321-0.306l60.639-16.249l-28.674,54.014c-2.316,4.362-0.657,9.776,3.706,12.092
	c1.336,0.709,2.771,1.046,4.185,1.046c3.203,0,6.3-1.726,7.907-4.752l30.411-57.286l30.411,57.286
	c1.606,3.026,4.704,4.752,7.907,4.752c1.414,0,2.85-0.338,4.185-1.046c4.363-2.316,6.022-7.73,3.706-12.092l-28.674-54.014
	l60.639,16.249c0.776,0.208,1.554,0.306,2.321,0.306c3.948,0,7.563-2.635,8.634-6.631
	C346.406,450.001,343.575,445.097,338.804,443.819z"/>
<g>
</g>
<g>
</g>
<g>
</g>
<g>
</g>
<g>
</g>
<g>
</g>
<g>
</g>
<g>
</g>
<g>
</g>
<g>
</g>
<g>
</g>
<g>
</g>
<g>
</g>
<g>
</g>
<g>
</g>
</svg>
