<?xml version="1.0" encoding="iso-8859-1"?>
<svg version="1.1" id="Capa_1" xmlns="http://www.w3.org/2000/svg" xmlns:xlink="http://www.w3.org/1999/xlink" x="0px" y="0px"
	 viewBox="0 0 512 512" style="enable-background:new 0 0 512 512;" xml:space="preserve">
<path style="fill:#EE8700;" d="M512,256.703c0,141.39-114.61,224.814-256,224.814c-22.893,0-45.093-2.192-66.208-6.463
	C80.498,452.979,0,375.201,0,256.703c0-141.38,114.61-256,256-256c37.586,0,73.27,8.096,105.417,22.645
	C450.218,63.53,512,152.899,512,256.703z"/>
<path style="fill:#FF9811;" d="M512,256.703c0,141.39-114.61,224.814-256,224.814c-22.893,0-45.093-2.192-66.208-6.463
	C111.425,440.519,58.432,371.178,58.432,275.036c0-141.38,114.62-256,256-256c16.048,0,31.754,1.479,46.985,4.312
	C450.218,63.53,512,152.899,512,256.703z"/>
<g>
	<path style="fill:#AA6100;" d="M326.513,127.778h-52.989V79.421c0-9.639-7.886-17.524-17.524-17.524s-17.524,7.886-17.524,17.524
		v48.358h-52.989c-9.639,0-17.524,7.886-17.524,17.524l0,0c0,9.639,7.886,17.524,17.524,17.524h52.989v147.95
		c0,9.639,7.886,17.524,17.524,17.524c9.638,0,17.524-7.886,17.524-17.524v-147.95h52.989c9.639,0,17.524-7.886,17.524-17.524l0,0
		C344.039,135.664,336.152,127.778,326.513,127.778z"/>
	<path style="fill:#AA6100;" d="M167.839,184.58h-46.888v-42.79c0-8.529-6.979-15.507-15.507-15.507s-15.507,6.979-15.507,15.507
		v42.79H43.049c-8.529,0-15.507,6.979-15.507,15.507l0,0c0,8.529,6.979,15.507,15.507,15.507h46.888v130.917
		c0,8.528,6.979,15.507,15.507,15.507s15.507-6.979,15.507-15.507V215.594h46.888c8.529,0,15.507-6.979,15.507-15.507l0,0
		C183.346,191.557,176.369,184.58,167.839,184.58z"/>
	<path style="fill:#AA6100;" d="M468.951,184.58h-46.888v-42.79c0-8.529-6.979-15.507-15.507-15.507s-15.507,6.979-15.507,15.507
		v42.79h-46.888c-8.529,0-15.507,6.979-15.507,15.507l0,0c0,8.529,6.979,15.507,15.507,15.507h46.888v130.917
		c0,8.528,6.979,15.507,15.507,15.507c8.528,0,15.507-6.979,15.507-15.507V215.594h46.888c8.529,0,15.507-6.979,15.507-15.507l0,0
		C484.458,191.557,477.48,184.58,468.951,184.58z"/>
</g>
<path style="fill:#884D00;" d="M507.44,391.528c-2.428-8.557-7.733-18.119-15.531-25.571
	c-35.664-34.077-77.578-31.124-77.685-31.144c-14.546,0-29.271-4.542-41.702-13.701c-21.788-16.023-48.639-25.323-77.116-25.323
	c-60.915,0-78.975,39.023-147.346,39.023c-3.363,0.274-23.307-1.773-48.081,8.293l-62.03,25.24
	c-21.435,8.717-35.456,29.552-35.456,52.693v69.372c0,11.624,9.462,20.887,20.897,20.887h465.221
	c11.54,0,20.897-9.347,20.897-20.887C509.349,416.666,510.667,402.698,507.44,391.528z"/>
<path style="fill:#CC7400;" d="M509.508,448.884c0,11.54-9.358,20.887-20.897,20.887H23.389c-3.412,0-6.628-0.817-9.472-2.275
	c-6.783-3.443-11.426-10.485-11.426-18.612v-27.846c0-3.598,0.341-7.135,0.993-10.578c3.547-18.747,16.358-34.753,34.464-42.115
	l62.03-25.24c24.774-10.065,44.818-8.027,48.081-8.293c68.497,0,86.315-39.023,147.346-39.023c26.937,0,54.085,8.385,77.116,25.323
	c11.712,8.629,26.261,13.701,41.702,13.701h0.01c28.932,0,56.757,11.157,77.675,31.144c5.615,5.367,10.02,11.767,13.018,18.767
	c1.055,2.471,1.882,4.581,2.513,6.804c0.662,2.306,1.137,4.725,1.468,7.765c0.31,2.823,0.496,6.163,0.6,10.454
	c0.01,0.434,0.021,0.879,0.031,1.334C509.508,421.555,509.477,434.005,509.508,448.884z"/>
<g>
	<path style="fill:#AA6100;" d="M173.29,457.601c-1.53,1.758-3.691,2.657-5.852,2.657c-1.81,0-3.619-0.631-5.087-1.913
		c-8.737-7.61-20.349-11.343-31.889-10.257l-16.844,1.603c-26.636,2.523-53.903-1.21-78.874-10.795L2.492,426.674v-5.635
		c0-3.598,0.341-7.135,0.993-10.578l36.811,13.949c5.16,1.985,10.423,3.671,15.769,5.098l59.755-20.608
		c4.053-1.396,8.469,0.755,9.864,4.798c1.396,4.053-0.755,8.469-4.798,9.864l-32.292,11.136c7.848,0.434,15.738,0.29,23.555-0.455
		l16.854-1.592c15.738-1.489,31.61,3.609,43.532,14.011C175.771,449.473,176.102,454.375,173.29,457.601z"/>
	<path style="fill:#AA6100;" d="M509.508,407.089v7.755c-0.145,0-0.29,0-0.434-0.01l-48.278-2.668
		c-7.765-0.434-15.293,2.554-20.649,8.2l-10.092,10.65l9.358,15.179c2.254,3.65,1.117,8.427-2.523,10.671
		c-1.272,0.786-2.678,1.158-4.064,1.158c-2.606,0-5.149-1.303-6.607-3.681l-7.838-12.708c-8.427,5.47-18.654,7.817-28.797,6.38
		l-13.091-1.872c-5.015-0.713-10.102,0.021-14.714,2.12l-19.843,9.058c-1.044,0.476-2.13,0.703-3.216,0.703
		c-2.937,0-5.749-1.685-7.052-4.539c-1.778-3.898-0.062-8.489,3.836-10.268l19.832-9.058c7.321-3.34,15.386-4.508,23.348-3.371
		l13.08,1.872c8.469,1.199,17.04-1.779,22.924-7.993l14.207-14.972c8.489-8.955,20.442-13.69,32.757-13.018l47.306,2.616
		C509.322,401.857,509.508,404.463,509.508,407.089z"/>
	<circle style="fill:#AA6100;" cx="209.232" cy="383.938" r="8.152"/>
	<circle style="fill:#AA6100;" cx="279.782" cy="343.994" r="8.152"/>
	<circle style="fill:#AA6100;" cx="275.646" cy="411.691" r="8.152"/>
	<circle style="fill:#AA6100;" cx="344.036" cy="377.982" r="8.152"/>
	<circle style="fill:#AA6100;" cx="388.581" cy="411.691" r="8.152"/>
</g>
<circle style="fill:#663A00;" cx="388.581" cy="482.675" r="8.152"/>
<circle style="fill:#AA6100;" cx="247.459" cy="460.258" r="8.152"/>
<g>
	<circle style="fill:#663A00;" cx="48.468" cy="485.871" r="8.152"/>
	<circle style="fill:#663A00;" cx="125.715" cy="494.019" r="8.152"/>
	<circle style="fill:#663A00;" cx="308.466" cy="494.019" r="8.152"/>
</g>
<g>
	<circle style="fill:#AA6100;" cx="420.314" cy="369.824" r="8.152"/>
	<circle style="fill:#AA6100;" cx="143.872" cy="367.642" r="8.152"/>
	<circle style="fill:#AA6100;" cx="71.843" cy="411.691" r="8.152"/>
	<circle style="fill:#AA6100;" cx="183.351" cy="430.013" r="8.152"/>
</g>
<circle style="fill:#663A00;" cx="461.147" cy="494.019" r="8.152"/>
<g>
</g>
<g>
</g>
<g>
</g>
<g>
</g>
<g>
</g>
<g>
</g>
<g>
</g>
<g>
</g>
<g>
</g>
<g>
</g>
<g>
</g>
<g>
</g>
<g>
</g>
<g>
</g>
<g>
</g>
</svg>
