<?xml version="1.0" encoding="iso-8859-1"?>
<svg version="1.1" id="Layer_1" xmlns="http://www.w3.org/2000/svg" xmlns:xlink="http://www.w3.org/1999/xlink" x="0px" y="0px"
	 viewBox="0 0 512 512" style="enable-background:new 0 0 512 512;" xml:space="preserve">
<path style="fill:#FFBA12;" d="M256,377.145c-103.979,0-188.573-84.594-188.573-188.573S152.021,0,256,0
	s188.573,84.594,188.573,188.573S359.979,377.145,256,377.145z M256,16.787c-94.723,0-171.786,77.063-171.786,171.786
	S161.277,360.358,256,360.358s171.786-77.063,171.786-171.786S350.723,16.787,256,16.787z"/>
<circle style="fill:#FFCCA6;" cx="256" cy="223.131" r="82.86"/>
<path style="fill:#DD3B31;" d="M352.766,377.472H159.234C117.478,407.56,90.289,456.602,90.289,512h331.423
	C421.712,456.602,394.522,407.561,352.766,377.472z"/>
<path style="fill:#991B17;" d="M256,346.288c-36.122,0-69.539,11.565-96.766,31.184L256,512l96.766-134.528
	C325.539,357.853,292.122,346.288,256,346.288z"/>
<g>
</g>
<g>
</g>
<g>
</g>
<g>
</g>
<g>
</g>
<g>
</g>
<g>
</g>
<g>
</g>
<g>
</g>
<g>
</g>
<g>
</g>
<g>
</g>
<g>
</g>
<g>
</g>
<g>
</g>
</svg>
