<?xml version="1.0" encoding="iso-8859-1"?>
<svg version="1.1" id="Capa_1" xmlns="http://www.w3.org/2000/svg" xmlns:xlink="http://www.w3.org/1999/xlink" x="0px" y="0px"
	 viewBox="0 0 512 512" style="enable-background:new 0 0 512 512;" xml:space="preserve">
<path style="fill:#FF7247;" d="M503.413,225.736l-14.114-5.034c-0.126-0.045-12.751-4.575-26.392-11.765
	c-22.34-11.774-28.22-20.337-29.711-23.47l-7.854-16.439l-14.649,10.845c-0.124,0.092-12.623,9.276-29.289,15.453
	c-17.948,6.654-33.166,7.263-45.341,1.867c8.841-19.092,22.656-31.404,22.866-31.588l14.942-12.896l-16.422-10.948
	c-30.98-20.654-20.324-77.167-20.219-77.706l3.589-17.947h-18.302c-14.006,0-41.131-20.775-55.913-35.519L256.003,0l-10.609,10.583
	c-14.789,14.752-41.914,35.526-55.92,35.526h-18.302l3.589,17.947c0.113,0.566,10.476,57.243-20.219,77.706l-16.46,10.914
	l14.942,12.896c0.233,0.204,14.06,12.524,22.903,31.622c-12.174,5.395-27.392,4.787-45.339-1.867
	c-16.666-6.178-29.165-15.361-29.265-15.435L86.657,168.94l-7.861,16.528c-6.017,12.646-36.43,28.218-56.094,35.232l-14.117,5.025
	l4.998,14.127c0.045,0.126,4.495,12.779,7.523,27.9c4.958,24.762,2.026,34.725,0.535,37.859l-7.799,16.466l17.655,4.522
	c0.149,0.039,15.16,3.942,30.468,12.975c18.458,10.892,28.904,23.903,31.044,38.674l2.784,19.553l18.065-7.953
	c0.478-0.207,48.218-20.329,82.714,8.087l9.751,8.03l49.674-42.739l49.674,42.739l9.751-8.03
	c34.351-28.295,81.828-8.464,82.707-8.09l18.026,7.936l2.831-19.532c2.142-14.77,12.586-27.782,31.044-38.674
	c15.308-9.032,30.319-12.937,30.439-12.968l17.748-4.468l-7.862-16.528c-6.017-12.647,1.09-46.068,8.055-65.75L503.413,225.736z"/>
<path style="fill:#FF4F19;" d="M255.995,363.225l49.674,42.739l9.751-8.03c34.351-28.295,81.828-8.464,82.707-8.09l18.026,7.936
	l2.831-19.532c2.142-14.77,12.586-27.782,31.044-38.674c15.308-9.032,30.319-12.937,30.439-12.968l17.748-4.468l-7.862-16.528
	c-6.017-12.647,1.09-46.068,8.055-65.75l5.007-14.124l-14.114-5.034c-0.126-0.045-12.751-4.575-26.392-11.765
	c-22.34-11.774-28.22-20.337-29.711-23.47l-7.854-16.439l-14.649,10.845c-0.124,0.092-12.623,9.276-29.289,15.453
	c-17.948,6.654-33.166,7.263-45.341,1.867c8.841-19.092,22.656-31.404,22.866-31.588l14.942-12.896l-16.422-10.948
	c-30.98-20.654-20.324-77.167-20.219-77.706l3.589-17.947h-18.302c-14.006,0-41.131-20.775-55.913-35.519L256.003,0"/>
<polygon style="fill:#816244;" points="271,434.375 271,340.599 392.882,282.616 379.992,255.518 271,307.368 271,159.904
	240.991,159.904 240.991,307.368 131.999,255.518 119.108,282.616 240.991,340.599 240.991,434.375 220.027,423.893
	206.607,450.733 240.991,467.925 240.991,512 271,512 271,467.925 305.384,450.733 291.964,423.893 "/>
<polygon style="fill:#56412D;" points="271,434.375 271,340.599 392.882,282.616 379.992,255.518 271,307.368 271,159.904
	257.059,159.904 257.059,512 271,512 271,467.925 305.384,450.733 291.964,423.893 "/>
</svg>
