<?xml version="1.0" encoding="iso-8859-1"?>
<svg version="1.1" id="Layer_1" xmlns="http://www.w3.org/2000/svg" xmlns:xlink="http://www.w3.org/1999/xlink" x="0px" y="0px"
	 viewBox="0 0 496 496" style="enable-background:new 0 0 496 496;">
<g>
	<path style="fill:#FFA64D;" d="M344.088,351.4L328,348.92h-11.24c-6.752,22.2-23.68,39.36-44.76,46.88V408
		c0,20.488-8.136,40.136-22.624,54.624L248,464l-1.376-1.376C232.136,448.136,224,428.488,224,408v-12.176
		c-6.776-2.424-13.224-5.84-19.152-10.296l-6.816-5.008l-2.44,3.648c-13.176,0.88-51.44,6.184-59.36,37.888L127.944,488H248h93.16
		c31.32-24.432,54.096-58.232,64.992-96.632C392.272,370.168,369.888,355.368,344.088,351.4z"/>
	<path style="fill:#FFA64D;" d="M248,0c-35.288,0-64,28.712-64,64c0,27.552,18.12,52.232,44.192,60.744
		c2.072-8.92,4.784-17.696,8.408-26.16l8.048-18.792l-2.024-0.72C236.272,76.824,232,70.76,232,64c0-8.824,7.176-16,16-16
		s16,7.176,16,16c0,6.768-4.288,12.832-10.664,15.096l-1.992,0.704l8.056,18.792c3.624,8.464,6.336,17.24,8.416,26.16
		C293.88,116.24,312,91.56,312,64C312,28.712,283.288,0,248,0z"/>
</g>
<g>
	<path style="fill:#333333;" d="M71.496,411.608L45.12,496h405.76l-26.376-84.392c-3.68-11.776-9.568-22.552-17.08-31.944
		L393.328,288h7.352v-8c0-12.544-4.872-23.944-12.784-32.504c14.144-1.92,27.296-9.92,34.984-22.88l4.184-7.04l-7.144-4.016
		c-7.984-4.488-16.768-6.416-25.376-6.144c3.896-6.936,6.144-14.912,6.144-23.416v-8h-7.832v-48
		c0-57.928-44.672-106.416-102.08-111.48c5.824,5.248,10.68,11.536,14.272,18.592c41.424,10.8,71.816,48.648,71.816,92.888v50.744
		c-6.328,2.224-12.04,5.72-16.84,10.2V176c0-9.04-3.128-17.296-8.208-24H352v-40c0-23.76-17.368-43.48-40.056-47.288
		c-0.064,5.448-0.952,10.736-2.352,15.848C324.568,83.224,336,96.272,336,112v27.392c-4.912-2.16-10.304-3.392-16-3.392h-41.96
		c-2.048-13.896-5.688-27.496-11.296-40.568L248,51.688l-18.744,43.744c-5.608,13.072-9.24,26.672-11.296,40.568H176
		c-5.696,0-11.088,1.232-16,3.392V112c0-15.728,11.432-28.776,26.408-31.432c-1.4-5.112-2.288-10.4-2.352-15.848
		C161.368,68.52,144,88.24,144,112v40h0.208c-5.08,6.704-8.208,14.96-8.208,24v12.32c-4.624-4.152-10.032-7.408-16-9.52V128
		c0-43.904,29.912-81.52,70.856-92.648c3.576-7.096,8.424-13.424,14.256-18.712C148.176,22.152,104,70.4,104,128v48h-8v8
		c0,8.504,2.248,16.488,6.144,23.424c-8.608-0.272-17.392,1.648-25.384,6.136l-7.144,4.016l4.184,7.04
		c7.688,12.96,20.832,20.952,34.984,22.88C100.872,256.056,96,267.456,96,280v8h6.672l-14.104,91.664
		C81.056,389.064,75.168,399.832,71.496,411.608z M152,184h57.368c12.456,0,24.168,4.848,32.976,13.656l5.656,5.656l5.656-5.656
		c8.808-8.808,20.512-13.656,32.976-13.656H344v48c0,52.936-43.064,96-96,96s-96-43.064-96-96v-8V184z M345.312,343.496l-10.4-1.6
		C335.616,337.352,336,332.712,336,328v-26.944c7.696-9.792,13.776-20.872,17.896-32.888c5.664,7.776,13.584,13.776,22.816,17.048
		l11.728,76.24C375.872,352.248,361.136,345.928,345.312,343.496z M176,317.664c4.992,4.208,10.392,7.928,16.072,11.224
		c0.32,19.904,11.216,37.904,28.104,47.616C217.6,381.112,216,386.352,216,392c0,0.184,0.048,0.36,0.056,0.544
		C191.72,380.568,176,355.848,176,328V317.664z M248,376c8.824,0,16,7.176,16,16s-7.176,16-16,16s-16-7.176-16-16
		S239.176,376,248,376z M264.088,364.496C259.344,361.712,253.888,360,248,360s-11.344,1.712-16.088,4.496
		c-11.616-5.128-19.984-15.416-22.784-27.6C221.256,341.416,234.32,344,248,344s26.744-2.584,38.872-7.096
		C284.072,349.088,275.712,359.368,264.088,364.496z M248,424c5.424,0,10.464-1.488,14.944-3.88
		c-2.08,11.824-7.184,22.856-14.944,32.16c-7.76-9.296-12.872-20.328-14.944-32.16C237.536,422.512,242.576,424,248,424z
		 M279.944,392.544c0.008-0.184,0.056-0.36,0.056-0.544c0-5.648-1.592-10.88-4.176-15.488c16.888-9.712,27.784-27.712,28.104-47.624
		c5.68-3.296,11.072-7.016,16.072-11.224V328C320,355.856,304.28,380.576,279.944,392.544z M362.096,249.416
		c10.088,3.112,18.064,11.088,21.168,21.168C373.176,267.48,365.2,259.504,362.096,249.416z M134.584,249.416
		c-3.112,10.088-11.088,18.064-21.168,21.168C116.52,260.496,124.496,252.52,134.584,249.416z M142.328,268.776
		c4.112,11.776,10.104,22.656,17.672,32.28V328c0,4.712,0.384,9.352,1.096,13.888l-10.4,1.6c-15.832,2.432-30.56,8.752-43.136,17.96
		l11.688-75.976C128.544,282.352,136.552,276.456,142.328,268.776z M429.12,480H303.16c7.696-5.152,15.144-10.896,22.232-17.352
		l-10.776-11.832c-13.648,12.432-28.6,22.208-44.424,29.176H66.88l7.504-24h57.592l2.016-16h-54.6l7.384-23.624
		c9.336-29.896,35.392-52.304,66.36-57.072l11.944-1.84c8.384,23.776,26.728,43.112,51.024,52.528
		c0.504,22.024,9.24,42.664,24.864,58.28l7.032,7.064l7.024-7.048c15.632-15.624,24.368-36.264,24.872-58.288
		c24.304-9.408,42.648-28.744,51.032-52.528l11.944,1.84c8.272,1.272,16.152,3.888,23.496,7.48
		c-6.168,25.76-21.232,52.592-42.328,74.792l11.6,11.016c21.576-22.696,37.4-50.048,44.92-76.872
		c13.256,10.216,23.536,24.232,28.664,40.648L429.12,480z M402.816,224.024c-7.632,6.664-18.232,9.376-28.272,7.272
		C382.168,224.632,392.752,221.896,402.816,224.024z M383.264,193.416c-3.112,10.088-11.088,18.064-21.168,21.168
		C365.2,204.496,373.176,196.52,383.264,193.416z M320,152c10.416,0,19.216,6.712,22.528,16h-55.896
		c-2.696,0-5.336,0.328-7.968,0.656c0.784-2.768,1.336-5.632,1.336-8.656c0-2.688-0.272-5.336-0.4-8H320z M243.96,101.736
		l4.04-9.424l4.04,9.432C259.976,120.256,264,139.856,264,160c0,8.824-7.176,16-16,16s-16-7.176-16-16
		C232,139.856,236.024,120.256,243.96,101.736z M216.4,152c-0.128,2.664-0.4,5.312-0.4,8c0,3.024,0.552,5.888,1.344,8.656
		c-2.64-0.328-5.272-0.656-7.976-0.656h-55.896c3.312-9.288,12.112-16,22.528-16H216.4z M134.584,214.584
		c-10.088-3.112-18.064-11.088-21.168-21.168C123.504,196.52,131.48,204.496,134.584,214.584z M122.136,231.296
		c-10.064,2.128-20.64-0.608-28.272-7.272C103.936,221.896,114.504,224.624,122.136,231.296z"/>
	<rect x="232" y="288" style="fill:#333333;" width="32" height="16"/>
	<rect x="240" y="144" style="fill:#333333;" width="16" height="16"/>
	<path style="fill:#333333;" d="M296,264c17.648,0,32-14.352,32-32v-8h-16v8c0,8.824-7.176,16-16,16s-16-7.176-16-16v-8h-16v8
		C264,249.648,278.352,264,296,264z"/>
	<path style="fill:#333333;" d="M200,264c17.648,0,32-14.352,32-32v-8h-16v8c0,8.824-7.176,16-16,16s-16-7.176-16-16v-8h-16v8
		C168,249.648,182.352,264,200,264z"/>
</g>
<g>
</g>
<g>
</g>
<g>
</g>
<g>
</g>
<g>
</g>
<g>
</g>
<g>
</g>
<g>
</g>
<g>
</g>
<g>
</g>
<g>
</g>
<g>
</g>
<g>
</g>
<g>
</g>
<g>
</g>
</svg>
