<?xml version="1.0" encoding="iso-8859-1"?>
<svg version="1.1" id="Layer_1" xmlns="http://www.w3.org/2000/svg" xmlns:xlink="http://www.w3.org/1999/xlink" x="0px" y="0px"
	 viewBox="0 0 512 512" style="enable-background:new 0 0 512 512;">
<path style="fill:#FD5D65;" d="M503.562,197.018c0,60.118-38.327,119.507-91.646,170.712c-27.299,26.236-58.541,50.31-90.571,71.241
	c-10.597,6.929-21.266,13.501-31.923,19.689c-11.218,6.523-22.401,12.615-33.429,18.255c-11.028-5.628-22.21-11.721-33.429-18.244
	c-7.646-4.456-15.316-9.092-22.95-13.93c-14.826-9.378-29.545-19.462-43.834-30.119c-7.981-5.937-15.829-12.055-23.488-18.351
	c-11.194-9.175-21.982-18.697-32.221-28.541C46.74,316.536,8.438,257.123,8.438,197.018c0-89.437,61.587-161.931,137.535-161.931
	c60.763,0,110.022,58.003,110.022,129.542c0-71.539,49.27-129.542,110.021-129.542c44.408,0,83.857,24.743,108.993,63.177
	C492.953,125.61,503.562,159.85,503.562,197.018z"/>
<path style="fill:#415E72;" d="M222.566,332.224v126.447c-22.509-13.082-45.136-27.897-66.785-44.049
	c-7.981-5.937-15.829-12.055-23.488-18.351c-11.194-9.175-21.982-18.697-32.221-28.541v-35.506
	c0-20.489,12.593-38.028,30.453-45.328h61.587C209.973,294.195,222.566,311.733,222.566,332.224z"/>
<path style="fill:#72CDED;" d="M411.912,302.891v64.836c-27.294,26.236-58.536,50.312-90.566,71.238
	c-10.598,6.93-21.263,13.501-31.929,19.7V302.891c0-17.393,9.079-32.66,22.76-41.345c2.43-1.553,5.006-2.88,7.695-3.983h61.585
	c2.689,1.103,5.265,2.43,7.695,3.971C402.833,270.22,411.912,285.487,411.912,302.891z"/>
<rect x="346.323" y="268.797" style="fill:#67C2DB;" width="7.875" height="154.165"/>
<path style="fill:#FEC95B;" d="M321.346,396.27v42.696c-21.736,14.209-43.843,26.956-65.354,37.948
	c-11.025-5.625-22.208-11.723-33.425-18.237c-7.65-4.466-15.312-9.102-22.951-13.939V396.27c1.71-13.849,9.237-25.91,20.048-33.661
	c3.094-2.239,6.458-4.106,10.024-5.569h61.585c3.566,1.463,6.93,3.33,10.024,5.569C312.109,370.361,319.625,382.421,321.346,396.27z
	"/>
<path style="fill:#E2AD50;" d="M239.067,458.671c-7.646-4.456-15.316-9.091-22.95-13.93v-48.47
	c2.21-17.825,14.014-32.675,30.07-39.234h-16.501c-16.057,6.559-27.861,21.409-30.071,39.234v48.47
	c7.633,4.839,15.304,9.474,22.95,13.93c11.218,6.523,22.401,12.616,33.429,18.243c2.738-1.4,5.488-2.829,8.244-4.285
	C255.901,468.229,247.494,463.572,239.067,458.671z"/>
<path style="fill:#67C2DB;" d="M389.153,261.535l-20.543,14.941c-10.699,7.774-25.19,7.774-35.889,0l-20.543-14.929
	c2.43-1.553,5.006-2.88,7.695-3.983h61.585C384.146,258.666,386.723,259.993,389.153,261.535z"/>
<g>
	<path style="fill:#F7CBA4;" d="M332.726,266.908l-20.892-15.179c-12.081-8.776-18.525-23.358-16.885-38.2l2.689-24.32
		c2.988-27.033,25.832-47.489,53.029-47.489l0,0c27.197,0,50.041,20.458,53.029,47.489l2.689,24.32
		c1.64,14.842-4.804,29.423-16.885,38.2l-20.892,15.179C357.909,274.681,343.424,274.681,332.726,266.908z"/>
	<path style="fill:#F7CBA4;" d="M222.567,332.221H100.072c0-16.887,8.55-31.76,21.556-40.558c2.779-1.879,5.76-3.488,8.899-4.77
		h61.585c3.139,1.283,6.12,2.891,8.899,4.77C214.017,300.461,222.567,315.334,222.567,332.221z"/>
</g>
<path style="fill:#E2AD50;" d="M301.298,362.609c-0.641,0.529-1.305,1.035-1.98,1.53l-20.892,15.177
	c-10.699,7.774-25.19,7.774-35.889,0l-20.892-15.177c-0.675-0.495-1.339-1.001-1.98-1.53c3.094-2.239,6.458-4.106,10.024-5.569
	h61.585C294.84,358.502,298.204,360.37,301.298,362.609z"/>
<path style="fill:#F7CBA4;" d="M299.318,351.201l-20.892,15.177c-10.699,7.774-25.19,7.774-35.889,0l-20.892-15.177
	c-12.072-8.787-18.518-23.367-16.887-38.207l2.689-24.324c0.158-1.451,0.371-2.869,0.641-4.275c0.326-1.699,0.743-3.364,1.226-4.995
	c2.036-6.885,5.4-13.174,9.799-18.563c9.529-11.667,23.817-19.148,39.737-19.632h0.079c0.169-0.011,0.338-0.011,0.495-0.011
	c0.36-0.011,0.698-0.011,1.058-0.011c0.484,0,0.956,0.011,1.44,0.023c0.371,0,0.743,0.011,1.114,0.034
	c12.601,0.608,24.144,5.603,33.043,13.557c2.07,1.856,4.005,3.881,5.76,6.041c4.399,5.389,7.763,11.678,9.799,18.563
	c0.484,1.631,0.9,3.296,1.226,4.995c0.27,1.406,0.484,2.824,0.641,4.275l2.689,24.324
	C317.836,327.834,311.389,342.414,299.318,351.201z"/>
<g>
	<path style="fill:#E0B394;" d="M350.638,272.74c-6.289-0.011-12.578-1.958-17.911-5.828l-20.892-15.188
		c-12.083-8.775-18.53-23.356-16.887-38.195l2.689-24.324c2.948-26.731,25.336-47.049,52.146-47.477
		c-18.473,0.63-33.864,20.881-35.9,47.477l-1.868,24.324c-1.136,14.839,3.33,29.42,11.712,38.195l14.491,15.188
		C341.919,270.783,346.284,272.729,350.638,272.74z"/>
	<path style="fill:#E0B394;" d="M260.452,372.207c-6.289-0.011-12.578-1.958-17.911-5.828l-20.892-15.188
		c-12.083-8.775-18.53-23.356-16.887-38.195l2.689-24.324c2.948-26.731,25.336-47.049,52.146-47.477
		c-18.473,0.63-33.864,20.881-35.9,47.477l-1.868,24.324c-1.136,14.839,3.33,29.42,11.712,38.195l14.491,15.188
		C251.733,370.249,256.099,372.195,260.452,372.207z"/>
</g>
<path style="fill:#415E72;" d="M403.162,185.564c-36.643,4.489-81.543-13.399-96.855-20.138c9.619-14.378,26-23.705,44.361-23.705
	c13.602,0,26.112,5.119,35.585,13.602C394.881,163.04,401.002,173.56,403.162,185.564z"/>
<path style="fill:#375160;" d="M333.06,175.629c0,0-15.436,23.727-36.542,23.727l1.125-10.148
	c0.968-8.787,4.039-16.876,8.663-23.784C311.898,167.89,321.427,171.828,333.06,175.629z"/>
<path style="fill:#E0B394;" d="M201.011,291.663c-0.281,0.214-0.563,0.428-0.855,0.641l-20.892,15.188
	c-10.699,7.763-25.19,7.763-35.889,0l-20.892-15.188c-0.293-0.214-0.574-0.428-0.855-0.641c2.779-1.879,5.76-3.488,8.899-4.77
	h61.585C195.251,288.176,198.232,289.785,201.011,291.663z"/>
<path style="fill:#F7CBA4;" d="M143.378,296.238l-20.892-15.179c-12.081-8.776-18.525-23.358-16.885-38.2l2.689-24.32
	c2.988-27.033,25.832-47.489,53.029-47.489l0,0c27.197,0,50.041,20.458,53.029,47.489l2.689,24.32
	c1.64,14.842-4.804,29.423-16.885,38.2l-20.892,15.179C168.562,304.01,154.076,304.01,143.378,296.238z"/>
<path style="fill:#E0B394;" d="M161.291,302.07c-6.289-0.011-12.578-1.958-17.911-5.828l-20.892-15.188
	c-12.083-8.775-18.53-23.356-16.887-38.195l2.689-24.324c2.948-26.731,25.336-47.049,52.146-47.477
	c-18.473,0.63-33.864,20.881-35.9,47.477l-1.868,24.324c-1.136,14.839,3.33,29.42,11.712,38.195l14.491,15.188
	C152.572,300.113,156.937,302.059,161.291,302.07z"/>
<path style="fill:#9E5A39;" d="M161.319,171.048c0,0-5.902,47.489-53.021,47.489C111.285,191.514,134.128,171.048,161.319,171.048z"
	/>
<path style="fill:#AD653D;" d="M214.353,218.538c-47.119,0-53.034-47.489-53.034-47.489c13.596,0,26.116,5.113,35.602,13.607
	C206.408,193.151,212.859,205.026,214.353,218.538z"/>
<g>
	<path style="fill:#4D4D4D;" d="M136.828,251.302c-3.417,0-6.188-2.77-6.188-6.188v-5.625c0-3.418,2.771-6.188,6.188-6.188
		c3.417,0,6.188,2.77,6.188,6.188v5.625C143.016,248.531,140.245,251.302,136.828,251.302z"/>
	<path style="fill:#4D4D4D;" d="M185.811,251.302c-3.417,0-6.188-2.77-6.188-6.188v-5.625c0-3.418,2.771-6.188,6.188-6.188
		c3.417,0,6.188,2.77,6.188,6.188v5.625C191.998,248.531,189.227,251.302,185.811,251.302z"/>
	<path style="fill:#4D4D4D;" d="M235.985,322.681c-3.417,0-6.188-2.77-6.188-6.188v-5.625c0-3.418,2.771-6.188,6.188-6.188
		c3.417,0,6.188,2.77,6.188,6.188v5.625C242.173,319.91,239.402,322.681,235.985,322.681z"/>
	<path style="fill:#4D4D4D;" d="M284.968,322.681c-3.417,0-6.188-2.77-6.188-6.188v-5.625c0-3.418,2.771-6.188,6.188-6.188
		c3.417,0,6.188,2.77,6.188,6.188v5.625C291.155,319.91,288.384,322.681,284.968,322.681z"/>
</g>
<path style="fill:#E0B394;" d="M312.863,284.396c-6.435-0.349-12.544-1.89-18.147-4.376c-9.124,8.055-21.106,12.949-34.235,12.949
	s-25.1-4.894-34.246-12.949c-1.744,0.776-3.533,1.451-5.378,2.048c-4.05,1.283-8.337,2.093-12.769,2.329
	c0.326-1.699,0.743-3.364,1.226-4.995c2.036-6.885,5.4-13.174,9.799-18.563c9.529-11.667,23.817-19.148,39.737-19.632h0.079
	c0.169-0.011,0.338-0.011,0.495-0.011c0.36-0.011,0.698-0.011,1.058-0.011c0.484,0,0.956,0.011,1.44,0.023
	c0.371,0,0.743,0.011,1.114,0.034c12.601,0.608,24.144,5.603,33.043,13.557c2.07,1.856,4.005,3.881,5.76,6.041
	c4.399,5.389,7.763,11.678,9.799,18.563C312.121,281.032,312.537,282.697,312.863,284.396z"/>
<path style="fill:#415E72;" d="M311.637,279.4c-0.765,0.045-1.53,0.068-2.295,0.068c-6.627,0-12.904-1.418-18.597-3.949
	c-8.067,7.122-18.653,11.453-30.264,11.453c-11.61,0-22.197-4.331-30.275-11.453c-1.541,0.686-3.128,1.283-4.759,1.811
	c-4.354,1.384-9.012,2.138-13.838,2.138c-0.765,0-1.53-0.022-2.295-0.068c2.036-6.885,5.4-13.174,9.799-18.563
	c9.529-11.678,23.851-19.171,39.793-19.632c0.214-0.011,0.428-0.011,0.641-0.011c0.315-0.011,0.619-0.011,0.934-0.011
	c13.591,0,26.101,5.119,35.596,13.613c2.07,1.856,4.005,3.881,5.76,6.041C306.237,266.226,309.601,272.515,311.637,279.4z"/>
<path style="fill:#375160;" d="M259.547,241.194c-15.717,0.563-29.206,15.346-34.1,36.137c-4.354,1.384-9.012,2.138-13.838,2.138
	c-0.765,0-1.53-0.022-2.295-0.068c2.036-6.885,5.4-13.174,9.799-18.563c9.529-11.678,23.851-19.171,39.793-19.632
	C259.12,241.194,259.333,241.194,259.547,241.194z"/>
<path style="fill:#E54E5C;" d="M255.993,485.353c-1.315,0-2.632-0.307-3.835-0.923c-11.276-5.755-22.66-11.967-33.834-18.465
	c-8.109-4.725-15.921-9.467-23.227-14.098c-15.255-9.65-30.182-19.907-44.362-30.482c-8.262-6.147-16.274-12.406-23.803-18.597
	c-11.569-9.482-22.577-19.234-32.71-28.977C32.584,314.644,0,253.507,0,197.017C0,103.075,65.483,26.647,145.973,26.647
	c49.809,0,92.539,35.997,110.021,86.828c17.482-50.832,60.211-86.828,110.022-86.828c45.909,0,88.208,24.419,116.054,66.995
	C501.647,123.479,512,159.229,512,197.015c0,56.456-32.588,117.591-94.24,176.799c-26.381,25.353-57.267,49.652-91.8,72.218
	c-10.566,6.909-21.434,13.612-32.301,19.922c-11.115,6.462-22.496,12.678-33.823,18.47
	C258.629,485.044,257.311,485.353,255.993,485.353z M145.973,43.524c-71.184,0-129.097,68.856-129.097,153.492
	c0,36.111,15.447,93.984,89.04,164.626c9.818,9.44,20.49,18.893,31.726,28.103c7.331,6.027,15.124,12.117,23.176,18.108
	c13.844,10.323,28.412,20.334,43.31,29.758c7.135,4.523,14.765,9.155,22.688,13.771c9.634,5.603,19.432,10.991,29.176,16.043
	c9.787-5.084,19.588-10.476,29.19-16.059c10.615-6.164,21.226-12.71,31.546-19.457c33.657-21.994,63.715-45.633,89.341-70.263
	c73.606-70.687,89.055-128.541,89.055-164.629c0-34.489-9.396-67.037-27.17-94.126c-24.679-37.733-61.831-59.368-101.938-59.368
	c-56.014,0-101.584,54.327-101.584,121.105c0,4.66-3.777,8.438-8.438,8.438s-8.438-3.778-8.438-8.438
	C247.555,97.852,201.985,43.524,145.973,43.524z"/>
<g>
	<path style="fill:#FFFFFF;" d="M147.256,263.616c0,7.767,6.296,14.063,14.063,14.063s14.063-6.296,14.063-14.063"/>
	<path style="fill:#FFFFFF;" d="M246.413,337.869c0,7.767,6.296,14.063,14.063,14.063c7.767,0,14.063-6.296,14.063-14.063"/>
</g>
<g>
	<path style="fill:#4D4D4D;" d="M326.175,220.302c-3.417,0-6.188-2.77-6.188-6.188v-5.625c0-3.418,2.771-6.188,6.188-6.188
		s6.188,2.77,6.188,6.188v5.625C332.363,217.531,329.593,220.302,326.175,220.302z"/>
	<path style="fill:#4D4D4D;" d="M375.158,220.302c-3.417,0-6.188-2.77-6.188-6.188v-5.625c0-3.418,2.771-6.188,6.188-6.188
		s6.188,2.77,6.188,6.188v5.625C381.346,217.531,378.575,220.302,375.158,220.302z"/>
</g>
<path style="fill:#FFFFFF;" d="M336.603,235.49c0,7.767,6.296,14.063,14.063,14.063c7.767,0,14.063-6.296,14.063-14.063"/>
<g>
</g>
<g>
</g>
<g>
</g>
<g>
</g>
<g>
</g>
<g>
</g>
<g>
</g>
<g>
</g>
<g>
</g>
<g>
</g>
<g>
</g>
<g>
</g>
<g>
</g>
<g>
</g>
<g>
</g>
</svg>
