<?xml version="1.0" encoding="iso-8859-1"?>
<svg version="1.1" id="Capa_1" xmlns="http://www.w3.org/2000/svg" xmlns:xlink="http://www.w3.org/1999/xlink" x="0px" y="0px"
	 viewBox="0 0 512 512" style="enable-background:new 0 0 512 512;">
<polygon style="fill:#F4633B;" points="440.13,504.395 90.369,504.395 125.884,206.999 256.003,128.881 358.008,190.128
	386.112,206.999 426.443,429.045 "/>
<polygon style="fill:#E25333;" points="426.443,429.045 426.443,504.395 358.008,504.395 358.008,190.128 386.112,206.999 "/>
<path style="fill:#E0501E;" d="M66.746,61.969L66.746,61.969c-32.663,0-59.142,26.478-59.142,59.141v383.286h118.282V121.11
	C125.886,88.447,99.408,61.969,66.746,61.969z"/>
<path style="fill:#C43914;" d="M83.473,64.384c-5.306-1.562-10.916-2.415-16.728-2.415l0,0c-32.663,0-59.142,26.478-59.142,59.141
	v383.286h33.455V121.11C41.06,94.26,58.96,71.602,83.473,64.384z"/>
<rect x="7.604" y="283.993" style="fill:#E9E8EA;" width="118.287" height="220.403"/>
<rect x="7.604" y="283.993" style="fill:#CECECE;" width="33.455" height="220.403"/>
<polyline style="fill:#F4EEFC;" points="125.886,121.11 7.604,121.11 7.604,153.212 125.886,153.212 "/>
<polyline style="fill:#CECECE;" points="41.06,121.11 7.604,121.11 7.604,153.212 41.06,153.212 "/>
<path style="fill:#E0501E;" d="M445.255,61.969L445.255,61.969c-32.663,0-59.142,26.478-59.142,59.141v383.286h118.282V121.11
	C504.396,88.447,477.918,61.969,445.255,61.969z"/>
<path style="fill:#C43914;" d="M461.983,64.384c-5.306-1.562-10.916-2.415-16.728-2.415l0,0c-32.663,0-59.141,26.478-59.141,59.141
	v383.286h33.455V121.11C419.57,94.26,437.47,71.602,461.983,64.384z"/>
<rect x="386.109" y="283.993" style="fill:#E9E8EA;" width="118.287" height="220.403"/>
<rect x="386.109" y="283.993" style="fill:#CECECE;" width="33.455" height="220.403"/>
<polyline style="fill:#F4EEFC;" points="504.396,121.11 386.114,121.11 386.114,153.212 504.396,153.212 "/>
<polyline style="fill:#CECECE;" points="419.57,121.11 386.114,121.11 386.114,153.212 419.57,153.212 "/>
<g>
	<path style="fill:#323641;" d="M212.786,368.217L212.786,368.217c-14.687,0-26.593,11.906-26.593,26.593v109.586h53.186V394.811
		C239.38,380.124,227.474,368.217,212.786,368.217z"/>
	<path style="fill:#323641;" d="M299.214,368.217L299.214,368.217c-14.687,0-26.593,11.906-26.593,26.593v109.586h53.186V394.811
		C325.807,380.124,313.901,368.217,299.214,368.217z"/>
	<path style="fill:#323641;" d="M77.316,186.668L77.316,186.668c-13.438,0-24.332,10.894-24.332,24.332v72.994h48.663V211
		C101.648,197.561,90.754,186.668,77.316,186.668z"/>
	<path style="fill:#323641;" d="M77.316,343.302L77.316,343.302c-13.438,0-24.332,10.894-24.332,24.332v72.994h48.663v-72.994
		C101.648,354.196,90.754,343.302,77.316,343.302z"/>
	<path style="fill:#323641;" d="M434.684,186.668L434.684,186.668c-13.438,0-24.332,10.894-24.332,24.332v72.994h48.663V211
		C459.016,197.561,448.123,186.668,434.684,186.668z"/>
	<path style="fill:#323641;" d="M434.684,343.302L434.684,343.302c-13.438,0-24.332,10.894-24.332,24.332v72.994h48.663v-72.994
		C459.016,354.196,448.123,343.302,434.684,343.302z"/>
</g>
<path d="M452.858,54.811V7.604c0-4.199-3.405-7.604-7.604-7.604c-4.199,0-7.604,3.405-7.604,7.604v47.207
	c-33.233,3.788-59.141,32.068-59.141,66.299v72.454l-114.906-68.988V52.844c0-4.199-3.405-7.604-7.604-7.604
	c-4.199,0-7.604,3.405-7.604,7.604v71.732L133.49,193.562V121.11c0-34.231-25.907-62.511-59.141-66.299V7.604
	C74.35,3.405,70.945,0,66.746,0c-4.199,0-7.604,3.405-7.604,7.604v47.207C25.907,58.599,0,86.879,0,121.11v383.286
	C0,508.595,3.405,512,7.604,512h118.282h60.308h53.186h33.241h53.186h60.308h118.281c4.199,0,7.604-3.405,7.604-7.604V121.11
	C512,86.879,486.093,58.599,452.858,54.811z M445.255,69.573c25.834,0,47.284,19.108,50.972,43.934H394.284
	C397.971,88.681,419.421,69.573,445.255,69.573z M451.412,276.39h-33.455V211c0-9.223,7.504-16.728,16.728-16.728
	c9.224,0,16.728,7.504,16.728,16.728V276.39z M434.684,179.064c-17.609,0-31.936,14.326-31.936,31.936v65.39h-9.03v-69.392v-46.181
	h103.074V276.39H466.62V211C466.62,193.39,452.294,179.064,434.684,179.064z M393.718,145.608v-16.894h103.074v16.894H393.718z
	 M94.044,276.39H60.588V211c0-9.223,7.504-16.728,16.728-16.728c9.223,0,16.728,7.504,16.728,16.728V276.39z M77.316,179.064
	L77.316,179.064c-17.61,0-31.936,14.326-31.936,31.936v65.39H15.208V160.816h103.074v46.181v69.392h-9.03v-65.39
	C109.252,193.39,94.925,179.064,77.316,179.064z M66.746,69.573c25.834,0,47.284,19.108,50.972,43.934h-14.298
	c-4.199,0-7.604,3.405-7.604,7.604l0,0c0,4.199,3.405,7.604,7.604,7.604h14.863v16.894H15.208v-16.894h52.725
	c4.199,0,7.604-3.405,7.604-7.604l0,0c0-4.199-3.405-7.604-7.604-7.604h-52.16C19.461,88.681,40.911,69.573,66.746,69.573z
	 M15.208,291.598h37.776h48.663h16.634v205.194H15.208V291.598z M193.798,496.792V394.811c0-10.47,8.518-18.989,18.989-18.989
	s18.989,8.518,18.989,18.989v101.981H193.798z M280.225,496.792V395.277c0-10.284,7.981-19.053,18.257-19.442
	c10.803-0.409,19.722,8.262,19.722,18.975v11.005c0,4.199,3.405,7.604,7.604,7.604l0,0c4.199,0,7.604-3.405,7.604-7.604v-10.324
	c0-19.134-15.658-35.199-34.789-34.873c-18.585,0.316-33.605,15.533-33.605,34.192v101.98h-18.034v-101.3
	c0-19.134-15.658-35.199-34.789-34.873c-18.585,0.316-33.605,15.533-33.605,34.192v101.98h-45.1v-285.49L256,137.749l122.51,73.552
	v285.491h-45.1v-55.49c0-4.199-3.405-7.604-7.604-7.604l0,0c-4.199,0-7.604,3.405-7.604,7.604v55.49H280.225z M393.718,496.792
	V291.598h16.634h48.663h37.776v205.194H393.718z"/>
<path d="M77.316,335.698L77.316,335.698c-17.61,0-31.936,14.326-31.936,31.936v72.995c0,4.199,3.405,7.604,7.604,7.604h48.663
	c4.199,0,7.604-3.405,7.604-7.604v-72.995C109.252,350.023,94.925,335.698,77.316,335.698z M94.044,433.023H60.588v-65.391
	c0-9.223,7.504-16.728,16.728-16.728c9.223,0,16.728,7.504,16.728,16.728V433.023z"/>
<path d="M434.684,335.698c-17.609,0-31.936,14.326-31.936,31.936v72.995c0,4.199,3.405,7.604,7.604,7.604h48.663
	c4.199,0,7.604-3.405,7.604-7.604v-72.995C466.62,350.023,452.294,335.698,434.684,335.698z M451.412,433.023h-33.455v-65.391
	c0-9.223,7.504-16.728,16.728-16.728c9.224,0,16.728,7.504,16.728,16.728V433.023z"/>
<path d="M332.1,219.096c-1.359-2.353-3.868-3.802-6.585-3.802h-41.954l-20.977-36.332c-1.359-2.353-3.868-3.802-6.585-3.802
	c-2.717,0-5.226,1.449-6.585,3.802l-20.977,36.332h-41.953c-2.717,0-5.226,1.449-6.585,3.802c-1.359,2.353-1.359,5.251,0,7.604
	l20.977,36.333l-20.977,36.333c-1.359,2.353-1.359,5.251,0,7.604c1.359,2.353,3.868,3.802,6.585,3.802h41.953l20.977,36.332
	c1.359,2.353,3.868,3.802,6.585,3.802c2.717,0,5.226-1.449,6.585-3.802l20.977-36.332h41.954c2.717,0,5.226-1.449,6.585-3.802
	c1.359-2.353,1.359-5.251,0-7.604l-20.977-36.333L332.1,226.7C333.458,224.348,333.458,221.45,332.1,219.096z M256,197.973
	l10.001,17.322h-20.002L256,197.973z M274.782,230.502l18.782,32.531l-18.782,32.531h-37.563l-18.782-32.531l18.782-32.531
	L274.782,230.502L274.782,230.502z M199.656,230.502h20.002l-10.001,17.323L199.656,230.502z M199.656,295.563l10.001-17.323
	l10.001,17.323H199.656z M256,328.094l-10.001-17.322h20.002L256,328.094z M312.344,295.563h-20.003l10.002-17.323L312.344,295.563z
	 M302.344,247.825l-10.002-17.323h20.003L302.344,247.825z"/>
</svg>
