<?xml version="1.0" encoding="iso-8859-1"?>
<svg version="1.1" id="Layer_1" xmlns="http://www.w3.org/2000/svg" xmlns:xlink="http://www.w3.org/1999/xlink" x="0px" y="0px"
	 viewBox="0 0 512 512" style="enable-background:new 0 0 512 512;">
<path style="fill:#2F8AC1;" d="M443.981,181.403v277.353c0,13.212-9.06,23.921-20.234,23.921H84.445
	c-11.176,0-20.234-10.71-20.234-23.921V342.249v-71.355v-92.129L443.981,181.403z"/>
<path style="opacity:0.2;enable-background:new    ;" d="M399.215,180.993v230.955c0,13.216-9.06,23.93-20.235,23.93H64.21v22.872
	c0,13.216,9.06,23.93,20.234,23.93h339.301c11.176,0,20.234-10.714,20.234-23.93V181.303L399.215,180.993z"/>
<rect x="64.21" y="277.769" style="fill:#F2F2F2;" width="379.772" height="92.448"/>
<path style="fill:#285493;" d="M138.622,140.335H82.686c-14.956,0-27.08,12.124-27.08,27.08V191.5h0.256
	c0,18.259,14.802,33.061,33.061,33.061s33.061-14.802,33.061-33.061c0,18.259,14.802,33.061,33.061,33.061
	s33.061-14.802,33.061-33.061l0,0c0.009,18.251,14.806,33.044,33.06,33.044c18.253,0,33.051-14.793,33.06-33.044h0.001
	c0.009,18.251,14.806,33.044,33.06,33.044c18.253,0,33.051-14.793,33.06-33.044h0.001c0.009,18.251,14.806,33.044,33.06,33.044
	c18.253,0,33.051-14.793,33.06-33.044h0.001c0.009,18.251,14.806,33.044,33.06,33.044s33.051-14.793,33.061-33.044l0,0v-24.085
	c0-14.956-12.124-27.08-27.08-27.08H210.053C210.053,140.335,138.622,140.335,138.622,140.335z"/>
<path style="fill:#DF2318;" d="M450.349,512H61.65c-15.616,0-28.275-12.659-28.275-28.275v-14.165h445.25v14.165
	C478.624,499.341,465.965,512,450.349,512z"/>
<path style="opacity:0.2;enable-background:new    ;" d="M457.72,469.559c-2.781,12.694-14.084,22.197-27.613,22.197h-388.7
	c-2.461,0-4.85-0.316-7.125-0.907c3.159,12.166,14.214,21.149,27.368,21.149h388.7c15.616,0,28.275-12.659,28.275-28.275v-14.165
	H457.72z"/>
<g>
	<path style="fill:#DF2318;" d="M233.019,102.279h-42.914c-4.47,0-7.868-3.04-7.868-8.226c0-1.43,0.358-3.039,1.252-4.649
		l42.377-83.324C228.013,1.609,231.948,0,235.701,0c4.113,0,11.623,3.576,11.623,8.94c0,0.894-0.358,1.967-0.894,3.04L212.1,80.643
		h20.919V61.868c0-5.186,5.901-7.331,11.623-7.331c5.9,0,11.622,2.146,11.622,7.331v18.775h8.404c4.828,0,7.332,5.364,7.332,10.907
		c0,5.364-3.576,10.728-7.332,10.728h-8.404v30.726c0,4.828-5.722,7.331-11.622,7.331c-5.722,0-11.623-2.503-11.623-7.331V102.279z"
		/>
	<path style="fill:#DF2318;" d="M285.629,44.996c0,2.947,1.058,4.005,4.23,4.005h2.947c2.795,0,4.155,2.039,4.155,4.079
		c0,2.115-1.361,4.155-4.155,4.155h-2.947c-9.065,0-13.977-3.702-13.977-12.239V8.354c0-1.814,2.569-3.022,4.835-3.022
		c2.493,0,4.911,1.209,4.911,3.022v12.994h8.914c1.586,0,2.493,1.814,2.493,3.55c0,1.814-0.907,3.552-2.493,3.552h-8.914v16.547
		H285.629z"/>
	<path style="fill:#DF2318;" d="M311.995,54.139c0,1.511-2.267,3.097-4.91,3.097c-2.872,0-4.835-1.586-4.835-3.097V3.443
		c0-1.814,1.964-3.022,4.835-3.022c2.644,0,4.91,1.209,4.91,3.022v23.194c1.361-2.947,4.76-5.742,9.519-5.742
		c6.95,0,12.994,6.951,12.994,15.337v17.905c0,2.04-2.492,3.097-4.91,3.097c-2.267,0-4.835-1.058-4.835-3.097V36.233
		c0-3.4-3.022-6.799-6.573-6.799c-3.097,0-6.196,2.569-6.196,6.799V54.139z"/>
</g>
</svg>
