<?xml version="1.0" encoding="iso-8859-1"?>
<svg version="1.1" id="Layer_1" xmlns="http://www.w3.org/2000/svg" xmlns:xlink="http://www.w3.org/1999/xlink" x="0px" y="0px"
	 viewBox="0 0 512 512" style="enable-background:new 0 0 512 512;">
<path style="fill:#FF6342;" d="M498.642,68.29h-40.468v0.001h-33.281V68.29h-32.148v0.001h-33.282V68.29H152.538v0.001h-33.281
	V68.29H87.108v0.001H53.826V68.29H13.357C5.98,68.29,0,74.27,0,81.646v0.001v34.872v0.001v347.249v0.001v34.873v0.001
	C0,506.02,5.98,512,13.357,512h40.468v-0.001h33.282V512h32.148v-0.001h33.281V512h206.925v-0.001h33.282V512h32.148v-0.001h33.281
	V512h40.47c7.376,0,13.357-5.98,13.357-13.357v-0.001v-34.872v-0.001v-11.638v-27.826V155.985v-27.826v-11.638v-0.001V81.648v-0.001
	C511.999,74.271,506.019,68.29,498.642,68.29z"/>
<path style="fill:#FC7963;" d="M498.642,68.29h-40.468v0.001h-33.281V68.29h-32.148v0.001h-33.282V68.29h-95.143
	c-11.615,29.358-17.999,61.353-17.999,94.841c0,142.451,115.485,257.935,257.941,257.935c2.589,0,5.168-0.05,7.738-0.125V155.985
	v-27.826v-11.638v-0.001V81.648v-0.001C511.999,74.271,506.019,68.29,498.642,68.29z"/>
<g>
	<path style="fill:#FFA42C;" d="M87.108,116.685c0,9.19-7.451,16.641-16.641,16.641l0,0c-9.19,0-16.641-7.451-16.641-16.641V16.641
		C53.826,7.451,61.276,0,70.467,0l0,0c9.19,0,16.641,7.451,16.641,16.641V116.685z"/>
	<path style="fill:#FFA42C;" d="M152.537,116.685c0,9.19-7.45,16.641-16.64,16.641l0,0c-9.191,0-16.641-7.451-16.641-16.641V16.641
		c0-9.19,7.45-16.641,16.641-16.641l0,0c9.19,0,16.64,7.451,16.64,16.641V116.685z"/>
	<path style="fill:#FFA42C;" d="M392.745,116.685c0,9.19-7.451,16.641-16.641,16.641l0,0c-9.19,0-16.641-7.451-16.641-16.641V16.641
		c0-9.19,7.451-16.641,16.641-16.641l0,0c9.19,0,16.641,7.451,16.641,16.641V116.685z"/>
	<path style="fill:#FFA42C;" d="M458.174,116.685c0,9.19-7.45,16.641-16.64,16.641l0,0c-9.191,0-16.641-7.451-16.641-16.641V16.641
		c0-9.19,7.45-16.641,16.641-16.641l0,0c9.19,0,16.64,7.451,16.64,16.641V116.685z"/>
</g>
<g>
	<path style="fill:#FF822E;" d="M70.467,116.685V16.641c0-6.155,3.352-11.518,8.32-14.397C76.339,0.826,73.502,0,70.467,0
		c-9.19,0-16.641,7.451-16.641,16.641v100.043c0,9.19,7.451,16.641,16.641,16.641c3.034,0,5.871-0.826,8.32-2.245
		C73.819,128.202,70.467,122.84,70.467,116.685z"/>
	<path style="fill:#FF822E;" d="M135.897,116.685V16.641c0-6.155,3.351-11.518,8.32-14.397C141.767,0.826,138.932,0,135.897,0
		c-9.191,0-16.641,7.451-16.641,16.641v100.043c0,9.19,7.45,16.641,16.641,16.641c3.035,0,5.869-0.826,8.32-2.245
		C139.248,128.202,135.897,122.84,135.897,116.685z"/>
	<path style="fill:#FF822E;" d="M376.104,116.685V16.641c0-6.155,3.351-11.518,8.321-14.397C381.975,0.826,379.139,0,376.104,0
		c-9.19,0-16.641,7.451-16.641,16.641v100.043c0,9.19,7.451,16.641,16.641,16.641c3.035,0,5.871-0.826,8.321-2.245
		C379.456,128.202,376.104,122.84,376.104,116.685z"/>
	<path style="fill:#FF822E;" d="M441.534,116.685V16.641c0-6.155,3.351-11.518,8.321-14.397C447.405,0.826,444.569,0,441.534,0
		c-9.191,0-16.641,7.451-16.641,16.641v100.043c0,9.19,7.45,16.641,16.641,16.641c3.034,0,5.87-0.826,8.321-2.245
		C444.886,128.202,441.534,122.84,441.534,116.685z"/>
</g>
<path style="fill:#DDD3CA;" d="M463.015,226.705H48.985c-7.377,0-13.356,5.979-13.356,13.356V463.77
	c0,7.377,5.979,13.356,13.356,13.356h48.492h28.937h336.6c7.377,0,13.357-5.979,13.357-13.356V240.062
	C476.372,232.685,470.392,226.705,463.015,226.705z"/>
<path style="fill:#F24E33;" d="M22.261,498.643v-0.001v-34.872v-0.001V116.521v-0.001V81.648v-0.001
	c0-7.376,5.98-13.356,13.356-13.356H13.357C5.98,68.291,0,74.271,0,81.647v0.001v34.872v0.001V463.77v0.001v34.872v0.001
	C0,506.02,5.98,512,13.357,512h22.261C28.241,512,22.261,506.02,22.261,498.643z"/>
<path style="fill:#C4B09F;" d="M57.888,463.77V240.062c0-7.377,5.98-13.356,13.356-13.356h-22.26
	c-7.377,0-13.356,5.979-13.356,13.356V463.77c0,7.377,5.979,13.356,13.356,13.356h22.26
	C63.869,477.126,57.888,471.147,57.888,463.77z"/>
<path style="fill:#ECE5DD;" d="M463.015,226.705h-208.79c26.104,102.973,114.141,181.242,222.146,192.857v-179.5
	C476.372,232.685,470.392,226.705,463.015,226.705z"/>
<g>
	<path style="fill:#FFFFFF;" d="M129.832,401.069v-92.781h33.715c7.58,0,14.221,1.222,19.928,3.66
		c5.705,2.439,10.475,5.749,14.31,9.932c3.831,4.182,6.707,9.081,8.625,14.701c1.916,5.619,2.874,11.61,2.874,17.968
		c0,7.057-1.067,13.44-3.201,19.144c-2.136,5.708-5.207,10.585-9.213,14.635c-4.008,4.051-8.821,7.187-14.441,9.409
		c-5.619,2.222-11.913,3.332-18.883,3.332H129.832z M191.12,354.547c0-4.442-0.611-8.537-1.831-12.284
		c-1.221-3.744-3.005-6.969-5.358-9.67c-2.352-2.7-5.249-4.79-8.691-6.273c-3.443-1.48-7.341-2.222-11.696-2.222h-15.681v61.157
		h15.681c4.443,0,8.385-0.784,11.826-2.352c3.442-1.568,6.315-3.724,8.625-6.468c2.307-2.745,4.072-5.989,5.293-9.736
		C190.51,362.956,191.12,358.905,191.12,354.547z"/>
	<path style="fill:#FFFFFF;" d="M246.527,308.288h15.942l35.283,92.781h-18.557l-8.625-23.13h-32.407l-8.495,23.13h-18.557
		L246.527,308.288z M267.305,365.263l-12.806-36.46l-13.331,36.46H267.305z"/>
	<path style="fill:#FFFFFF;" d="M307.944,401.069v-92.781h33.715c7.579,0,14.221,1.222,19.928,3.66
		c5.704,2.439,10.474,5.749,14.308,9.932c3.832,4.182,6.707,9.081,8.625,14.701c1.916,5.619,2.875,11.61,2.875,17.968
		c0,7.057-1.067,13.44-3.202,19.144c-2.135,5.708-5.207,10.585-9.213,14.635c-4.008,4.051-8.82,7.187-14.439,9.409
		c-5.62,2.222-11.914,3.332-18.883,3.332H307.944z M369.232,354.547c0-4.442-0.611-8.537-1.83-12.284
		c-1.222-3.744-3.006-6.969-5.358-9.67c-2.352-2.7-5.249-4.79-8.69-6.273c-3.444-1.48-7.342-2.222-11.696-2.222h-15.682v61.157
		h15.682c4.443,0,8.382-0.784,11.826-2.352c3.44-1.568,6.315-3.724,8.624-6.468c2.308-2.745,4.072-5.989,5.294-9.736
		C368.621,362.956,369.232,358.905,369.232,354.547z"/>
</g>
<g>
	<path style="fill:#F24E33;" d="M313.508,137.991H198.492c-4.61,0-8.348-3.736-8.348-8.348s3.738-8.348,8.348-8.348h115.017
		c4.61,0,8.348,3.736,8.348,8.348S318.118,137.991,313.508,137.991z"/>
	<path style="fill:#F24E33;" d="M313.508,174.221H198.492c-4.61,0-8.348-3.736-8.348-8.348c0-4.611,3.738-8.348,8.348-8.348h115.017
		c4.61,0,8.348,3.736,8.348,8.348C321.856,170.484,318.118,174.221,313.508,174.221z"/>
</g>
<g>
</g>
<g>
</g>
<g>
</g>
<g>
</g>
<g>
</g>
<g>
</g>
<g>
</g>
<g>
</g>
<g>
</g>
<g>
</g>
<g>
</g>
<g>
</g>
<g>
</g>
<g>
</g>
<g>
</g>
</svg>
