<?xml version="1.0" encoding="iso-8859-1"?>
<svg version="1.1" id="Capa_1" xmlns="http://www.w3.org/2000/svg" xmlns:xlink="http://www.w3.org/1999/xlink" x="0px" y="0px"
	 viewBox="0 0 210.954 210.954" style="enable-background:new 0 0 210.954 210.954;">
<path d="M106.147,35.951c-5.245,0-10.489-1.997-14.481-5.989c-7.985-7.985-7.985-20.978,0-28.962c1.331-1.333,3.495-1.333,4.826,0
	c1.333,1.333,1.333,3.494,0,4.826c-2.579,2.579-3.999,6.007-3.999,9.655s1.422,7.076,3.999,9.655c5.323,5.323,13.986,5.323,19.309,0
	c1.331-1.333,3.495-1.333,4.826,0c1.333,1.333,1.333,3.494,0,4.826C116.636,33.954,111.392,35.951,106.147,35.951z"/>
<path d="M103.77,43.7c-1.884,0-3.413-1.529-3.413-3.413V33.46c0-1.884,1.529-3.413,3.413-3.413c1.884,0,3.413,1.529,3.413,3.413
	v6.827C107.183,42.173,105.654,43.7,103.77,43.7z"/>
<path style="fill:#FBAD4A;" d="M133.94,101.727c2.521-3.432,3.963-7.892,3.963-13.653c0-18.852-34.133-44.373-34.133-44.373
	c-3.413,0-34.133,25.521-34.133,44.373c0,5.762,1.442,10.221,3.963,13.653H133.94z"/>
<path d="M133.94,105.14H73.599c-1.087,0-2.108-0.517-2.751-1.393c-3.069-4.178-4.625-9.452-4.625-15.674
	c0-11.226,9.079-23.368,16.698-31.577c4.907-5.289,16.461-16.21,20.849-16.21c0.737,0,1.454,0.239,2.045,0.679
	c1.449,1.084,35.502,26.779,35.502,47.107c0,6.223-1.556,11.496-4.625,15.674C136.048,104.623,135.027,105.14,133.94,105.14z
	 M75.439,98.314h56.661c1.606-2.777,2.389-6.146,2.389-10.24c0-13.332-21.263-32.693-31.237-40.472
	c-6.75,4.012-30.203,25.472-30.203,40.472C73.05,92.168,73.833,95.537,75.439,98.314z"/>
<rect x="73.05" y="101.722" style="fill:#FEDA38;" width="61.44" height="17.067"/>
<path d="M134.49,122.207H73.05c-1.884,0-3.413-1.529-3.413-3.413v-17.067c0-1.884,1.529-3.413,3.413-3.413h61.44
	c1.884,0,3.413,1.529,3.413,3.413v17.067C137.903,120.68,136.374,122.207,134.49,122.207z M76.463,115.38h54.613v-10.24H76.463
	V115.38z"/>
<polygon style="fill:#FBAD4A;" points="141.317,135.86 66.223,135.86 62.81,118.794 144.73,118.794 "/>
<path d="M141.317,139.274H66.223c-1.626,0-3.028-1.149-3.347-2.744l-3.413-17.067c-0.201-1.002,0.058-2.043,0.707-2.833
	s1.618-1.249,2.64-1.249h81.92c1.022,0,1.992,0.459,2.64,1.249c0.649,0.79,0.908,1.831,0.707,2.833l-3.413,17.067
	C144.344,138.125,142.943,139.274,141.317,139.274z M69.022,132.447h69.497l2.048-10.24H66.974L69.022,132.447z"/>
<rect x="11.61" y="135.855" style="fill:#FBAD4A;" width="187.733" height="71.68"/>
<path d="M199.343,210.954H11.61c-1.884,0-3.413-1.529-3.413-3.413v-71.68c0-1.884,1.529-3.413,3.413-3.413h187.733
	c1.884,0,3.413,1.529,3.413,3.413v71.68C202.757,209.426,201.227,210.954,199.343,210.954z M15.023,204.127H195.93v-64.853H15.023
	V204.127z"/>
<path style="fill:#FBAD4A;" d="M105.477,169.994L105.477,169.994c-8.484,0-15.36,6.876-15.36,15.36v22.187h30.72v-22.187
	C120.837,176.872,113.96,169.994,105.477,169.994z"/>
<path d="M120.837,210.954h-30.72c-1.884,0-3.413-1.529-3.413-3.413v-22.187c0-10.351,8.422-18.773,18.773-18.773
	s18.773,8.422,18.773,18.773v22.187C124.25,209.426,122.721,210.954,120.837,210.954z M93.53,204.127h23.893v-18.773
	c0-6.588-5.359-11.947-11.947-11.947c-6.588,0-11.947,5.359-11.947,11.947V204.127z"/>
<path style="fill:#26BBEC;" d="M151.557,193.887h-13.653v-34.133c0-3.77,3.057-6.827,6.827-6.827l0,0
	c3.77,0,6.827,3.057,6.827,6.827V193.887z"/>
<path d="M151.557,197.3h-13.653c-1.884,0-3.413-1.529-3.413-3.413v-34.133c0-5.647,4.593-10.24,10.24-10.24s10.24,4.593,10.24,10.24
	v34.133C154.97,195.773,153.441,197.3,151.557,197.3z M141.317,190.474h6.827v-30.72c0-1.882-1.531-3.413-3.413-3.413
	s-3.413,1.531-3.413,3.413V190.474z"/>
<path style="fill:#26BBEC;" d="M182.277,193.887h-13.653v-34.133c0-3.77,3.057-6.827,6.827-6.827l0,0
	c3.77,0,6.827,3.057,6.827,6.827V193.887z"/>
<path d="M182.277,197.3h-13.653c-1.884,0-3.413-1.529-3.413-3.413v-34.133c0-5.647,4.593-10.24,10.24-10.24s10.24,4.593,10.24,10.24
	v34.133C185.69,195.773,184.161,197.3,182.277,197.3z M172.037,190.474h6.827v-30.72c0-1.882-1.531-3.413-3.413-3.413
	s-3.413,1.531-3.413,3.413V190.474z"/>
<path style="fill:#26BBEC;" d="M42.33,193.887H28.677v-34.133c0-3.77,3.057-6.827,6.827-6.827l0,0c3.77,0,6.827,3.057,6.827,6.827
	V193.887z"/>
<path d="M42.33,197.3H28.677c-1.884,0-3.413-1.529-3.413-3.413v-34.133c0-5.647,4.593-10.24,10.24-10.24s10.24,4.593,10.24,10.24
	v34.133C45.743,195.773,44.214,197.3,42.33,197.3z M32.09,190.474h6.827v-30.72c0-1.882-1.531-3.413-3.413-3.413
	c-1.882,0-3.413,1.531-3.413,3.413V190.474z"/>
<path style="fill:#26BBEC;" d="M73.05,193.887H59.397v-34.133c0-3.77,3.057-6.827,6.827-6.827l0,0c3.77,0,6.827,3.057,6.827,6.827
	V193.887z"/>
<path d="M73.05,197.3H59.397c-1.884,0-3.413-1.529-3.413-3.413v-34.133c0-5.647,4.593-10.24,10.24-10.24
	c5.647,0,10.24,4.593,10.24,10.24v34.133C76.463,195.773,74.934,197.3,73.05,197.3z M62.81,190.474h6.827v-30.72
	c0-1.882-1.531-3.413-3.413-3.413c-1.882,0-3.413,1.531-3.413,3.413V190.474z"/>
<rect x="11.61" y="74.415" style="fill:#FEDA38;" width="20.48" height="61.44"/>
<path d="M32.09,139.274H11.61c-1.884,0-3.413-1.529-3.413-3.413V74.42c0-1.884,1.529-3.413,3.413-3.413h20.48
	c1.884,0,3.413,1.529,3.413,3.413v61.44C35.503,137.746,33.974,139.274,32.09,139.274z M15.023,132.447h13.653V77.834H15.023
	V132.447z"/>
<polygon style="fill:#FBAD4A;" points="35.503,60.767 8.197,60.767 11.61,74.42 32.09,74.42 "/>
<path d="M32.09,77.834H11.61c-1.567,0-2.932-1.067-3.311-2.586L4.886,61.595c-0.254-1.019-0.026-2.099,0.621-2.929
	c0.647-0.828,1.638-1.312,2.69-1.312h27.307c1.051,0,2.043,0.485,2.69,1.312c0.647,0.828,0.877,1.91,0.621,2.929l-3.413,13.653
	C35.022,76.769,33.657,77.834,32.09,77.834z M14.276,71.007h15.15l1.707-6.827H12.569L14.276,71.007z"/>
<polygon style="fill:#FBAD4A;" points="202.757,60.767 175.45,60.767 178.863,74.42 199.343,74.42 "/>
<path d="M199.343,77.834h-20.48c-1.567,0-2.932-1.067-3.311-2.586l-3.413-13.653c-0.254-1.019-0.026-2.099,0.621-2.929
	c0.647-0.828,1.638-1.312,2.69-1.312h27.307c1.051,0,2.043,0.485,2.69,1.312c0.647,0.828,0.877,1.91,0.621,2.929l-3.413,13.653
	C202.275,76.769,200.91,77.834,199.343,77.834z M181.529,71.007h15.15l1.707-6.827h-18.563L181.529,71.007z"/>
<rect x="178.863" y="74.415" style="fill:#FEDA38;" width="20.48" height="61.44"/>
<path d="M199.343,139.274h-20.48c-1.884,0-3.413-1.529-3.413-3.413V74.42c0-1.884,1.529-3.413,3.413-3.413h20.48
	c1.884,0,3.413,1.529,3.413,3.413v61.44C202.757,137.746,201.227,139.274,199.343,139.274z M182.277,132.447h13.653V77.834h-13.653
	V132.447z"/>
<polygon style="fill:#FEDA38;" points="21.85,9.567 11.61,60.767 32.09,60.767 "/>
<path d="M32.09,64.18H11.61c-1.022,0-1.992-0.459-2.64-1.249c-0.649-0.79-0.908-1.831-0.707-2.833l10.24-51.2
	c0.319-1.596,1.72-2.744,3.347-2.744c1.626,0,3.028,1.149,3.347,2.744l10.24,51.2c0.201,1.002-0.058,2.043-0.707,2.833
	C34.082,63.721,33.112,64.18,32.09,64.18z M15.772,57.354h12.153L21.85,26.972L15.772,57.354z"/>
<polygon style="fill:#FEDA38;" points="189.103,9.567 178.863,60.767 199.343,60.767 "/>
<path d="M199.343,64.18h-20.48c-1.022,0-1.992-0.459-2.64-1.249s-0.908-1.831-0.707-2.833l10.24-51.2
	c0.319-1.596,1.72-2.744,3.347-2.744c1.626,0,3.028,1.149,3.347,2.744l10.24,51.2c0.201,1.002-0.058,2.043-0.707,2.833
	S200.365,64.18,199.343,64.18z M183.026,57.354h12.153l-6.076-30.382L183.026,57.354z"/>
<g>
</g>
<g>
</g>
<g>
</g>
<g>
</g>
<g>
</g>
<g>
</g>
<g>
</g>
<g>
</g>
<g>
</g>
<g>
</g>
<g>
</g>
<g>
</g>
<g>
</g>
<g>
</g>
<g>
</g>
</svg>
