<?xml version="1.0" encoding="iso-8859-1"?>
<svg version="1.1" id="Layer_1" xmlns="http://www.w3.org/2000/svg" xmlns:xlink="http://www.w3.org/1999/xlink" x="0px" y="0px"
	 viewBox="0 0 512 512" style="enable-background:new 0 0 512 512;">
<path style="fill:#FFEED1;" d="M400.339,0h-290.7C86.968,0,68.411,18.557,68.411,41.228v267c0,5.668,4.639,10.307,10.307,10.307
	h10.307l30.921-153.6l160.811,33.537l160.81-33.537V41.228C441.567,18.557,423.01,0,400.339,0z"/>
<path style="fill:#FFD66E;" d="M104.485,41.228c-8.541,0-15.461,6.931-15.461,15.472v261.835h30.921V56.7
	C119.945,48.159,113.026,41.228,104.485,41.228z"/>
<g>
	<polygon style="fill:#33A6F2;" points="441.567,164.936 441.567,278.325 280.757,311.862 119.946,278.325 119.946,164.936 	"/>
	<path style="fill:#33A6F2;" d="M123.612,503.057c0,4.939,4.004,8.943,8.943,8.943c4.939,0,8.943-4.004,8.943-8.943v-100.4h-17.886
		V503.057z"/>
	<path style="fill:#33A6F2;" d="M182.893,503.057c0,4.939,4.004,8.943,8.943,8.943s8.943-4.004,8.943-8.943v-100.4h-17.886V503.057z
		"/>
	<path style="fill:#33A6F2;" d="M242.175,503.057c0,4.939,4.004,8.943,8.943,8.943c4.939,0,8.943-4.004,8.943-8.943v-100.4h-17.886
		V503.057z"/>
	<path style="fill:#33A6F2;" d="M301.457,503.057c0,4.939,4.004,8.943,8.943,8.943c4.939,0,8.943-4.004,8.943-8.943v-100.4h-17.886
		V503.057z"/>
	<path style="fill:#33A6F2;" d="M360.738,503.057c0,4.939,4.004,8.943,8.943,8.943c4.939,0,8.943-4.004,8.943-8.943v-100.4h-17.886
		V503.057z"/>
	<path style="fill:#33A6F2;" d="M420.021,402.657v100.4c0,4.939,4.004,8.943,8.943,8.943s8.943-4.004,8.943-8.943v-100.4H420.021z"
		/>
</g>
<polygon style="fill:#FFEED1;" points="441.567,278.325 441.567,349.781 280.757,372.139 119.946,349.781 119.946,318.536
	119.946,278.325 "/>
<polygon style="fill:#33A6F2;" points="441.567,349.781 441.567,383.776 280.757,406.134 119.946,383.776 119.946,349.781 "/>
<path style="fill:#2A4B66;" d="M441.567,383.776v30.932c0,5.668-4.639,10.307-10.307,10.307H130.253
	c-5.668,0-10.307-4.639-10.307-10.307v-30.932H441.567z"/>
<g>
	<path style="fill:#75C8FF;" d="M138.236,460.026h-11.364c-4.939,0-8.943-4.004-8.943-8.943s4.004-8.943,8.943-8.943h11.364
		c4.939,0,8.943,4.004,8.943,8.943S143.176,460.026,138.236,460.026z"/>
	<path style="fill:#75C8FF;" d="M434.646,460.026h-11.363c-4.939,0-8.943-4.004-8.943-8.943s4.004-8.943,8.943-8.943h11.363
		c4.939,0,8.943,4.004,8.943,8.943S439.584,460.026,434.646,460.026z"/>
	<path style="fill:#75C8FF;" d="M197.517,460.026h-11.363c-4.939,0-8.943-4.004-8.943-8.943s4.004-8.943,8.943-8.943h11.363
		c4.939,0,8.943,4.004,8.943,8.943S202.457,460.026,197.517,460.026z"/>
	<path style="fill:#75C8FF;" d="M256.8,460.026h-11.363c-4.939,0-8.943-4.004-8.943-8.943s4.004-8.943,8.943-8.943H256.8
		c4.939,0,8.943,4.004,8.943,8.943S261.739,460.026,256.8,460.026z"/>
	<path style="fill:#75C8FF;" d="M316.082,460.026h-11.363c-4.939,0-8.943-4.004-8.943-8.943s4.004-8.943,8.943-8.943h11.363
		c4.939,0,8.943,4.004,8.943,8.943S321.021,460.026,316.082,460.026z"/>
	<path style="fill:#75C8FF;" d="M375.364,460.026H364c-4.939,0-8.943-4.004-8.943-8.943s4.004-8.943,8.943-8.943h11.364
		c4.939,0,8.943,4.004,8.943,8.943S380.303,460.026,375.364,460.026z"/>
</g>
<g>
</g>
<g>
</g>
<g>
</g>
<g>
</g>
<g>
</g>
<g>
</g>
<g>
</g>
<g>
</g>
<g>
</g>
<g>
</g>
<g>
</g>
<g>
</g>
<g>
</g>
<g>
</g>
<g>
</g>
</svg>
