<?xml version="1.0" encoding="iso-8859-1"?>
<svg version="1.1" id="Capa_1" xmlns="http://www.w3.org/2000/svg" xmlns:xlink="http://www.w3.org/1999/xlink" x="0px" y="0px"
	 viewBox="0 0 512 512" style="enable-background:new 0 0 512 512;">
<path style="fill:#477A36;" d="M327,512c-47.421,0-86-38.58-86-86V326h30v100c0,30.878,25.121,56,56,56V512z"/>
<path style="fill:#8FE673;" d="M389.61,200c36.666,0,66.39-29.724,66.39-66.39s-29.724-66.39-66.39-66.39
	c-0.286,0-0.566,0.018-0.851,0.021c0.004-0.285,0.021-0.566,0.021-0.851C388.78,29.724,359.056,0,322.39,0S256,29.724,256,66.39
	C256,29.724,226.276,0,189.61,0s-66.39,29.724-66.39,66.39c0,0.286,0.018,0.566,0.021,0.851c-0.285-0.003-0.566-0.021-0.851-0.021
	C85.724,67.22,56,96.944,56,133.61S85.724,200,122.39,200C85.724,200,56,229.724,56,266.39s29.724,66.39,66.39,66.39
	c0.286,0,0.566-0.018,0.851-0.021c-0.004,0.285-0.021,0.565-0.021,0.851c0,36.667,29.724,66.39,66.39,66.39S256,370.276,256,333.61
	c0,36.666,29.724,66.39,66.39,66.39s66.39-29.724,66.39-66.39c0-0.286-0.018-0.566-0.021-0.851c0.285,0.003,0.566,0.021,0.851,0.021
	c36.667,0,66.39-29.724,66.39-66.39S426.276,200,389.61,200z"/>
<path style="fill:#76CC5B;" d="M456,133.61c0-36.666-29.724-66.39-66.39-66.39c-0.286,0-0.566,0.018-0.851,0.021
	c0.004-0.285,0.021-0.566,0.021-0.851C388.78,29.724,359.056,0,322.39,0S256,29.724,256,66.39V200h133.61
	C426.276,200,456,170.276,456,133.61z"/>
<path style="fill:#599944;" d="M322.39,400c36.666,0,66.39-29.724,66.39-66.39c0-0.286-0.018-0.566-0.021-0.851
	c0.285,0.004,0.566,0.021,0.851,0.021c36.666,0,66.39-29.724,66.39-66.39S426.276,200,389.61,200H256v133.61
	C256,370.276,285.724,400,322.39,400z"/>
<path style="fill:#76CC5B;" d="M56,266.39c0,36.666,29.724,66.39,66.39,66.39c0.286,0,0.566-0.018,0.851-0.021
	c-0.004,0.285-0.021,0.566-0.021,0.851c0,36.666,29.724,66.39,66.39,66.39S256,370.276,256,333.61V200H122.39
	C85.724,200,56,229.724,56,266.39z"/>
<g>
</g>
<g>
</g>
<g>
</g>
<g>
</g>
<g>
</g>
<g>
</g>
<g>
</g>
<g>
</g>
<g>
</g>
<g>
</g>
<g>
</g>
<g>
</g>
<g>
</g>
<g>
</g>
<g>
</g>
</svg>
