<?xml version="1.0" encoding="iso-8859-1"?>
<svg version="1.1" id="Layer_1" xmlns="http://www.w3.org/2000/svg" xmlns:xlink="http://www.w3.org/1999/xlink" x="0px" y="0px"
	 viewBox="0 0 512 512" style="enable-background:new 0 0 512 512;" xml:space="preserve">
<path style="fill:#F21897;" d="M422.417,113L290.197,11.602c-9.25-7.1-20.761-11.399-33.286-11.59V191.42l187.572-33.758
	C444.484,139.455,435.83,123.285,422.417,113z"/>
<path style="fill:#F446AC;" d="M399.473,157.662L256.911,191.42L67.517,157.662c0-18.207,8.653-34.377,22.067-44.662l132.22-101.399
	C231.278,4.332,243.127,0,256,0c0.304,0,0.608,0,0.911,0.011c9.441,0.259,18.128,4.546,25.116,11.59L382.672,113
	C392.89,123.285,399.473,139.455,399.473,157.662z"/>
<polygon style="fill:#F99A25;" points="409.724,455.736 409.724,512 375.966,512 353.46,455.736 "/>
<path style="fill:#FFD46E;" d="M444.574,180.168v78.769H388.31v-78.769h56.174C444.517,180.168,444.54,180.168,444.574,180.168z"/>
<path style="fill:#FFE9B7;" d="M410.815,180.168v78.769H67.426v-78.769c0.034,0,0.056,0,0.09,0h343.209
	C410.759,180.168,410.782,180.168,410.815,180.168z"/>
<g>
	<rect x="102.276" y="455.736" style="fill:#FFBE26;" width="273.689" height="56.264"/>
	<path style="fill:#FFBE26;" d="M473.324,290.523c-6.785-16.114-16.609-30.63-28.751-42.839h-33.758l-34.85,230.558h33.758
		l40.634-46.305c20.863-23.766,33.511-54.925,33.511-89.032C483.868,324.327,480.11,306.626,473.324,290.523z"/>
</g>
<path style="fill:#FFD46E;" d="M450.11,342.905c0,34.107-12.648,65.266-33.511,89.032l-40.634,46.305H102.276l-40.634-46.305
	c-20.863-23.766-33.511-54.925-33.511-89.032c0-18.578,3.758-36.279,10.544-52.382c6.785-16.114,16.609-30.63,28.751-42.839h343.389
	c12.142,12.209,21.965,26.725,28.751,42.839C446.352,306.626,450.11,324.327,450.11,342.905z"/>
<path style="fill:#FFBE26;" d="M444.484,157.662h-33.758l0.09,33.758h33.758c9.272-0.045,16.789-7.596,16.789-16.879
	C461.363,165.224,453.801,157.662,444.484,157.662z"/>
<path style="fill:#FFD46E;" d="M410.725,157.662c9.317,0,16.879,7.562,16.879,16.879c0,9.284-7.517,16.834-16.789,16.879
	c-0.034,0-0.056,0-0.09,0H67.517c-0.034,0-0.056,0-0.09,0c-9.272-0.045-16.789-7.596-16.789-16.879
	c0-9.317,7.562-16.879,16.879-16.879h331.956H410.725z"/>
<g>
	<circle style="fill:#F21897;" cx="202.111" cy="79.242" r="8.44"/>
	<circle style="fill:#F21897;" cx="168.352" cy="113" r="8.44"/>
	<circle style="fill:#F21897;" cx="343.648" cy="113" r="8.44"/>
</g>
<g>
</g>
<g>
</g>
<g>
</g>
<g>
</g>
<g>
</g>
<g>
</g>
<g>
</g>
<g>
</g>
<g>
</g>
<g>
</g>
<g>
</g>
<g>
</g>
<g>
</g>
<g>
</g>
<g>
</g>
</svg>
