<?xml version="1.0" encoding="iso-8859-1"?>
<!-- Generator: Adobe Illustrator 18.0.0, SVG Export Plug-In . SVG Version: 6.00 Build 0)  -->
<!DOCTYPE svg PUBLIC "-//W3C//DTD SVG 1.1//EN" "http://www.w3.org/Graphics/SVG/1.1/DTD/svg11.dtd">
<svg xmlns="http://www.w3.org/2000/svg" xmlns:xlink="http://www.w3.org/1999/xlink" version="1.1" id="Capa_1" x="0px" y="0px" viewBox="0 0 461.157 461.157" style="enable-background:new 0 0 461.157 461.157;">
<g>
	<path d="M353.81,192.284c7.506,7.506,19.665,7.506,27.171,0c7.507-7.506,7.507-19.665,0-27.172l-42.468-42.468   c-7.506-7.504-19.665-7.504-27.172,0l-61.517,61.519v-67.777h40.831c10.613,0,19.215-8.603,19.215-19.216   c0-10.612-8.602-19.215-19.215-19.215H230.61c-10.615,0-19.216,8.603-19.216,19.215v87.038l-47.964-47.962l28.883-28.883   c7.506-7.506,7.506-19.665,0-27.171c-7.505-7.506-19.665-7.506-27.17,0l-42.468,42.468c-7.507,7.506-7.507,19.665,0,27.171   l61.532,61.533h-67.822v-40.839c0-10.613-8.602-19.215-19.215-19.215c-10.613,0-19.215,8.602-19.215,19.215v60.054   c0,10.614,8.602,19.215,19.215,19.215h87.021l-47.962,47.962l-28.882-28.883c-7.507-7.505-19.666-7.505-27.172,0   c-7.506,7.506-7.506,19.665,0,27.172l42.468,42.468c3.754,3.752,8.662,5.629,13.586,5.629c4.924,0,9.834-1.877,13.586-5.629   l61.578-61.578v67.868h-40.861c-10.614,0-19.215,8.603-19.215,19.215c0,10.613,8.601,19.215,19.215,19.215h60.077   c10.611,0,19.214-8.602,19.214-19.215V276.98l47.946,47.946l-28.882,28.883c-7.506,7.506-7.506,19.665,0,27.171   c3.752,3.753,8.662,5.63,13.586,5.63c4.923,0,9.831-1.877,13.585-5.63l42.469-42.468c7.504-7.506,7.504-19.665,0-27.172   l-61.548-61.547h67.822v40.84c0,10.612,8.601,19.215,19.215,19.215c10.613,0,19.215-8.603,19.215-19.215v-60.055   c0-10.613-8.602-19.215-19.215-19.215h-87.053l47.962-47.963L353.81,192.284z" fill="#328ec7"/>
	<path d="M230.595,66.187c18.27,0,33.084-14.816,33.084-33.101C263.679,14.824,248.864,0,230.595,0   c-18.285,0-33.102,14.824-33.102,33.086C197.493,51.37,212.309,66.187,230.595,66.187z" fill="#328ec7"/>
	<path d="M230.595,394.986c-18.285,0-33.102,14.802-33.102,33.086c0,18.276,14.816,33.085,33.102,33.085   c18.27,0,33.084-14.809,33.084-33.085C263.679,409.788,248.864,394.986,230.595,394.986z" fill="#328ec7"/>
	<path d="M428.072,197.486c-18.284,0-33.086,14.823-33.086,33.1c0,18.263,14.802,33.087,33.086,33.087   c18.284,0,33.085-14.824,33.085-33.087C461.157,212.31,446.356,197.486,428.072,197.486z" fill="#328ec7"/>
	<path d="M33.085,197.486C14.802,197.486,0,212.31,0,230.586c0,18.263,14.802,33.087,33.085,33.087   c18.285,0,33.087-14.824,33.087-33.087C66.172,212.31,51.37,197.486,33.085,197.486z" fill="#328ec7"/>
</g>
</svg>
