<?xml version="1.0" encoding="iso-8859-1"?>
<svg version="1.1" id="Layer_1" xmlns="http://www.w3.org/2000/svg" xmlns:xlink="http://www.w3.org/1999/xlink" x="0px" y="0px"
	 viewBox="0 0 512 512" style="enable-background:new 0 0 512 512;">
<polygon style="fill:#FCBE5B;" points="338.462,113.231 338.462,0 173.538,0 173.538,113.231 52.357,113.231 52.357,278.154
	173.538,278.154 173.538,512 338.462,512 338.462,278.154 459.643,278.154 459.643,113.231 "/>
<g>
	<polygon style="fill:#E09B2D;" points="338.462,512 173.538,512 256,434.855 	"/>
	<polygon style="fill:#E09B2D;" points="256,195.692 256,434.855 173.538,512 173.538,278.154 250.671,195.692 	"/>
	<polygon style="fill:#E09B2D;" points="382.498,195.692 459.643,278.154 338.462,278.154 261.317,195.692 	"/>
	<polygon style="fill:#E09B2D;" points="250.671,195.692 173.538,278.154 52.357,278.154 129.489,195.692 	"/>
	<polygon style="fill:#E09B2D;" points="52.357,113.231 129.489,195.692 52.357,278.154 	"/>
	<polygon style="fill:#E09B2D;" points="256,77.145 256,195.692 250.671,195.692 173.538,113.231 173.538,0 	"/>
</g>
<g>
	<polygon style="fill:#F7B239;" points="338.462,278.154 338.462,512 256,434.855 256,195.692 261.317,195.692 	"/>
	<polygon style="fill:#F7B239;" points="459.643,113.231 459.643,278.154 382.498,195.692 	"/>
	<polygon style="fill:#F7B239;" points="338.462,0 338.462,113.231 261.317,195.692 256,195.692 256,77.145 	"/>
</g>
<g>
</g>
<g>
</g>
<g>
</g>
<g>
</g>
<g>
</g>
<g>
</g>
<g>
</g>
<g>
</g>
<g>
</g>
<g>
</g>
<g>
</g>
<g>
</g>
<g>
</g>
<g>
</g>
<g>
</g>
</svg>
