<?xml version="1.0" encoding="iso-8859-1"?>
<svg version="1.1" id="Layer_1" xmlns="http://www.w3.org/2000/svg" xmlns:xlink="http://www.w3.org/1999/xlink" x="0px" y="0px"
	 viewBox="0 0 512 512" style="enable-background:new 0 0 512 512;">
<path style="fill:#FFEFD9;" d="M395.13,406.261H116.87c-9.217,0-16.696-7.473-16.696-16.696v-267.13
	c0-9.223,7.479-16.696,16.696-16.696H395.13c9.217,0,16.696,7.473,16.696,16.696v267.13
	C411.826,398.788,404.348,406.261,395.13,406.261z"/>
<path style="fill:#FFD9B3;" d="M395.13,105.739H256v300.522h139.13c9.217,0,16.696-7.473,16.696-16.696v-267.13
	C411.826,113.212,404.348,105.739,395.13,105.739z"/>
<path style="fill:#EE6E2F;" d="M116.87,473.043H50.087c-9.217,0-16.696-7.473-16.696-16.696V55.652
	c0-9.223,7.479-16.696,16.696-16.696h66.783c9.217,0,16.696,7.473,16.696,16.696v400.696
	C133.565,465.57,126.087,473.043,116.87,473.043z"/>
<g>
	<path style="fill:#6B7A99;" d="M83.478,72.348c-9.217,0-16.696-7.473-16.696-16.696V22.261c0-9.223,7.479-16.696,16.696-16.696
		s16.696,7.473,16.696,16.696v33.391C100.174,64.875,92.695,72.348,83.478,72.348z"/>
	<path style="fill:#6B7A99;" d="M83.478,506.435c-9.217,0-16.696-7.473-16.696-16.696v-33.391c0-9.223,7.479-16.696,16.696-16.696
		s16.696,7.473,16.696,16.696v33.391C100.174,498.962,92.695,506.435,83.478,506.435z"/>
</g>
<g>
	<path style="fill:#FFC033;" d="M150.261,72.348H16.696C7.479,72.348,0,64.875,0,55.652s7.479-16.696,16.696-16.696h133.565
		c9.217,0,16.696,7.473,16.696,16.696S159.478,72.348,150.261,72.348z"/>
	<path style="fill:#FFC033;" d="M150.261,473.043H16.696C7.479,473.043,0,465.57,0,456.348s7.479-16.696,16.696-16.696h133.565
		c9.217,0,16.696,7.473,16.696,16.696S159.478,473.043,150.261,473.043z"/>
</g>
<path style="fill:#E15C25;" d="M461.913,473.043H395.13c-9.217,0-16.696-7.473-16.696-16.696V55.652
	c0-9.223,7.479-16.696,16.696-16.696h66.783c9.217,0,16.696,7.473,16.696,16.696v400.696
	C478.609,465.57,471.13,473.043,461.913,473.043z"/>
<g>
	<path style="fill:#5A6680;" d="M428.522,72.348c-9.217,0-16.696-7.473-16.696-16.696V22.261c0-9.223,7.479-16.696,16.696-16.696
		c9.217,0,16.696,7.473,16.696,16.696v33.391C445.217,64.875,437.739,72.348,428.522,72.348z"/>
	<path style="fill:#5A6680;" d="M428.522,506.435c-9.217,0-16.696-7.473-16.696-16.696v-33.391c0-9.223,7.479-16.696,16.696-16.696
		c9.217,0,16.696,7.473,16.696,16.696v33.391C445.217,498.962,437.739,506.435,428.522,506.435z"/>
</g>
<g>
	<path style="fill:#F9A926;" d="M495.304,72.348H361.739c-9.217,0-16.696-7.473-16.696-16.696s7.479-16.696,16.696-16.696h133.565
		c9.217,0,16.696,7.473,16.696,16.696S504.521,72.348,495.304,72.348z"/>
	<path style="fill:#F9A926;" d="M495.304,473.043H361.739c-9.217,0-16.696-7.473-16.696-16.696s7.479-16.696,16.696-16.696h133.565
		c9.217,0,16.696,7.473,16.696,16.696S504.521,473.043,495.304,473.043z"/>
</g>
<path style="fill:#FFC033;" d="M329.068,212.994c-2.876-4.994-8.202-8.073-13.965-8.073h-30.698l-14.445-24.904
	c-2.884-4.971-8.195-8.031-13.942-8.031c-5.747,0-11.058,3.06-13.942,8.031l-14.445,24.904h-30.698
	c-5.764,0-11.089,3.079-13.965,8.073c-2.877,4.994-2.868,11.146,0.023,16.131l15.3,26.378l-15.3,26.378
	c-2.892,4.985-2.901,11.137-0.023,16.131c2.876,4.994,8.202,8.073,13.965,8.073h30.698l14.445,24.904
	c2.884,4.971,8.195,8.031,13.942,8.031c5.747,0,11.058-3.06,13.942-8.031l14.445-24.903h30.698c5.764,0,11.089-3.079,13.965-8.073
	c2.877-4.994,2.868-11.146-0.023-16.131l-15.3-26.378l15.3-26.378C331.936,224.14,331.945,217.99,329.068,212.994z M265.837,273.852
	h-19.64l-10.643-18.347l10.643-18.347h19.64l10.643,18.347L265.837,273.852z"/>
<path style="fill:#F9A926;" d="M265.837,237.156l10.643,18.347l-10.643,18.347h-9.819v65.17c5.747,0,11.058-3.06,13.942-8.031
	l14.445-24.903h30.698c5.764,0,11.089-3.079,13.965-8.073c2.877-4.994,2.868-11.146-0.023-16.131l-15.3-26.378l15.3-26.378
	c2.892-4.985,2.901-11.137,0.023-16.131c-2.876-4.994-8.202-8.073-13.965-8.073h-30.698l-14.445-24.904
	c-2.884-4.971-8.195-8.031-13.942-8.031v65.17h9.819V237.156z"/>
<g>
</g>
<g>
</g>
<g>
</g>
<g>
</g>
<g>
</g>
<g>
</g>
<g>
</g>
<g>
</g>
<g>
</g>
<g>
</g>
<g>
</g>
<g>
</g>
<g>
</g>
<g>
</g>
<g>
</g>
</svg>
