<?xml version="1.0" encoding="iso-8859-1"?>
<svg version="1.1" id="Layer_1" xmlns="http://www.w3.org/2000/svg" xmlns:xlink="http://www.w3.org/1999/xlink" x="0px" y="0px"
	 viewBox="0 0 512 512" style="enable-background:new 0 0 512 512;" xml:space="preserve">
<path style="fill:#D1F9F7;" d="M418.066,38.858v395.415c0,0-263.82,77.728-285.284,77.728c-10.738,0-20.449-4.355-27.476-11.382
	c-7.027-7.039-11.382-16.751-11.382-27.476V77.716L55.067,0h324.141c16.142,0,29.993,9.843,35.851,23.861
	C417.004,28.478,418.066,33.549,418.066,38.858z"/>
<g>
	<path style="fill:#9EE7E7;" d="M415.059,23.861H66.997L55.067,0h324.141C395.35,0,409.202,9.843,415.059,23.861z"/>
	<path style="fill:#9EE7E7;" d="M93.926,77.719H16.206v-38.86C16.206,17.398,33.605,0,55.065,0l0,0
		c21.462,0,38.859,17.398,38.859,38.859v38.86H93.926z"/>
	<path style="fill:#9EE7E7;" d="M495.794,434.272v38.858c0,2.207-0.179,4.379-0.549,6.478C492.167,497.994,476.192,512,456.924,512
		H132.794c19.244,0,35.219-14.006,38.297-32.391c0.37-2.1,0.549-4.271,0.549-6.478v-38.858H495.794z"/>
</g>
<path style="fill:#C3F6F9;" d="M495.794,434.272v38.858c0,2.207-0.179,4.379-0.549,6.478H171.091c0.37-2.1,0.549-4.271,0.549-6.478
	v-38.858H495.794z"/>
<path style="fill:#9EE7E7;" d="M171.64,454.554v18.588c0,21.451-17.395,38.858-38.858,38.858c-10.738,0-20.449-4.355-27.476-11.382
	c-7.027-7.039-11.382-16.751-11.382-27.476v-18.588H171.64z"/>
<g>
	<path style="fill:#999999;" d="M192.769,171.561c-3.294,0-5.965-2.671-5.965-5.965V65.379c0-3.294,2.671-5.965,5.965-5.965
		c3.294,0,5.965,2.671,5.965,5.965v100.217C198.735,168.891,196.063,171.561,192.769,171.561z"/>
	<path style="fill:#999999;" d="M220.101,71.345h-54.663c-3.294,0-5.965-2.671-5.965-5.965c0-3.294,2.671-5.965,5.965-5.965h54.663
		c3.294,0,5.965,2.671,5.965,5.965C226.066,68.674,223.396,71.345,220.101,71.345z"/>
	<path style="fill:#999999;" d="M220.101,171.561h-54.663c-3.294,0-5.965-2.671-5.965-5.965s2.671-5.965,5.965-5.965h54.663
		c3.294,0,5.965,2.671,5.965,5.965S223.396,171.561,220.101,171.561z"/>
</g>
<g>
	<path style="fill:#EC589B;" d="M320.188,90.73c0-20.412,14.054-36.96,31.392-36.96c21.672,0,39.24,20.684,39.24,46.2
		c0,31.895-37.796,63.077-70.631,79.863c-32.835-16.786-70.631-47.968-70.631-79.863c0-25.516,17.568-46.2,39.24-46.2
		C306.133,53.769,320.188,70.316,320.188,90.73z"/>
	<path style="fill:#EC589B;" d="M199.144,397.023c-3.294,0-5.965-2.671-5.965-5.965v-44.851l-21.903,25.729
		c-1.133,1.331-2.794,2.099-4.542,2.099c-1.748,0-3.409-0.767-4.542-2.099l-21.903-25.729v44.851c0,3.294-2.671,5.965-5.965,5.965
		c-3.294,0-5.965-2.671-5.965-5.965v-61.061c0-2.501,1.559-4.735,3.905-5.598c2.344-0.865,4.981-0.173,6.602,1.731l27.869,32.737
		l27.869-32.737c1.62-1.904,4.256-2.596,6.602-1.731c2.347,0.864,3.905,3.098,3.905,5.598v61.061
		C205.109,394.352,202.438,397.023,199.144,397.023z"/>
	<path style="fill:#EC589B;" d="M377.676,397.023c-3.294,0-5.965-2.671-5.965-5.965v-44.851l-21.903,25.729
		c-1.133,1.331-2.794,2.099-4.542,2.099s-3.409-0.767-4.542-2.099l-21.903-25.729v44.851c0,3.294-2.671,5.965-5.965,5.965
		s-5.965-2.671-5.965-5.965v-61.061c0-2.501,1.559-4.735,3.905-5.598c2.344-0.863,4.981-0.173,6.602,1.731l27.869,32.737
		l27.869-32.737c1.62-1.904,4.257-2.596,6.602-1.731c2.347,0.864,3.905,3.098,3.905,5.598v61.061
		C383.642,394.352,380.97,397.023,377.676,397.023z"/>
	<path style="fill:#EC589B;" d="M255.999,397.019c-17.941,0-32.536-16.372-32.536-36.496c0-20.124,14.596-36.496,32.536-36.496
		s32.537,16.372,32.537,36.496C288.536,380.647,273.939,397.019,255.999,397.019z M255.999,335.957
		c-11.361,0-20.605,11.02-20.605,24.565s9.244,24.565,20.605,24.565c11.363,0,20.606-11.019,20.606-24.565
		S267.361,335.957,255.999,335.957z"/>
</g>
<g>
	<path style="fill:#53C489;" d="M248.442,285.523c-3.294,0-5.965-2.671-5.965-5.965v-44.851l-21.903,25.731
		c-1.133,1.331-2.794,2.099-4.542,2.099c-1.748,0-3.409-0.767-4.542-2.099l-21.903-25.729v44.851c0,3.294-2.671,5.965-5.965,5.965
		c-3.294,0-5.965-2.671-5.965-5.965v-61.061c0-2.501,1.559-4.735,3.905-5.598c2.342-0.865,4.981-0.173,6.602,1.731l27.869,32.737
		l27.869-32.737c1.62-1.904,4.257-2.595,6.602-1.731c2.347,0.864,3.905,3.098,3.905,5.598v61.061
		C254.407,282.852,251.736,285.523,248.442,285.523z"/>
	<path style="fill:#53C489;" d="M302.727,285.523c-3.294,0-5.965-2.671-5.965-5.965v-30.534c0-1.404,0.495-2.762,1.398-3.837
		l25.651-30.527c2.12-2.522,5.883-2.849,8.404-0.73c2.522,2.119,2.849,5.883,0.73,8.404l-24.252,28.862v28.36
		C308.693,282.852,306.021,285.523,302.727,285.523z"/>
	<path style="fill:#53C489;" d="M302.737,254.992c-1.701,0-3.389-0.723-4.569-2.127l-25.658-30.53
		c-2.12-2.522-1.793-6.285,0.729-8.404c2.522-2.12,6.286-1.793,8.404,0.729l25.658,30.53c2.12,2.522,1.793,6.285-0.729,8.404
		C305.453,254.533,304.091,254.992,302.737,254.992z"/>
</g>
<g>
</g>
<g>
</g>
<g>
</g>
<g>
</g>
<g>
</g>
<g>
</g>
<g>
</g>
<g>
</g>
<g>
</g>
<g>
</g>
<g>
</g>
<g>
</g>
<g>
</g>
<g>
</g>
<g>
</g>
</svg>
