<?xml version="1.0" encoding="iso-8859-1"?>
<svg version="1.1" id="Layer_1" xmlns="http://www.w3.org/2000/svg" xmlns:xlink="http://www.w3.org/1999/xlink" x="0px" y="0px"
	 viewBox="0 0 512 512" style="enable-background:new 0 0 512 512;" xml:space="preserve">
<circle style="fill:#F5E038;" cx="256" cy="179.2" r="136.533"/>
<path style="fill:#754F1E;" d="M341.333,264.533H170.667V153.6c0-37.702,30.564-68.267,68.267-68.267h34.133
	c37.702,0,68.267,30.564,68.267,68.267V264.533z"/>
<circle style="fill:#FFF2BA;" cx="256" cy="187.733" r="59.733"/>
<path style="fill:#F9C900;" d="M298.667,229.521c10.553-10.773,17.067-25.517,17.067-41.788C315.733,154.743,288.99,128,256,128
	s-59.733,26.743-59.733,59.733c0,16.271,6.514,31.015,17.067,41.788v-33.254c0-4.713,3.821-8.533,8.533-8.533h68.267
	c4.713,0,8.533,3.821,8.533,8.533V229.521z"/>
<path style="fill:#9E6D4A;" d="M273.067,85.333h-34.133c-37.702,0-68.267,30.564-68.267,68.267v110.933h42.667V179.2
	c0-4.713,3.821-8.533,8.533-8.533h68.267c4.713,0,8.533,3.821,8.533,8.533v85.333h42.667V153.6
	C341.333,115.898,310.769,85.333,273.067,85.333z"/>
<path style="fill:#FFF2BA;" d="M93.65,366.026l-29.437,17.279c-8.129,4.771-18.587,2.05-23.358-6.079
	c-4.771-8.129-2.05-18.587,6.079-23.358l29.437-17.279L93.65,366.026z"/>
<path style="fill:#F1EDE8;" d="M170.667,264.533L67.27,328.162c-4.117,2.533-5.31,7.979-2.628,12.001l24.893,37.34
	c2.452,3.678,7.306,4.875,11.186,2.758l87.012-47.461v-68.267H170.667z"/>
<polygon style="fill:#E3DCD2;" points="170.667,264.533 187.733,264.533 187.733,332.8 141.558,357.986 152.146,275.931 "/>
<path style="fill:#FFF2BA;" d="M418.35,366.026l29.437,17.279c8.129,4.771,18.587,2.05,23.358-6.079
	c4.771-8.129,2.05-18.587-6.079-23.358l-29.437-17.279L418.35,366.026z"/>
<path style="fill:#F1EDE8;" d="M341.333,264.533l103.396,63.629c4.117,2.533,5.31,7.979,2.628,12.001l-24.893,37.34
	c-2.452,3.678-7.306,4.875-11.186,2.758L324.267,332.8v-68.267H341.333z"/>
<polygon style="fill:#E3DCD2;" points="341.333,264.533 324.267,264.533 324.267,332.8 370.442,357.986 359.854,275.931 "/>
<path style="fill:#F1EDE8;" d="M365.676,512H146.324c-5.177,0-9.161-4.572-8.453-9.699l32.796-237.767h170.667l32.796,237.767
	C374.836,507.428,370.852,512,365.676,512z"/>
<path style="fill:#F9C900;" d="M153.605,264.544c-2.592,0.001-5.152-1.177-6.829-3.407c-17.866-23.781-27.31-52.114-27.31-81.937
	c0-75.284,61.249-136.533,136.533-136.533S392.533,103.916,392.533,179.2c0,29.818-9.441,58.147-27.301,81.925
	c-2.83,3.769-8.18,4.528-11.948,1.698c-3.767-2.83-4.528-8.179-1.698-11.948c15.623-20.8,23.881-45.584,23.881-71.676
	c0-65.874-53.593-119.467-119.467-119.467S136.533,113.326,136.533,179.2c0,26.096,8.26,50.884,23.888,71.684
	c2.831,3.769,2.071,9.118-1.696,11.949C157.188,263.986,155.39,264.544,153.605,264.544z"/>
<g>
	<path style="fill:#F9AA0C;" d="M256,34.133c-4.713,0-8.533-3.821-8.533-8.533V8.533C247.467,3.821,251.287,0,256,0
		c4.713,0,8.533,3.821,8.533,8.533V25.6C264.533,30.313,260.713,34.133,256,34.133z"/>
	<path style="fill:#F9AA0C;" d="M174.942,55.856c-2.95,0-5.818-1.531-7.398-4.268l-8.533-14.78c-2.357-4.081-0.958-9.3,3.123-11.657
		c4.084-2.358,9.301-0.957,11.657,3.123l8.533,14.78C185.54,48.626,181.412,55.856,174.942,55.856z"/>
	<path style="fill:#F9AA0C;" d="M115.58,115.201c-1.447,0-2.914-0.369-4.258-1.145l-14.78-8.533
		c-4.081-2.356-5.481-7.575-3.123-11.657c2.355-4.082,7.575-5.481,11.657-3.123l14.78,8.533c4.081,2.356,5.481,7.575,3.123,11.657
		C121.398,113.67,118.529,115.201,115.58,115.201z"/>
	<path style="fill:#F9AA0C;" d="M93.867,196.267H76.8c-4.713,0-8.533-3.821-8.533-8.533c0-4.713,3.821-8.533,8.533-8.533h17.067
		c4.713,0,8.533,3.821,8.533,8.533C102.4,192.446,98.579,196.267,93.867,196.267z"/>
	<path style="fill:#F9AA0C;" d="M100.817,285.868c-2.95,0-5.818-1.531-7.398-4.268c-2.357-4.081-0.958-9.3,3.123-11.657l14.78-8.533
		c4.083-2.358,9.301-0.957,11.657,3.123c2.357,4.081,0.958,9.3-3.123,11.657l-14.78,8.533
		C103.731,285.499,102.263,285.868,100.817,285.868z"/>
	<path style="fill:#F9AA0C;" d="M411.183,285.868c-1.447,0-2.914-0.369-4.258-1.145l-14.78-8.533
		c-4.081-2.356-5.481-7.575-3.123-11.657c2.355-4.082,7.574-5.481,11.657-3.123l14.78,8.533c4.081,2.356,5.481,7.575,3.123,11.657
		C417.001,284.337,414.132,285.868,411.183,285.868z"/>
	<path style="fill:#F9AA0C;" d="M435.2,196.267h-17.067c-4.713,0-8.533-3.821-8.533-8.533c0-4.713,3.821-8.533,8.533-8.533H435.2
		c4.713,0,8.533,3.821,8.533,8.533C443.733,192.446,439.913,196.267,435.2,196.267z"/>
	<path style="fill:#F9AA0C;" d="M396.42,115.201c-2.95,0-5.818-1.531-7.398-4.268c-2.357-4.081-0.958-9.3,3.123-11.657l14.78-8.533
		c4.083-2.357,9.301-0.956,11.657,3.123c2.357,4.081,0.958,9.3-3.123,11.657l-14.78,8.533
		C399.334,114.832,397.867,115.201,396.42,115.201z"/>
	<path style="fill:#F9AA0C;" d="M337.058,55.856c-6.469,0-10.599-7.23-7.381-12.801l8.533-14.78
		c2.355-4.082,7.575-5.482,11.657-3.123c4.081,2.356,5.481,7.575,3.123,11.657l-8.533,14.78
		C342.876,54.326,340.007,55.856,337.058,55.856z"/>
</g>
<path style="fill:#754F1E;" d="M281.6,324.267h-17.067V307.2c0-4.713-3.821-8.533-8.533-8.533c-4.713,0-8.533,3.821-8.533,8.533
	v17.067H230.4c-4.713,0-8.533,3.821-8.533,8.533s3.821,8.533,8.533,8.533h17.067V409.6c0,4.713,3.821,8.533,8.533,8.533
	c4.713,0,8.533-3.821,8.533-8.533v-68.267H281.6c4.713,0,8.533-3.821,8.533-8.533S286.313,324.267,281.6,324.267z"/>
</svg>
