<?xml version="1.0" encoding="iso-8859-1"?>
<svg version="1.1" id="Capa_1" xmlns="http://www.w3.org/2000/svg" xmlns:xlink="http://www.w3.org/1999/xlink" x="0px" y="0px"
	 viewBox="0 0 455.111 455.111" style="enable-background:new 0 0 455.111 455.111;" xml:space="preserve">
<path style="fill:#D34178;" d="M406.756,455.111h-358.4C21.333,455.111,0,433.778,0,406.756v-358.4C0,21.333,21.333,0,48.356,0
	h358.4c27.022,0,48.356,21.333,48.356,48.356v358.4C455.111,433.778,433.778,455.111,406.756,455.111z"/>
<path style="fill:#E84E89;" d="M366.933,0c-17.067,73.956-61.156,153.6-129.422,221.867C164.978,294.4,78.222,339.911,0,354.133
	V48.356C0,21.333,21.333,0,48.356,0H366.933z"/>
<g>
	<path style="fill:#FFFFFF;" d="M337.067,307.2c-25.6,39.822-71.111,66.844-122.311,66.844
		c-81.067,0-146.489-65.422-146.489-146.489s64-146.489,145.067-146.489c51.2,0,96.711,27.022,122.311,66.844
		c-21.333-24.178-52.622-38.4-88.178-38.4C182.044,109.511,128,162.133,128,228.978c0,65.422,52.622,119.467,119.467,119.467
		C283.022,347.022,314.311,331.378,337.067,307.2z"/>
	<polygon style="fill:#FFFFFF;" points="318.578,162.133 339.911,204.8 388.267,211.911 352.711,246.044 361.244,292.978
		318.578,270.222 275.911,292.978 284.444,246.044 248.889,211.911 297.244,204.8 	"/>
</g>
<g>
</g>
<g>
</g>
<g>
</g>
<g>
</g>
<g>
</g>
<g>
</g>
<g>
</g>
<g>
</g>
<g>
</g>
<g>
</g>
<g>
</g>
<g>
</g>
<g>
</g>
<g>
</g>
<g>
</g>
</svg>
