<?xml version="1.0" encoding="iso-8859-1"?>
<svg version="1.1" id="Layer_1" xmlns="http://www.w3.org/2000/svg" xmlns:xlink="http://www.w3.org/1999/xlink" x="0px" y="0px"
	 viewBox="0 0 512 512" style="enable-background:new 0 0 512 512;" xml:space="preserve">
<g>
	<path style="fill:#FFCB85;" d="M393.723,177.533H118.277c-16.003,0-28.975,13.461-28.975,30.067s12.972,30.067,28.975,30.067
		h275.444c16.003,0,28.975-13.461,28.975-30.067C422.698,190.995,409.725,177.533,393.723,177.533z"/>
	<rect x="137.757" y="137.702" style="fill:#FFCB85;" width="236.498" height="206.855"/>
</g>
<g>
	<path style="fill:#9E6134;" d="M256,287.402c-4.854,0-8.79,3.936-8.79,8.79v37.368h17.579v-37.368
		C264.79,291.337,260.854,287.402,256,287.402z"/>
	<path style="fill:#9E6134;" d="M363.261,126.709v114.929l-56.477,32.327c0,0-2.997,48.607-50.784,48.607
		s-50.784-48.607-50.784-48.607l-56.477-32.327V126.709l-30.462,21.974v216.805c0,76.062,61.661,137.723,137.723,137.723
		s137.723-61.661,137.723-137.723V148.683L363.261,126.709z"/>
	<path style="fill:#9E6134;" d="M333.515,293.744c-1.114,0-2.245-0.212-3.338-0.663l-62.464-25.671
		c-4.49-1.846-6.634-6.981-4.788-11.471s6.981-6.635,11.471-4.788l62.464,25.671c4.49,1.845,6.634,6.981,4.788,11.471
		C340.253,291.689,336.973,293.744,333.515,293.744z"/>
	<path style="fill:#9E6134;" d="M179.241,293.744c-3.426,0-6.681-2.014-8.1-5.368c-1.891-4.471,0.201-9.629,4.672-11.519
		l60.702-25.671c4.473-1.891,9.628,0.2,11.519,4.672c1.891,4.471-0.201,9.629-4.672,11.519l-60.702,25.671
		C181.541,293.52,180.382,293.744,179.241,293.744z"/>
</g>
<g>
	<path style="fill:#493123;" d="M229.902,200.958h-35.305c-4.854,0-8.79-3.936-8.79-8.79s3.936-8.79,8.79-8.79h35.305
		c4.854,0,8.79,3.936,8.79,8.79S234.756,200.958,229.902,200.958z"/>
	<path style="fill:#493123;" d="M318.808,200.958h-35.305c-4.854,0-8.79-3.936-8.79-8.79s3.936-8.79,8.79-8.79h35.305
		c4.854,0,8.79,3.936,8.79,8.79S323.662,200.958,318.808,200.958z"/>
	<polygon style="fill:#493123;" points="370.163,8.79 141.837,8.79 124.796,109.98 256,131.954 387.204,109.98 	"/>
</g>
<polygon style="fill:#76472D;" points="124.796,109.98 118.277,148.683 393.723,148.683 387.204,109.98 "/>
<path style="fill:#493123;" d="M503.21,157.473H8.79c-4.854,0-8.79-3.936-8.79-8.79s3.936-8.79,8.79-8.79H503.21
	c4.854,0,8.79,3.936,8.79,8.79S508.064,157.473,503.21,157.473z"/>
</svg>
