<?xml version="1.0" encoding="iso-8859-1"?>
<svg version="1.1" id="Layer_1" xmlns="http://www.w3.org/2000/svg" xmlns:xlink="http://www.w3.org/1999/xlink" x="0px" y="0px"
	 viewBox="0 0 512 512" style="enable-background:new 0 0 512 512;">
<g>
	<path style="fill:#FFBA12;" d="M442.919,69.083c-28.248,12.346-47.997,40.519-47.997,73.318s19.749,60.973,47.997,73.319
		c28.248-12.346,47.996-40.519,47.996-73.319S471.166,81.428,442.919,69.083z"/>
	<path style="fill:#FFBA12;" d="M69.083,69.083c-28.248,12.346-47.997,40.519-47.997,73.318s19.749,60.973,47.997,73.319
		c28.248-12.346,47.996-40.519,47.996-73.319S97.33,81.428,69.083,69.083z"/>
</g>
<path style="fill:#FF8227;" d="M256.001,1.112c-28.248,12.346-47.997,40.519-47.997,73.318s19.749,60.973,47.997,73.319
	c28.248-12.346,47.996-40.519,47.996-73.319S284.248,13.458,256.001,1.112z"/>
<g>
	<path style="fill:#991B17;" d="M256.001,77.274c-4.693,0-8.496,3.804-8.496,8.496v110.328h16.993V85.77
		C264.497,81.077,260.693,77.274,256.001,77.274z"/>
	<path style="fill:#991B17;" d="M442.919,145.244c-4.693,0-8.496,3.804-8.496,8.496v110.328h16.993V153.741
		C451.415,149.047,447.611,145.244,442.919,145.244z"/>
	<path style="fill:#991B17;" d="M69.083,145.244c-4.693,0-8.496,3.804-8.496,8.496v110.328h16.993V153.741
		C77.579,149.047,73.775,145.244,69.083,145.244z"/>
</g>
<path style="fill:#F1CF91;" d="M306.957,173.441H205.043c-9.969,0-18.125,8.156-18.125,18.125v319.322h138.164V191.566
	C325.082,181.597,316.926,173.441,306.957,173.441z"/>
<g>
	<path style="fill:#FF392C;" d="M493.875,241.411H391.961c-9.969,0-18.125,8.156-18.125,18.125v251.351H512V259.536
		C512,249.567,503.844,241.411,493.875,241.411z"/>
	<path style="fill:#FF392C;" d="M120.039,241.411H18.125C8.156,241.411,0,249.567,0,259.536v251.351h138.164V259.536
		C138.164,249.567,130.008,241.411,120.039,241.411z"/>
</g>
</svg>
