<?xml version="1.0" encoding="iso-8859-1"?>
<svg version="1.1" id="Layer_1" xmlns="http://www.w3.org/2000/svg" xmlns:xlink="http://www.w3.org/1999/xlink" x="0px" y="0px"
	 viewBox="0 0 512 512" style="enable-background:new 0 0 512 512;">
<path style="fill:#FF4B26;" d="M495.304,439.652H16.696C7.479,439.652,0,432.179,0,422.957V89.043
	c0-9.223,7.479-16.696,16.696-16.696h478.609c9.217,0,16.696,7.473,16.696,16.696v333.913
	C512,432.179,504.521,439.652,495.304,439.652z"/>
<path style="fill:#D93F21;" d="M495.304,72.348H256v367.304h239.304c9.217,0,16.696-7.473,16.696-16.696V89.043
	C512,79.821,504.521,72.348,495.304,72.348z"/>
<rect y="105.739" style="fill:#E6F3FF;" width="478.609" height="300.522"/>
<rect x="256" y="105.739" style="fill:#CFDBE6;" width="256" height="300.522"/>
<g>
	<rect x="267.13" y="205.913" style="fill:#D93F21;" width="244.87" height="33.391"/>
	<rect x="267.13" y="139.13" style="fill:#D93F21;" width="244.87" height="33.391"/>
</g>
<path style="fill:#2E8AE6;" d="M300.522,306.087H0V89.043c0-9.22,7.475-16.696,16.696-16.696h283.826V306.087z"/>
<rect x="256" y="72.348" style="fill:#3D6ECC;" width="44.522" height="233.739"/>
<g>
	<circle style="fill:#E6F3FF;" cx="83.478" cy="155.826" r="16.696"/>
	<circle style="fill:#E6F3FF;" cx="116.87" cy="222.609" r="16.696"/>
	<circle style="fill:#E6F3FF;" cx="183.652" cy="222.609" r="16.696"/>
	<circle style="fill:#E6F3FF;" cx="150.261" cy="155.826" r="16.696"/>
	<circle style="fill:#E6F3FF;" cx="217.043" cy="155.826" r="16.696"/>
</g>
<rect y="272.696" style="fill:#FF4B26;" width="512" height="33.391"/>
<rect x="256" y="272.696" style="fill:#D93F21;" width="256" height="33.391"/>
<rect y="339.478" style="fill:#FF4B26;" width="512" height="33.391"/>
<rect x="256" y="339.478" style="fill:#D93F21;" width="256" height="33.391"/>
<g>
</g>
<g>
</g>
<g>
</g>
<g>
</g>
<g>
</g>
<g>
</g>
<g>
</g>
<g>
</g>
<g>
</g>
<g>
</g>
<g>
</g>
<g>
</g>
<g>
</g>
<g>
</g>
<g>
</g>
</svg>
