<?xml version="1.0" encoding="iso-8859-1"?>
<svg version="1.1" id="Layer_1" xmlns="http://www.w3.org/2000/svg" xmlns:xlink="http://www.w3.org/1999/xlink" x="0px" y="0px"
	 viewBox="0 0 512.1 512.1" style="enable-background:new 0 0 512.1 512.1;">
<g>
	<path style="fill:#F5F5F5;" d="M503.5,373.95h-468c-4.7,0-8.5-3.8-8.5-8.5V64.65c0-4.7,3.8-8.5,8.5-8.5h468.1
		c4.7,0,8.5,3.8,8.5,8.5v300.8C512,370.15,508.2,373.95,503.5,373.95z"/>
	<rect x="135.7" y="56.25" style="fill:#F5F5F5;" width="267.5" height="317.7"/>
</g>
<g>
	<path style="fill:#FF4B55;" d="M35.4,56.25c-4.6,0-8.3,3.7-8.3,8.3v301c0,4.6,3.7,8.3,8.3,8.3h100.3V56.15L35.4,56.25L35.4,56.25z"
		/>
	<path style="fill:#FF4B55;" d="M503.7,56.25H403.3v317.7h100.3c4.6,0,8.3-3.7,8.3-8.3v-301C512,59.95,508.3,56.25,503.7,56.25z"/>
	<path style="fill:#FF4B55;" d="M320.3,251.75l49.6-28.4l-11.4-5.7c-3.2-1.6-5-5.1-4.6-8.6l3.7-27.8l-21,6.1
		c-4.6,1.3-9.4-1.5-10.5-6.2l-2-9.1l-19.7,23.1c-2.8,3.2-8,0.8-7.3-3.4l8.4-49l-12.9,3.6c-3.8,1-7.8-0.7-9.6-4.1l-13.6-25.4v-0.1
		l0,0l0,0v0.1l-13.4,25.5c-1.9,3.5-5.8,5.1-9.6,4.1l-12.9-3.5l8.4,49c0.7,4.2-4.5,6.6-7.3,3.4l-19.7-23.1l-2,9.1
		c-1,4.7-5.8,7.6-10.5,6.2l-21-6.1l3.7,27.8c0.4,3.5-1.3,7-4.6,8.6l-11.4,5.7l49.6,28.4c5.1,3,7.4,9.2,5.3,14.7l-4.2,11.4l42.5-3.7
		c2.4-0.2,4.4,1.7,4.3,4l-1.3,45.5h8.3l-1.3-45.5c-0.1-2.4,1.9-4.2,4.3-4l42.6,3.7l-4.2-11.4
		C312.9,260.95,315.1,254.75,320.3,251.75z"/>
</g>
<path style="fill:#2E3033;" d="M19.1,488.15L19.1,488.15c-10.6,0-19.1-8.6-19.1-19.1V42.85c0-10.5,8.5-18.9,18.9-18.9H19
	c10.6,0,19.1,8.6,19.1,19.1v426C38.3,479.55,29.7,488.15,19.1,488.15z"/>
<g>
</g>
<g>
</g>
<g>
</g>
<g>
</g>
<g>
</g>
<g>
</g>
<g>
</g>
<g>
</g>
<g>
</g>
<g>
</g>
<g>
</g>
<g>
</g>
<g>
</g>
<g>
</g>
<g>
</g>
</svg>
