<?xml version="1.0" encoding="iso-8859-1"?>
<svg version="1.1" id="Capa_1" xmlns="http://www.w3.org/2000/svg" xmlns:xlink="http://www.w3.org/1999/xlink" x="0px" y="0px"
	 viewBox="0 0 58 58" style="enable-background:new 0 0 58 58;">
<rect x="12" y="31.45" style="fill:#8697CB;" width="4" height="19.05"/>
<path style="fill:#556080;" d="M16,44.578V50.5h-4v-5.922C5.772,45.023,1,47.501,1,50.5c0,3.314,5.82,6,13,6s13-2.686,13-6
	C27,47.501,22.228,45.023,16,44.578z"/>
<path style="fill:#CB8252;" d="M55.773,23.312c-2.843-2.843-7.776-2.867-12.786-0.572c2.481,0.242,7.247,1.653,8.581,8.789
	c0.101,0.542-0.257,1.065-0.8,1.167c-0.062,0.012-0.124,0.017-0.185,0.017c-0.472,0-0.893-0.335-0.982-0.816
	c-1.466-7.844-7.633-7.221-7.897-7.191c-0.493,0.065-0.928-0.261-1.061-0.725c-1.648,0.996-3.266,2.24-4.789,3.713
	c1.653-0.062,8.074,0.202,10.675,7.69c0.182,0.521-0.095,1.091-0.616,1.273c-0.108,0.038-0.219,0.056-0.328,0.056
	c-0.414,0-0.801-0.259-0.945-0.672c-2.455-7.068-8.667-6.371-8.93-6.336c-0.504,0.064-0.956-0.269-1.079-0.751
	c-1.1,1.204-2.057,2.46-2.867,3.739c1.498-0.102,7.544-0.009,9.781,7.743c0.153,0.531-0.153,1.085-0.684,1.238
	c-0.093,0.026-0.186,0.04-0.278,0.04c-0.434,0-0.834-0.285-0.96-0.723c-2.047-7.094-7.648-6.327-7.883-6.29
	c-0.367,0.053-0.708-0.108-0.925-0.378c-2.86,5.397-3.066,10.887-0.003,13.949c4.296,4.296,13.366,2.191,20.258-4.702
	C57.963,36.678,60.068,27.608,55.773,23.312z"/>
<path style="fill:#EA9D73;" d="M31.741,34.701c0.235-0.038,5.836-0.804,7.883,6.29c0.126,0.438,0.526,0.723,0.96,0.723
	c0.092,0,0.185-0.013,0.278-0.04c0.531-0.153,0.836-0.708,0.684-1.238c-2.237-7.752-8.283-7.845-9.781-7.743
	c-0.343,0.541-0.659,1.085-0.949,1.63C31.032,34.593,31.374,34.754,31.741,34.701z"/>
<path style="fill:#EA9D73;" d="M35.71,29.706c0.263-0.035,6.475-0.732,8.93,6.336c0.144,0.413,0.531,0.672,0.945,0.672
	c0.109,0,0.22-0.018,0.328-0.056c0.521-0.182,0.798-0.751,0.616-1.273c-2.601-7.488-9.022-7.752-10.675-7.69
	c-0.112,0.109-0.229,0.208-0.34,0.319c-0.308,0.308-0.594,0.624-0.883,0.94C34.755,29.436,35.206,29.77,35.71,29.706z"/>
<path style="fill:#EA9D73;" d="M41.705,24.706c0.264-0.03,6.431-0.653,7.897,7.191c0.09,0.481,0.511,0.816,0.982,0.816
	c0.061,0,0.123-0.005,0.185-0.017c0.543-0.102,0.9-0.624,0.8-1.167c-1.334-7.136-6.101-8.547-8.581-8.789
	c-0.782,0.359-1.565,0.77-2.343,1.241C40.776,24.445,41.211,24.771,41.705,24.706z"/>
<ellipse style="fill:#EEAF4B;" cx="14" cy="6" rx="14" ry="4.5"/>
<g>
	<path style="fill:#F3D55B;" d="M14,10.5c-7.517,0-13.632-1.906-13.968-4.295C0.021,6.311,0,6.415,0,6.524v13.167
		c0,4.193,1.593,8.304,4.671,11.152C9.068,34.912,14,34.487,14,34.487s4.932,0.425,9.329-3.644C26.407,27.995,28,23.884,28,19.691
		V6.524c0-0.109-0.021-0.213-0.032-0.319C27.632,8.594,21.517,10.5,14,10.5z"/>
</g>
<polygon style="fill:#EEAF4B;" points="21,17.5 16,17.5 16.018,13.5 12,13.5 12,17.5 7,17.5 7,21.518 12,21.5 12,30.5 16.018,30.5
	16.018,21.518 21,21.5 "/>
<g>
</g>
<g>
</g>
<g>
</g>
<g>
</g>
<g>
</g>
<g>
</g>
<g>
</g>
<g>
</g>
<g>
</g>
<g>
</g>
<g>
</g>
<g>
</g>
<g>
</g>
<g>
</g>
<g>
</g>
</svg>
