<?xml version="1.0" encoding="iso-8859-1"?>
<!-- Generator: Adobe Illustrator 17.1.0, SVG Export Plug-In . SVG Version: 6.00 Build 0)  -->
<!DOCTYPE svg PUBLIC "-//W3C//DTD SVG 1.1//EN" "http://www.w3.org/Graphics/SVG/1.1/DTD/svg11.dtd">
<svg xmlns="http://www.w3.org/2000/svg" xmlns:xlink="http://www.w3.org/1999/xlink" version="1.1" id="Capa_1" x="0px" y="0px" viewBox="0 0 466 466" style="enable-background:new 0 0 466 466;">
<g><path d="M143.892,312.877c1.314,0.816,2.772,1.205,4.213,1.205c2.675,0,5.289-1.341,6.804-3.78   c2.331-3.753,1.178-8.686-2.575-11.017c-45.365-28.176-72.449-76.837-72.449-130.169C79.884,84.688,148.572,16,233,16   s153.116,68.688,153.116,153.116c0,53.332-27.083,101.993-72.448,130.169c-3.753,2.331-4.906,7.264-2.575,11.017   c2.331,3.753,7.263,4.905,11.017,2.575c23.996-14.904,44.055-35.754,58.007-60.296c14.392-25.315,21.999-54.177,21.999-83.464   C402.116,75.865,326.25,0,233,0S63.884,75.865,63.884,169.116c0,29.287,7.607,58.149,22,83.465   C99.836,277.123,119.895,297.973,143.892,312.877z" fill="#f0f000"/><path d="M233,117.843c-45.235,0-82.036,36.801-82.036,82.036c0,45.235,36.801,82.037,82.036,82.037s82.036-36.801,82.036-82.037   C315.036,154.645,278.235,117.843,233,117.843z M233,265.916c-36.413,0-66.036-29.624-66.036-66.037s29.624-66.036,66.036-66.036   s66.036,29.624,66.036,66.036S269.413,265.916,233,265.916z" fill="#f0f000"/><path d="M324.747,331.825c-0.199-0.175-0.408-0.343-0.628-0.501c-0.167-0.12-0.339-0.225-0.511-0.33   c-25.563-18.289-56.85-29.066-90.608-29.066c-33.758,0-65.045,10.777-90.608,29.066c-0.172,0.105-0.345,0.21-0.511,0.33   c-0.22,0.158-0.429,0.326-0.628,0.501C102.296,360.23,76.927,406.205,76.927,458c0,4.418,3.582,8,8,8s8-3.582,8-8   c0-43.875,20.283-83.096,51.958-108.799l81.62,113.47c1.503,2.09,3.92,3.329,6.495,3.329s4.991-1.239,6.495-3.329l81.62-113.47   c31.675,25.703,51.958,64.924,51.958,108.799c0,4.418,3.582,8,8,8s8-3.582,8-8C389.073,406.205,363.704,360.23,324.747,331.825z    M233,444.3l-75.141-104.463c21.727-13.865,47.511-21.909,75.141-21.909s53.414,8.044,75.141,21.909L233,444.3z" fill="#f0f000"/></g></svg>
