<?xml version="1.0" encoding="iso-8859-1"?>
<!-- Generator: Adobe Illustrator 19.0.0, SVG Export Plug-In . SVG Version: 6.00 Build 0)  -->
<svg version="1.1" id="Capa_1" xmlns="http://www.w3.org/2000/svg" xmlns:xlink="http://www.w3.org/1999/xlink" x="0px" y="0px"
	 viewBox="0 0 426.667 426.667" style="enable-background:new 0 0 426.667 426.667;" xml:space="preserve">
<path style="fill:#D5D6DB;" d="M378.968,426.667l-331.269,0v-94.222c0-20.285,16.445-36.73,36.73-36.73l257.809,0
	c20.285,0,36.73,16.445,36.73,36.73V426.667z"/>
<rect x="94.933" y="258.773" style="fill:#64798A;" width="242.342" height="36.932"/>
<g>
	<rect x="313.6" y="263.467" style="fill:#D5D6DB;" width="11.627" height="27.575"/>
	<rect x="294.784" y="263.467" style="fill:#D5D6DB;" width="11.627" height="27.575"/>
	<rect x="276.011" y="263.467" style="fill:#D5D6DB;" width="11.627" height="27.575"/>
	<rect x="257.237" y="263.467" style="fill:#D5D6DB;" width="11.627" height="27.575"/>
	<rect x="238.468" y="263.467" style="fill:#D5D6DB;" width="11.627" height="27.575"/>
	<rect x="219.691" y="263.467" style="fill:#D5D6DB;" width="11.627" height="27.575"/>
	<rect x="200.917" y="263.467" style="fill:#D5D6DB;" width="11.627" height="27.575"/>
	<rect x="182.131" y="263.467" style="fill:#D5D6DB;" width="11.627" height="27.575"/>
	<rect x="163.371" y="263.467" style="fill:#D5D6DB;" width="11.627" height="27.575"/>
	<rect x="144.572" y="263.467" style="fill:#D5D6DB;" width="11.627" height="27.575"/>
	<rect x="125.794" y="263.467" style="fill:#D5D6DB;" width="11.627" height="27.575"/>
	<rect x="107.008" y="263.467" style="fill:#D5D6DB;" width="11.627" height="27.575"/>
	<path style="fill:#D5D6DB;" d="M94.94,258.782c0-50.7,54.215-118.999,121.172-118.999s121.172,68.299,121.172,118.999"/>
	<rect x="190.848" y="134.447" style="fill:#D5D6DB;" width="50.526" height="12.454"/>
</g>
<path style="fill:#3A556A;" d="M216.826,129.702c-2.62,0-4.744-2.122-4.744-4.744v-37.36c0-2.62,2.124-4.744,4.744-4.744
	c2.62,0,4.744,2.124,4.744,4.744v37.36C221.57,127.58,219.445,129.702,216.826,129.702z"/>
<rect x="200.917" y="115.456" style="fill:#64798A;" width="31.834" height="18.978"/>
<g>
	<path style="fill:#3A556A;" d="M363.61,426.667h-46.593v-62.779c0-9.65,7.823-17.472,17.472-17.472h11.648
		c9.65,0,17.473,7.823,17.473,17.472V426.667z"/>
	<path style="fill:#3A556A;" d="M300.12,426.667h-46.593v-62.779c0-9.65,7.823-17.472,17.473-17.472h11.648
		c9.65,0,17.472,7.823,17.472,17.472V426.667z"/>
	<path style="fill:#3A556A;" d="M236.63,426.667h-46.593v-62.779c0-9.65,7.823-17.472,17.473-17.472h11.648
		c9.65,0,17.473,7.823,17.473,17.472V426.667z"/>
	<path style="fill:#3A556A;" d="M173.14,426.667h-46.593v-62.779c0-9.65,7.823-17.472,17.472-17.472h11.648
		c9.65,0,17.472,7.823,17.472,17.472V426.667z"/>
	<path style="fill:#3A556A;" d="M109.65,426.667H63.057v-62.779c0-9.65,7.823-17.472,17.472-17.472h11.648
		c9.65,0,17.472,7.823,17.472,17.472V426.667z"/>
</g>
<rect x="86.357" y="250.871" style="fill:#64798A;" width="259.046" height="9.344"/>
<path style="fill:#3A556A;" d="M213.713,64.823C197.477,46.183,196.698,19.416,210.188,0c-3.816,1.936-7.478,4.309-10.852,7.247
	c-22.014,19.174-24.316,52.563-5.142,74.578s52.563,24.316,74.578,5.142c3.374-2.938,6.227-6.24,8.668-9.755
	C256.355,87.909,229.949,83.463,213.713,64.823z"/>
<g>
</g>
<g>
</g>
<g>
</g>
<g>
</g>
<g>
</g>
<g>
</g>
<g>
</g>
<g>
</g>
<g>
</g>
<g>
</g>
<g>
</g>
<g>
</g>
<g>
</g>
<g>
</g>
<g>
</g>
</svg>
