<?xml version="1.0" encoding="iso-8859-1"?>
<svg version="1.1" id="Layer_1" xmlns="http://www.w3.org/2000/svg" xmlns:xlink="http://www.w3.org/1999/xlink" x="0px" y="0px"
	 viewBox="0 0 512 512" style="enable-background:new 0 0 512 512;">
<circle style="fill:#66B31B;" cx="256" cy="256" r="256"/>
<path style="fill:#599B13;" d="M510.492,283.805L346.079,119.393l-62.495-16.82l-159.173,99.987l11.855,169.736l138.986,138.986
	C398.424,502.124,497.312,405.813,510.492,283.805z"/>
<path id="SVGCleanerId_0" style="fill:#CFDBE6;" d="M316.89,395.671c-77.138,0-139.671-62.533-139.671-139.671
	s62.533-139.671,139.671-139.671c10.012,0,19.775,1.062,29.191,3.065c-26.421-17.96-58.321-28.458-92.677-28.458
	c-91.164,0-165.066,73.902-165.066,165.066s73.902,165.066,165.066,165.066c34.356,0,66.257-10.5,92.677-28.46
	C336.665,394.609,326.901,395.671,316.89,395.671z"/>
<g>
	<path id="SVGCleanerId_0_1_" style="fill:#CFDBE6;" d="M316.89,395.671c-77.138,0-139.671-62.533-139.671-139.671
		s62.533-139.671,139.671-139.671c10.012,0,19.775,1.062,29.191,3.065c-26.421-17.96-58.321-28.458-92.677-28.458
		c-91.164,0-165.066,73.902-165.066,165.066s73.902,165.066,165.066,165.066c34.356,0,66.257-10.5,92.677-28.46
		C336.665,394.609,326.901,395.671,316.89,395.671z"/>
</g>
<path style="fill:#CFDBE6;" d="M316.89,116.327c10.012,0,19.775,1.062,29.191,3.065c-26.421-17.96-58.321-28.46-92.677-28.46
	c-90.972,0-164.748,73.594-165.059,164.492h88.89C177.543,178.552,239.944,116.327,316.89,116.327z"/>
<path style="fill:#B8C9D9;" d="M177.218,256c0-0.193,0.014-0.383,0.014-0.574H88.343c0,0.193-0.007,0.383-0.007,0.574
	c0,91.164,73.902,165.066,165.066,165.066c34.356,0,66.257-10.5,92.677-28.46c-9.416,2.003-19.178,3.065-29.191,3.065
	C239.75,395.673,177.218,333.138,177.218,256z"/>
<g>
	<polygon style="fill:#E6F3FF;" points="341.363,214.643 354.8,241.871 384.848,246.238 363.106,267.431 368.238,297.357
		341.363,283.227 314.489,297.357 319.621,267.431 297.879,246.238 327.927,241.871 	"/>
	<polygon style="fill:#E6F3FF;" points="341.363,214.643 354.8,241.871 384.848,246.238 363.106,267.431 368.238,297.357
		341.363,283.227 314.489,297.357 319.621,267.431 297.879,246.238 327.927,241.871 	"/>
</g>
<polygon style="fill:#CFDBE6;" points="341.363,214.643 354.8,241.871 384.848,246.238 363.106,267.431 368.238,297.357
	341.363,283.227 "/>
</svg>
