<?xml version="1.0" encoding="iso-8859-1"?>
<svg version="1.1" id="Layer_1" xmlns="http://www.w3.org/2000/svg" xmlns:xlink="http://www.w3.org/1999/xlink" x="0px" y="0px"
	 viewBox="0 0 512 512" style="enable-background:new 0 0 512 512;">
<g>
	<path style="fill:#B27214;" d="M287.227,206.567c13.536,13.699,59.715,37.424,59.715,62.28
		c0,53.501-53.676,139.111-107.259,138.738c-24.81-0.175-79.733-13.466-96.767-29.147c-12.929-11.868-31.187-32.831-36.142-50.132
		c-2.343-8.149-15.086-30.779-15.156-39.639c-0.07-8.243,32.003-29.147,33.88-36.795c17.884,14.783,40.817,23.655,65.836,23.655
		C236.08,275.528,273.225,246.58,287.227,206.567z"/>
	<path style="fill:#B27214;" d="M275.443,494.834l-34.584-9.706v-22.523c0-4.829-3.915-8.744-8.744-8.744
		c-4.829,0-8.744,3.915-8.744,8.744v23.288l-22.591,9.271c-4.468,1.834-6.603,6.942-4.77,11.409
		c1.387,3.381,4.651,5.426,8.092,5.426c1.105,0,2.23-0.211,3.317-0.656l25.23-10.354l38.068,10.684
		c4.646,1.305,9.476-1.407,10.782-6.057C282.805,500.966,280.093,496.14,275.443,494.834z"/>
	<polygon style="fill:#B27214;" points="315.802,40.537 315.336,88.442 250.933,105.406 210.396,48.232 258.616,0 	"/>
</g>
<path style="fill:#F7B239;" d="M380.636,85.061c0,0,57.372,8.826,53.315,47.264l-44.128-2.716l-19.307-1.189v-0.012l-19.028-24.916
	L380.636,85.061z"/>
<path style="fill:#F95428;" d="M389.823,129.609l-0.047,0.839c0,0,11.927,50.54-14.993,68.121
	c-9.105,5.946-18.934,6.191-28.086,3.777c-3.218-3.474-31.385-8.079-31.233-12.813c0.012-0.14-1.982-40.42,16.322-22.116
	c5.211-49.433-15.68-56.701-15.68-56.701L389.823,129.609z"/>
<path style="fill:#AA5217;" d="M388.61,308.394c0,86.181-70.162,155.981-156.494,155.374
	c-53.77-0.373-101.278-28.424-128.909-70.558c-2.973-4.535-5.724-9.234-8.219-14.084l22.28-33.332l36.736,0.07
	c17.033,15.681,39.686,25.334,64.495,25.509c53.583,0.373,97.151-42.95,97.151-96.452c0-24.856-14.888-54.656-28.424-68.355
	c3.882-11.064,5.981-22.991,5.981-35.372c0-0.093-0.012-13.582-1.143-20.414c-0.688-4.185-1.399-8.371-2.087-12.533
	c-0.909-5.421-1.795-10.808-2.612-16.124c-0.268-1.76-0.431-3.486-0.49-5.211v-0.012l33.472-33.472h0.012l11.251-11.262
	c3.509,0.128,7.088,0.688,10.679,1.737l38.345,11.146v0.012l-10.12,43.347v0.012c0,0-23.41,11.402-28.622,60.835
	c0,0.047,0,0.14-0.012,0.28c-0.152,4.733,1.597,9.339,4.815,12.813c0.035,0.047,0.082,0.082,0.117,0.128
	c1.69,1.807,3.474,3.731,4.687,5.165c16.567,19.423,28.435,42.985,33.833,68.914C387.479,286.825,388.61,297.481,388.61,308.394z"/>
<g>
	<polygon style="fill:#F7B239;" points="343.561,60.217 331.611,72.167 325.269,78.521 320.361,83.429 320.349,83.429
		298.349,57.99 303.351,52.988 315.802,40.537 	"/>
	<polygon style="fill:#F7B239;" points="320.349,83.429 315.336,88.442 286.877,116.901 286.877,116.913 270.613,133.176
		250.933,105.406 293.429,62.91 298.349,57.99 	"/>
</g>
<path style="fill:#8E4413;" d="M388.61,308.394c0,86.181-70.162,155.981-156.494,155.374
	c-53.77-0.373-101.278-28.424-128.909-70.558c33.122,23.865,77.775,41.295,133.853,31.572
	c134.797-23.364,148.03-145.838,148.274-148.228C387.479,286.825,388.61,297.481,388.61,308.394z"/>
<path style="fill:#F95428;" d="M126.431,301.352l-19.656,26.955L77.85,309.723v-0.012c-0.268-31.303,8.732-60.485,24.413-84.98
	c6.132,10.341,14.014,19.528,23.236,27.141c-1.877,7.648-2.845,15.634-2.775,23.877C122.794,284.61,124.088,293.203,126.431,301.352
	z"/>
<path style="fill:#8E4413;" d="M380.894,85.662c-69.054,11.168-91.343,52.013-91.343,52.013c-0.838-5.433-1.654-10.83-2.402-16.157
	c-0.245-1.764-0.386-3.492-0.422-5.217v-0.012l33.906-33.034h0.012l11.396-11.114c3.507,0.174,7.079,0.78,10.656,1.876
	L380.894,85.662z"/>
<polygon style="fill:#AA5217;" points="325.269,78.521 320.361,83.429 320.349,83.429 315.336,88.442 293.429,62.91 298.349,57.99
	303.351,52.988 "/>
<rect x="298.347" y="-4.356" transform="matrix(-0.7071 -0.7071 0.7071 -0.7071 455.8648 382.2132)" style="fill:#B27214;" width="17.488" height="202.1"/>
<path style="fill:#F7B239;" d="M154.004,345.865l-59.016,33.262c-10.761-20.869-16.928-44.454-17.138-69.404l48.581-8.371
	C131.386,318.653,141.074,333.996,154.004,345.865z"/>
<circle style="fill:#4D4D4D;" cx="351.484" cy="103.494" r="8.744"/>
<g>
</g>
<g>
</g>
<g>
</g>
<g>
</g>
<g>
</g>
<g>
</g>
<g>
</g>
<g>
</g>
<g>
</g>
<g>
</g>
<g>
</g>
<g>
</g>
<g>
</g>
<g>
</g>
<g>
</g>
</svg>
