<?xml version="1.0" encoding="iso-8859-1"?>
<svg version="1.1" id="Layer_1" xmlns="http://www.w3.org/2000/svg" xmlns:xlink="http://www.w3.org/1999/xlink" x="0px" y="0px"
	 viewBox="0 0 512 512" style="enable-background:new 0 0 512 512;">
<g>
	<path style="fill:#F95428;" d="M56.259,166.319H9.157c-5.057,0-9.157,4.1-9.157,9.157v161.048c0,5.057,4.1,9.157,9.157,9.157
		h47.102c36.434,0,66.075-29.641,66.075-66.075v-47.212C122.333,195.961,92.692,166.319,56.259,166.319z M104.019,279.606
		c0,26.335-21.425,47.761-47.761,47.761H18.314V184.633h37.945c26.335,0,47.761,21.425,47.761,47.761v47.212H104.019z"/>
	<path style="fill:#F95428;" d="M150.931,253.398c-5.057,0-9.157,4.1-9.157,9.157v73.969c0,5.057,4.1,9.157,9.157,9.157
		c5.057,0,9.157-4.1,9.157-9.157v-73.969C160.088,257.498,155.988,253.398,150.931,253.398z"/>
	<path style="fill:#F95428;" d="M390.086,237.04c5.057,0,9.157-4.1,9.157-9.157c0-5.057-4.1-9.157-9.157-9.157H150.931
		c-5.057,0-9.157,4.1-9.157,9.157c0,5.057,4.1,9.157,9.157,9.157h112.36v80.992c0,5.148-4.188,9.335-9.335,9.335
		c-5.148,0-9.335-4.188-9.335-9.335v-27.546c0-5.057-4.1-9.157-9.157-9.157s-9.157,4.1-9.157,9.157v27.546
		c0,5.148-4.188,9.335-9.337,9.335h-2.055c-5.149,0-9.337-4.188-9.337-9.335v-55.476c0-5.057-4.1-9.157-9.157-9.157
		c-5.057,0-9.157,4.1-9.157,9.157v55.476c0,15.246,12.404,27.65,27.651,27.65h2.055c7.103,0,13.59-2.693,18.494-7.112
		c4.902,4.419,11.389,7.112,18.492,7.112c15.246,0,27.65-12.404,27.65-27.65V237.04L390.086,237.04L390.086,237.04z"/>
	<path style="fill:#F95428;" d="M502.843,218.726h-36.986c-5.057,0-9.157,4.1-9.157,9.157c0,5.057,4.1,9.157,9.157,9.157h36.986
		c5.057,0,9.157-4.1,9.157-9.157C512,222.826,507.9,218.726,502.843,218.726z"/>
	<path style="fill:#F95428;" d="M395.736,327.367c-9.088,0-16.48-7.393-16.48-16.48v-6.211c0-22.612-18.395-41.007-41.006-41.007
		c-22.612,0-41.007,18.395-41.007,41.007c0,22.611,18.395,41.006,41.007,41.006c11.926,0,22.675-5.121,30.174-13.275
		c6.377,8.077,16.246,13.275,27.311,13.275c5.057,0,9.157-4.1,9.157-9.157C404.893,331.467,400.794,327.367,395.736,327.367z
		 M338.25,327.367c-12.513,0-22.693-10.179-22.693-22.691c0-12.514,10.179-22.693,22.693-22.693
		c12.512,0,22.691,10.179,22.691,22.693C360.942,317.188,350.763,327.367,338.25,327.367z"/>
	<path style="fill:#F95428;" d="M428.356,206.328c-5.057,0-9.157,4.1-9.157,9.157v121.039c0,5.057,4.1,9.157,9.157,9.157
		s9.157-4.1,9.157-9.157V215.485C437.514,210.428,433.414,206.328,428.356,206.328z"/>
	<path style="fill:#F95428;" d="M465.857,253.398c-5.057,0-9.157,4.1-9.157,9.157v73.969c0,5.057,4.1,9.157,9.157,9.157
		s9.157-4.1,9.157-9.157v-73.969C475.014,257.498,470.914,253.398,465.857,253.398z"/>
</g>
<g>
</g>
<g>
</g>
<g>
</g>
<g>
</g>
<g>
</g>
<g>
</g>
<g>
</g>
<g>
</g>
<g>
</g>
<g>
</g>
<g>
</g>
<g>
</g>
<g>
</g>
<g>
</g>
<g>
</g>
</svg>
