<?xml version="1.0" encoding="iso-8859-1"?>
<svg version="1.1" id="Layer_1" xmlns="http://www.w3.org/2000/svg" xmlns:xlink="http://www.w3.org/1999/xlink" x="0px" y="0px"
	 viewBox="0 0 512.001 512.001" style="enable-background:new 0 0 512.001 512.001;">
<g>
	<path style="fill:#FFC033;" d="M266.92,386.226c-0.335,17.066-3.904,32.124-10.708,45.398c0,0.112-0.112,0.112-0.112,0.223
		c-11.266,21.974-31.456,38.594-60.455,49.636c-12.159,4.573-24.985,6.916-38.038,6.916c-26.211,0-53.427-9.146-79.528-27.216
		C32.792,430.062,0,378.641,0,338.932c0-9.258,7.472-16.731,16.731-16.731c9.258,0,16.731,7.473,16.731,16.731
		c0,24.985,23.757,67.26,63.579,94.699c17.289,11.935,51.532,29.894,86.668,16.508c33.351-12.716,49.189-33.24,49.748-64.471
		c0.67-40.713-24.651-83.656-82.986-88.23c-8.366-0.669-14.948-7.362-15.504-15.727c-0.446-8.366,5.354-15.839,13.608-17.401
		c43.055-8.254,69.714-25.878,73.17-48.409c2.9-18.628-10.038-39.597-31.342-51.086c-12.158-6.581-43.837-18.628-76.741,11.043
		c-6.804,6.135-17.402,5.577-23.535-1.339c-6.245-6.804-5.689-17.401,1.227-23.535c33.24-30.005,77.297-36.028,114.888-15.616
		c34.133,18.404,53.653,52.759,48.632,85.553c-2.455,15.951-12.27,40.713-47.405,59.006c22.085,12.27,39.151,30.897,49.078,53.763
		C263.574,349.417,267.256,367.152,266.92,386.226z"/>
	<path style="fill:#FFC033;" d="M469.257,40.334c0,68.374-55.659,124.035-124.035,124.035c-34.356,0-66.143-14.054-89.122-37.813
		c-10.484-10.82-19.074-23.647-25.208-38.036c-3.682-8.476,0.335-18.293,8.812-21.862c5.689-2.454,11.825-1.562,16.397,1.896
		c0.558,0.446,1.115,0.892,1.673,1.45c0.557,0.446,1.004,1.004,1.562,1.562c0.892,1.115,1.672,2.454,2.342,3.904
		c14.277,33.686,47.071,55.436,83.545,55.436c49.859,0,90.572-40.601,90.572-90.572c0-9.258,7.473-16.731,16.731-16.731
		S469.257,31.076,469.257,40.334z"/>
</g>
<g>
	<path style="fill:#F9A926;" d="M400.028,444.219c-4.575,0-9.204-0.359-13.856-1.09c-26.121-4.085-53.298-19.809-80.781-46.735
		c-6.601-6.465-6.71-17.058-0.24-23.659c6.471-6.607,17.058-6.705,23.659-0.24c22.407,21.944,43.44,34.59,62.525,37.575
		c22.004,3.41,39.105-7.26,49.573-16.841c24.781-22.662,39.803-62.345,37.384-98.738c-2.026-30.581-13.79-68.924-40.271-76.32
		c-27.134-7.581-42.002,8.105-65.956,36.491c-20.522,24.318-43.767,51.883-82.175,51.883c-9.237,0-16.731-7.489-16.731-16.731
		c0-9.242,7.495-16.731,16.731-16.731c22.853,0,38.495-18.534,56.599-39.998c22.886-27.134,51.381-60.896,100.529-47.144
		c36.763,10.272,60.934,50.025,64.671,106.341c3.04,45.989-16.317,96.477-48.189,125.638
		C444.535,435.27,422.826,444.219,400.028,444.219z"/>
	<path style="fill:#F9A926;" d="M348.124,23.603h-0.335c-17.624,0-31.901,14.277-31.901,31.901s14.277,31.901,31.901,31.901h0.335
		c17.513-0.223,31.568-14.389,31.568-31.901S365.636,23.826,348.124,23.603z"/>
	<path style="fill:#F9A926;" d="M266.92,386.226c-0.335,17.066-3.904,32.124-10.708,45.398c0,0.112-0.112,0.112-0.112,0.223v-98.938
		c0.112,0.223,0.223,0.558,0.446,0.781C263.574,349.417,267.256,367.152,266.92,386.226z"/>
	<path style="fill:#F9A926;" d="M469.257,40.334c0,68.374-55.659,124.035-124.035,124.035c-34.356,0-66.143-14.054-89.122-37.813
		V68.554c0.558,0.446,1.115,0.892,1.673,1.45c0.557,0.446,1.004,1.004,1.562,1.562c0.892,1.115,1.672,2.454,2.342,3.904
		c14.277,33.686,47.071,55.436,83.545,55.436c49.859,0,90.572-40.601,90.572-90.572c0-9.258,7.473-16.731,16.731-16.731
		S469.257,31.076,469.257,40.334z"/>
</g>
<g>
</g>
<g>
</g>
<g>
</g>
<g>
</g>
<g>
</g>
<g>
</g>
<g>
</g>
<g>
</g>
<g>
</g>
<g>
</g>
<g>
</g>
<g>
</g>
<g>
</g>
<g>
</g>
<g>
</g>
</svg>
