<?xml version="1.0" encoding="iso-8859-1"?>
<svg version="1.1" id="Layer_1" xmlns="http://www.w3.org/2000/svg" xmlns:xlink="http://www.w3.org/1999/xlink" x="0px" y="0px"
	 viewBox="0 0 512 512" style="enable-background:new 0 0 512 512;">
<g>
	<path style="fill:#EFE7D5;" d="M97.103,441.379c-19.5,0-35.31,15.81-35.31,35.31c0,19.5,15.81,35.31,35.31,35.31h353.103v-70.621
		H97.103z"/>
	<path style="fill:#F0785A;" d="M61.793,35.31V476.69c0-19.5,15.81-35.31,35.31-35.31h353.103V0H97.103
		C77.603,0,61.793,15.81,61.793,35.31"/>
	<path style="fill:#CBB292;" d="M414.897,485.517H105.931c-4.873,0-8.828-3.955-8.828-8.828c0-4.873,3.955-8.828,8.828-8.828
		h308.966c4.873,0,8.828,3.955,8.828,8.828C423.724,481.562,419.769,485.517,414.897,485.517"/>
	<path style="fill:#CC614C;" d="M97.103,441.379h35.31V0h-35.31c-19.5,0-35.31,15.81-35.31,35.31V476.69
		C61.793,457.19,77.603,441.379,97.103,441.379"/>
	<g>
		<path style="fill:#FFFFFF;" d="M200.59,282.483h181.442l-90.721-158.755L200.59,282.483z M397.242,300.138H185.38
			c-3.151,0-6.056-1.677-7.636-4.396s-1.589-6.082-0.026-8.81l105.931-185.379c3.134-5.5,12.191-5.5,15.325,0l105.931,185.379
			c1.563,2.728,1.554,6.091-0.026,8.81C403.298,298.461,400.385,300.138,397.242,300.138L397.242,300.138z"/>
		<path style="fill:#FFFFFF;" d="M200.59,176.552l90.721,158.755l90.721-158.755H200.59z M291.311,361.931
			c-3.169,0-6.1-1.695-7.662-4.449L177.718,172.103c-1.562-2.728-1.554-6.091,0.026-8.81c1.58-2.719,4.484-4.396,7.636-4.396
			h211.862c3.143,0,6.056,1.677,7.636,4.396c1.58,2.719,1.589,6.082,0.026,8.81L298.974,357.482
			C297.402,360.236,294.48,361.931,291.311,361.931L291.311,361.931z"/>
	</g>
</g>
<g>
</g>
<g>
</g>
<g>
</g>
<g>
</g>
<g>
</g>
<g>
</g>
<g>
</g>
<g>
</g>
<g>
</g>
<g>
</g>
<g>
</g>
<g>
</g>
<g>
</g>
<g>
</g>
<g>
</g>
</svg>
