<?xml version="1.0" encoding="iso-8859-1"?>
<svg version="1.1" id="Capa_1" xmlns="http://www.w3.org/2000/svg" xmlns:xlink="http://www.w3.org/1999/xlink" x="0px" y="0px"
	 viewBox="0 0 512 512" style="enable-background:new 0 0 512 512;">
<g transform="matrix(1.25 0 0 -1.25 0 45)">
	<g>
		<g>
			<g>
				<path style="fill:#FFAC33;" d="M260.324-340.572c-1.115,2.048-2.844,3.436-4.756,4.449c-18.17,19.41-5.257,42.177-5.257,42.177
					c0,6.281,11.378,22.756,0,22.756l-11.378-11.378c-11.378-11.378-11.378-45.511-11.378-45.511H204.8
					c-6.292,0-11.378-5.097-11.378-11.378c0-6.292,5.086-11.378,11.378-11.378h12.607l-2.526-1.365
					c-5.53-2.992-7.589-9.899-4.597-15.428c2.981-5.53,9.887-7.589,15.417-4.597l30.026,16.236
					C261.257-353.008,263.316-346.101,260.324-340.572"/>
				<path style="fill:#FFAC33;" d="M180.679-340.572c-1.104,2.048-2.833,3.436-4.745,4.449c-18.17,19.41-5.268,42.177-5.268,42.177
					c0,6.281,11.378,22.756,0,22.756l-11.378-11.378c-11.378-11.378-11.378-45.511-11.378-45.511h-22.756
					c-6.292,0-11.378-5.097-11.378-11.378c0-6.292,5.086-11.378,11.378-11.378h12.607l-2.526-1.365
					c-5.53-2.992-7.589-9.899-4.597-15.428c2.981-5.53,9.887-7.589,15.417-4.597l30.026,16.236
					C181.612-353.008,183.671-346.101,180.679-340.572"/>
			</g>
			<path style="fill:#BE1931;" d="M58.414-43.646c22.756-56.889-34.133-56.889-22.756-79.644s56.889,22.756,34.133,79.644
				S58.414-43.646,58.414-43.646"/>
			<path style="fill:#FFAC33;" d="M79.644-32.268c0-12.561,21.993-22.756,0-22.756S0-43.646,0-32.268S12.14,1.865,34.133,1.865
				S79.644-19.707,79.644-32.268"/>
			<path style="fill:#C1694F;" d="M68.267-202.935c0,68.267,36.511,147.911,11.378,147.911c-45.511,0-45.511,20.378-45.511,45.511
				s20.378,45.511,45.511,45.511c79.644,0,68.267-102.4,45.511-147.911C106.109-150.005,102.15-202.935,68.267-202.935"/>
			<g>
				<path style="fill:#292F33;" d="M409.6-157.424c0-90.556-56.889-128.569-113.778-127.989c-23.142-20.435-56.058-31.3-91.022-31.3
					c-75.401,0-136.533,55.023-136.533,122.88c0,67.868,61.133,122.88,136.533,122.88c34.133,30.72,79.644,73.956,113.778,84.196
					C386.844-27.717,409.6-75.504,409.6-157.424"/>
				<path style="fill:#292F33;" d="M79.644,1.865c0-6.281-5.097-11.378-11.378-11.378S56.889-4.415,56.889,1.865
					s5.097,11.378,11.378,11.378S79.644,8.146,79.644,1.865"/>
			</g>
			<g>
				<path style="fill:#66757F;" d="M204.618-70.953c-18.5-0.023-36.113-3.379-52.178-9.432
					c44.533,2.606,72.272,0.478,109.261-17.658C251.199-80.794,223.107-70.953,204.618-70.953"/>
				<path style="fill:#66757F;" d="M408.758-132.848c-0.978,14.541-2.89,27.944-5.916,40.334
					C331.73-106.997,364.112-132.848,408.758-132.848"/>
				<path style="fill:#66757F;" d="M386.173-50.609c-7.691,13.13-17.533,25.088-29.844,36.25
					C274.842-55.024,322.128-68.176,386.173-50.609"/>
				<path style="fill:#66757F;" d="M399.929-215.28c-38.707,12.345-48.321-9.341-25.213-38.855
					c-28.444,26.67-45.864,12.095-38.047-22.756c-16.703,24.895-33.769,2.367-40.88-8.522
					C338.569-285.845,381.338-264.432,399.929-215.28"/>
				<path style="fill:#66757F;" d="M356.352-14.337c-10.661,9.671-23.086,18.796-37.717,27.58
					C238.99-28.718,295.879-36.888,356.352-14.337"/>
				<path style="fill:#66757F;" d="M399.929-215.268c6.121,16.202,9.637,35.396,9.637,57.845c0,8.59-0.319,16.737-0.853,24.61
					c-52.452-4.346-43.236-32.791,0.068-38.127C368.321-171.646,361.222-196.541,399.929-215.268"/>
				<path style="fill:#66757F;" d="M386.196-50.643c-73.125-27.136-42.018-48.822,16.634-41.791
					C399.098-77.142,393.626-63.341,386.196-50.643"/>
			</g>
		</g>
	</g>
</g>
<g>
</g>
<g>
</g>
<g>
</g>
<g>
</g>
<g>
</g>
<g>
</g>
<g>
</g>
<g>
</g>
<g>
</g>
<g>
</g>
<g>
</g>
<g>
</g>
<g>
</g>
<g>
</g>
<g>
</g>
</svg>
