<?xml version="1.0" encoding="iso-8859-1"?>
<!-- Generator: Adobe Illustrator 19.0.0, SVG Export Plug-In . SVG Version: 6.00 Build 0)  -->
<svg version="1.1" id="Capa_1" xmlns="http://www.w3.org/2000/svg" xmlns:xlink="http://www.w3.org/1999/xlink" x="0px" y="0px"
	 viewBox="0 0 512 512" style="enable-background:new 0 0 512 512;" xml:space="preserve">
<rect x="30" y="90" style="fill:#FFF7A5;" width="30" height="75"/>
<path style="fill:#F67547;" d="M90,194.999c0-24.813-20.187-45-45-45s-45,20.187-45,45v30l45,30l45-30V194.999z"/>
<polygon style="fill:#F9A167;" points="0,224.999 0,314.999 90,374.999 90,224.999 "/>
<rect x="452" y="90" style="fill:#FFEF4A;" width="30" height="75"/>
<path style="fill:#F34A28;" d="M422,194.999c0-24.813,20.187-45,45-45s45,20.187,45,45v30l-45,30l-45-30V194.999z"/>
<polygon style="fill:#F67547;" points="512,224.999 512,314.999 422,374.999 422,224.999 "/>
<rect x="241" style="fill:#FFF7A5;" width="30" height="45"/>
<path style="fill:#F34A28;" d="M361,135c0-57.897-47.103-105-105-105l-35,175L361,135z"/>
<path style="fill:#F67547;" d="M256,30c-57.897,0-105,47.103-105,105l105,70V30z"/>
<polygon style="fill:#F9A167;" points="361,135 256,135 221,297.5 361,297.5 "/>
<g>
	<rect x="151" y="135" style="fill:#FCCC86;" width="105" height="162.5"/>
	<polygon style="fill:#FCCC86;" points="0,315 0,512 121,512 166,315 	"/>
</g>
<polygon style="fill:#F9A167;" points="512,315 512,512 391,512 346,315 "/>
<path style="fill:#FCCC86;" d="M391,315c0-74.439-60.561-135-135-135l-45,225l180-45V315z"/>
<g>
	<path style="fill:#FEE3AC;" d="M256,180c-74.439,0-135,60.561-135,135v45l135,45V180z"/>
	<polygon style="fill:#FEE3AC;" points="391,360 301,360 256,436 301,512 391,512 	"/>
</g>
<g>
	<polygon style="fill:#FFFBD2;" points="121,360 121,512 211,512 256,436 211,360 	"/>
	<path style="fill:#FFFBD2;" d="M256,240l-29.232,45L256,330c24.813,0,45-20.187,45-45S280.813,240,256,240z"/>
</g>
<path style="fill:#FFFFFF;" d="M211,285c0,24.813,20.187,45,45,45v-90C231.187,240,211,260.187,211,285z"/>
<polygon style="fill:#F9A167;" points="301,512 256,512 226,436 256,360 301,360 "/>
<rect x="211" y="360" style="fill:#FCCC86;" width="45" height="152"/>
<g>
</g>
<g>
</g>
<g>
</g>
<g>
</g>
<g>
</g>
<g>
</g>
<g>
</g>
<g>
</g>
<g>
</g>
<g>
</g>
<g>
</g>
<g>
</g>
<g>
</g>
<g>
</g>
<g>
</g>
</svg>
