<?xml version="1.0" encoding="iso-8859-1"?>
<svg version="1.1" id="Capa_1" xmlns="http://www.w3.org/2000/svg" xmlns:xlink="http://www.w3.org/1999/xlink" x="0px" y="0px"
	 viewBox="0 0 512 512" style="enable-background:new 0 0 512 512;">
<g>
	<path style="fill:#323641;" d="M451.048,73.27c-4.328,0-7.837-3.509-7.837-7.837V9.404c0-4.328,3.509-7.837,7.837-7.837
		s7.837,3.509,7.837,7.837v56.03C458.885,69.762,455.376,73.27,451.048,73.27z"/>
	<path style="fill:#323641;" d="M60.952,73.27c-4.328,0-7.837-3.509-7.837-7.837V9.404c0-4.328,3.509-7.837,7.837-7.837
		s7.837,3.509,7.837,7.837v56.03C68.789,69.762,65.28,73.27,60.952,73.27z"/>
	<path style="fill:#323641;" d="M256,142.23c-4.328,0-7.837-3.509-7.837-7.837V56.03c0-4.328,3.509-7.837,7.837-7.837
		s7.837,3.509,7.837,7.837v78.363C263.837,138.722,260.328,142.23,256,142.23z"/>
</g>
<polygon style="fill:#F4633B;" points="445.767,510.432 85.298,510.432 121.901,203.932 256.003,123.422 361.13,186.545
	390.095,203.932 431.661,432.775 "/>
<polygon style="fill:#E25333;" points="431.661,432.775 431.661,510.432 361.13,510.432 361.13,186.545 390.095,203.932 "/>
<path style="fill:#E0501E;" d="M60.952,54.461L60.952,54.461C27.289,54.461,0,81.751,0,115.413v395.019h121.903V115.413
	C121.903,81.751,94.614,54.461,60.952,54.461z"/>
<path style="fill:#C43914;" d="M78.192,56.95c-5.468-1.61-11.25-2.489-17.24-2.489l0,0C27.289,54.461,0,81.751,0,115.413v395.019
	h34.48V115.413C34.48,87.74,52.927,64.39,78.192,56.95z"/>
<rect y="283.282" style="fill:#E9E8EA;" width="121.908" height="227.15"/>
<rect y="283.282" style="fill:#CECECE;" width="34.48" height="227.15"/>
<polyline style="fill:#F4EEFC;" points="121.903,115.413 0,115.413 0,148.498 121.903,148.498 "/>
<polyline style="fill:#CECECE;" points="34.48,115.413 0,115.413 0,148.498 34.48,148.498 "/>
<path style="fill:#E0501E;" d="M451.049,54.461L451.049,54.461c-33.662,0-60.952,27.289-60.952,60.951v395.021H512V115.413
	C512,81.751,484.711,54.461,451.049,54.461z"/>
<path style="fill:#C43914;" d="M468.289,56.95c-5.468-1.61-11.25-2.489-17.24-2.489l0,0c-33.662,0-60.951,27.289-60.951,60.951
	v395.021h34.48V115.413C424.577,87.74,443.024,64.39,468.289,56.95z"/>
<rect x="390.092" y="283.282" style="fill:#E9E8EA;" width="121.908" height="227.15"/>
<rect x="390.092" y="283.282" style="fill:#CECECE;" width="34.48" height="227.15"/>
<polyline style="fill:#F4EEFC;" points="512,115.413 390.097,115.413 390.097,148.498 512,148.498 "/>
<polyline style="fill:#CECECE;" points="424.577,115.413 390.097,115.413 390.097,148.498 424.577,148.498 "/>
<g>
	<path style="fill:#323641;" d="M211.463,370.085L211.463,370.085c-15.136,0-27.407,12.27-27.407,27.407v112.941h54.814V397.492
		C238.871,382.355,226.6,370.085,211.463,370.085z"/>
	<path style="fill:#323641;" d="M300.537,370.085L300.537,370.085c-15.136,0-27.407,12.27-27.407,27.407v112.941h54.814V397.492
		C327.943,382.355,315.673,370.085,300.537,370.085z"/>
	<path style="fill:#323641;" d="M71.846,182.977L71.846,182.977c-13.849,0-25.077,11.227-25.077,25.077v75.228h50.153v-75.228
		C96.923,194.205,85.695,182.977,71.846,182.977z"/>
	<path style="fill:#323641;" d="M71.846,344.407L71.846,344.407c-13.849,0-25.077,11.227-25.077,25.077v75.228h50.153v-75.228
		C96.923,355.633,85.695,344.407,71.846,344.407z"/>
	<path style="fill:#323641;" d="M440.154,182.977L440.154,182.977c-13.849,0-25.077,11.227-25.077,25.077v75.228h50.153v-75.228
		C465.23,194.205,454.003,182.977,440.154,182.977z"/>
	<path style="fill:#323641;" d="M440.154,344.407L440.154,344.407c-13.849,0-25.077,11.227-25.077,25.077v75.228h50.153v-75.228
		C465.23,355.633,454.003,344.407,440.154,344.407z"/>
	<path style="fill:#323641;" d="M312.811,261.68l21.619-37.445c1.4-2.425,1.4-5.412,0-7.837c-1.4-2.425-3.986-3.918-6.787-3.918
		h-43.238l-21.619-37.444c-1.4-2.425-3.986-3.918-6.787-3.918s-5.386,1.493-6.787,3.918l-21.619,37.444h-43.237
		c-2.8,0-5.386,1.493-6.787,3.918c-1.4,2.425-1.4,5.412,0,7.837l21.619,37.445l-21.619,37.445c-1.4,2.425-1.4,5.411,0,7.837
		c1.4,2.425,3.986,3.918,6.787,3.918h43.237l21.619,37.444c1.4,2.425,3.986,3.918,6.787,3.918s5.386-1.493,6.787-3.918
		l21.619-37.444h43.238c2.8,0,5.386-1.493,6.787-3.918c1.4-2.425,1.4-5.412,0-7.837L312.811,261.68z M314.069,228.154
		l-10.308,17.853l-10.308-17.853H314.069z M294.712,261.68l-19.357,33.527h-38.712l-19.357-33.527l19.357-33.527h38.712
		L294.712,261.68z M256,194.628l10.307,17.852h-20.615L256,194.628z M197.931,228.154h20.615l-10.307,17.853L197.931,228.154z
		 M197.931,295.207l10.307-17.853l10.307,17.853H197.931z M256,328.732l-10.307-17.852h20.615L256,328.732z M293.454,295.207
		l10.308-17.853l10.308,17.853H293.454z"/>
</g>
<g>
</g>
<g>
</g>
<g>
</g>
<g>
</g>
<g>
</g>
<g>
</g>
<g>
</g>
<g>
</g>
<g>
</g>
<g>
</g>
<g>
</g>
<g>
</g>
<g>
</g>
<g>
</g>
<g>
</g>
</svg>
