<?xml version="1.0" encoding="iso-8859-1"?>
<svg version="1.1" id="Capa_1" xmlns="http://www.w3.org/2000/svg" xmlns:xlink="http://www.w3.org/1999/xlink" x="0px" y="0px"
	 viewBox="0 0 512 512" style="enable-background:new 0 0 512 512;">
<path style="fill:#FF9C4F;" d="M419.284,0h-30.905v512h30.905C470.278,512,512,470.278,512,419.284V92.716
	C512,41.722,470.278,0,419.284,0z"/>
<path style="fill:#FFB751;" d="M481.095,92.716v326.567c0,50.994-41.722,92.716-92.716,92.716H92.716
	C41.722,512,0,470.278,0,419.284V92.716C0,41.722,41.722,0,92.716,0h295.662C439.372,0,481.095,41.722,481.095,92.716z"/>
<path style="fill:#FFFFFF;" d="M316.518,360.821h121.037L377.037,256l60.518-104.821H316.518L256,46.358l-60.518,104.821H74.445
	L134.963,256L74.445,360.821h121.037L256,465.642L316.518,360.821z M384.026,329.915h-49.664l24.831-43.01L384.026,329.915z
	 M298.675,329.915h-85.351L170.649,256l42.675-73.915h85.35L341.35,256L298.675,329.915z M384.026,182.085l-24.832,43.01
	l-24.831-43.01H384.026z M256,108.169l24.831,43.01h-49.664L256,108.169z M127.974,182.085h49.664l-24.831,43.01L127.974,182.085z
	 M127.974,329.915l24.831-43.01l24.831,43.01H127.974z M280.831,360.821L256,403.831l-24.831-43.01H280.831z"/>
</svg>
