<?xml version="1.0" standalone="no"?>
<!DOCTYPE svg PUBLIC "-//W3C//DTD SVG 20010904//EN"
 "http://www.w3.org/TR/2001/REC-SVG-20010904/DTD/svg10.dtd">
<svg version="1.0" xmlns="http://www.w3.org/2000/svg"
 width="700.000000pt" height="700.000000pt" viewBox="0 0 700.000000 700.000000"
 preserveAspectRatio="xMidYMid meet">
<metadata>
Created by potrace 1.11, written by Peter Selinger 2001-2013
</metadata>
<g transform="translate(0.000000,700.000000) scale(0.100000,-0.100000)"
fill="#000000" stroke="none">
<path d="M2 3496 l3 -3431 2286 0 2287 0 1141 1142 1142 1142 0 1090 c0 600
-1 1630 -1 2289 l0 1198 -3430 0 -3430 0 2 -3430z m2364 2531 c68 -25 143 -91
177 -155 28 -53 47 -141 41 -181 -12 -80 -18 -99 -39 -141 -29 -57 -102 -125
-163 -153 -29 -12 -76 -22 -123 -25 -64 -4 -85 -1 -137 21 -73 29 -118 66
-159 127 -123 185 -44 431 164 510 66 25 167 24 239 -3z m2263 7 c73 -20 139
-69 183 -135 44 -68 59 -111 59 -182 2 -119 -58 -231 -157 -295 -172 -109
-406 -39 -493 148 -37 79 -37 201 0 280 72 156 240 232 408 184z"/>
</g>
</svg>
