<svg xmlns="http://www.w3.org/2000/svg" viewBox="0 0 171 174">
  <g fill="none" fill-rule="evenodd">
    <g fill-rule="nonzero" transform="translate(56 64)">
      <polygon fill="#9D9D9D" points="0 46.5 29.5 0 59 46.5 29.5 63.409"/>
      <polygon fill="#777777" points="29.5 0 59 46.5 29.5 63.409"/>
      <polygon fill="#999999" points="0 52.841 29.5 69.75 59 52.841 29.5 93"/>
      <polygon fill="#717171" points="29.5 69.75 59 52.841 29.5 93"/>
      <polygon fill="#696969" points="0 46.5 29.5 33.818 59 46.5 29.5 63.409"/>
      <polygon fill="#545454" points="29.5 33.818 59 46.5 29.5 63.409"/>
    </g>
    <g fill-rule="nonzero">
      <path fill="#969696" d="M0.158311973,32.0504526 L0.158311973,156.765894 C0.158311973,166.047534 7.67942833,173.598729 16.9238094,173.598729 L153.820988,173.598729 C163.065081,173.598729 170.586197,166.047534 170.586197,156.765894 L170.586197,32.0504526 C170.586197,22.768812 163.065081,15.2179068 153.820988,15.2179068 L136.565848,15.2179068 L136.565848,6.34622296 C136.565848,2.92123128 133.800435,0.144758735 130.389086,0.144758735 C126.977737,0.144758735 124.212324,2.92123128 124.212324,6.34622296 L124.212324,15.2176173 L46.5321855,15.2176173 L46.5321855,6.34622296 C46.5321855,2.92123128 43.7667723,0.144758735 40.3554233,0.144758735 C36.9440742,0.144758735 34.178661,2.92123128 34.178661,6.34622296 L34.178661,15.2176173 L16.9238094,15.2176173 C7.67913997,15.2179068 0.158311973,22.7691015 0.158311973,32.0504526 Z M158.232673,156.765894 C158.232673,159.212027 156.257378,161.1958 153.820988,161.1958 L16.9235211,161.1958 C14.4868432,161.1958 12.5115481,159.212027 12.5115481,156.765894 L12.5115481,60.0456339 L158.232384,60.0456339 L158.232384,156.765894 L158.232673,156.765894 Z M40.3554233,40.898975 C43.7667723,40.898975 46.5321855,38.1225025 46.5321855,34.6975108 L46.5321855,27.6208353 L124.212324,27.6208353 L124.212324,34.6975108 C124.212324,38.1225025 126.977737,40.898975 130.389086,40.898975 C133.800435,40.898975 136.565848,38.1225025 136.565848,34.6975108 L136.565848,27.6208353 L153.820988,27.6208353 C156.257378,27.6208353 158.232673,29.60403 158.232673,32.0504526 L158.232673,47.6427055 L12.5118364,47.6427055 L12.5118364,32.0504526 C12.5118364,29.6037404 14.4871315,27.6208353 16.9238094,27.6208353 L34.1783727,27.6208353 L34.1783727,34.6975108 C34.178661,38.1225025 36.9437858,40.898975 40.3554233,40.898975 Z"/>
      <path d="M153.820988,173.743198 L16.9235211,173.743198 C7.59955143,173.743198 0.013841484,166.127151 0.013841484,156.765604 L0.013841484,32.0501631 C0.013841484,22.6889052 7.59955143,15.0728586 16.9238094,15.0725691 L34.0341906,15.0725691 L34.0341906,6.34622296 C34.0341906,2.84682529 36.8696762,0 40.3551349,0 C43.8405936,0 46.6760793,2.84682529 46.6760793,6.34622296 L46.6760793,15.0728586 L124.067853,15.0728586 L124.067853,6.34622296 C124.067853,2.84682529 126.903339,0 130.388798,0 C133.874256,0 136.709742,2.84682529 136.709742,6.34622296 L136.709742,15.0731481 L153.8207,15.0731481 C163.144381,15.0731481 170.730091,22.6891947 170.730091,32.0504526 L170.730091,156.765894 C170.730091,166.127441 163.144669,173.743198 153.820988,173.743198 Z M16.9238094,15.362376 C7.7587285,15.362376 0.302205734,22.8487188 0.302205734,32.0504526 L0.302205734,156.765894 C0.302205734,165.967627 7.75844013,173.45397 16.9235211,173.45397 L153.8207,173.45397 C162.985492,173.45397 170.441727,165.967917 170.441727,156.765894 L170.441727,32.0504526 C170.441727,22.8487188 162.985781,15.3626656 153.8207,15.3626656 L136.421378,15.3626656 L136.421378,6.34622296 C136.421378,3.00634942 133.715079,0.289517471 130.388798,0.289517471 C127.062516,0.289517471 124.356218,3.00663894 124.356218,6.34622296 L124.356218,15.362376 L46.3880034,15.362376 L46.3880034,6.34622296 C46.3880034,3.00634942 43.6817049,0.289517471 40.3554233,0.289517471 C37.0291417,0.289517471 34.3228432,3.00663894 34.3228432,6.34622296 L34.3228432,15.362376 L16.9238094,15.362376 Z M153.820988,161.34027 L16.9235211,161.34027 C14.4112917,161.34027 12.3673659,159.28817 12.3673659,156.765604 L12.3673659,59.9008752 L158.376567,59.9008752 L158.376567,156.765894 C158.376855,159.288459 156.333218,161.34027 153.820988,161.34027 Z M12.6560185,60.1903927 L12.6560185,156.765894 C12.6560185,159.128646 14.5704688,161.051042 16.9238094,161.051042 L153.820988,161.051042 C156.17404,161.051042 158.088491,159.128646 158.088491,156.765894 L158.088491,60.1903927 L12.6560185,60.1903927 Z M158.376855,47.7874642 L12.3676543,47.7874642 L12.3676543,32.0504526 C12.3676543,29.5281764 14.4115801,27.4760765 16.9238094,27.4760765 L34.3225548,27.4760765 L34.3225548,34.6975108 C34.3228432,38.0370948 37.0291417,40.7542163 40.3554233,40.7542163 C43.6817049,40.7542163 46.3880034,38.0370948 46.3880034,34.6975108 L46.3880034,27.4760765 L124.356506,27.4760765 L124.356506,34.6975108 C124.356506,38.0370948 127.062804,40.7542163 130.389086,40.7542163 C133.715368,40.7542163 136.421666,38.0370948 136.421666,34.6975108 L136.421666,27.4760765 L153.820988,27.4760765 C156.333218,27.4760765 158.376855,29.5281764 158.376855,32.0504526 L158.376855,47.7874642 Z M12.6560185,47.4979468 L158.088491,47.4979468 L158.088491,32.0504526 C158.088491,29.6877005 156.17404,27.765594 153.820988,27.765594 L136.71003,27.765594 L136.71003,34.6975108 C136.71003,38.1969085 133.874545,41.0437338 130.389086,41.0437338 C126.903627,41.0437338 124.068142,38.1969085 124.068142,34.6975108 L124.068142,27.765594 L46.6763676,27.765594 L46.6763676,34.6975108 C46.6763676,38.1969085 43.840882,41.0437338 40.3554233,41.0437338 C36.870253,41.0437338 34.0344789,38.1969085 34.0341906,34.6975108 L34.0341906,27.765594 L16.9235211,27.765594 C14.5701804,27.765594 12.6557302,29.6877005 12.6557302,32.0504526 L12.6557302,47.4979468 L12.6560185,47.4979468 Z"/>
    </g>
  </g>
</svg>
